<svg width="13" height="12" viewBox="0 0 13 12" fill="none" xmlns="http://www.w3.org/2000/svg">
<g clip-path="url(#clip0)">
<path fill-rule="evenodd" clip-rule="evenodd" d="M7.00986 3.74774C6.72509 3.46116 6.72509 2.99844 7.00986 2.71187L7.17909 2.54157C7.56088 2.15737 8.18246 2.15737 8.56426 2.54158L12.0011 6.00018C12.0011 6.00018 12.0011 6.00019 12.0011 6.0002C12.0011 6.00021 12.0011 6.00022 12.0011 6.00023C12.0011 6.00023 12.0011 6.00024 12.0011 6.00025L8.56426 9.45885C8.18246 9.84306 7.56088 9.84306 7.17909 9.45885L7.00972 9.28841C6.72503 9.00192 6.72503 8.53933 7.00972 8.25283C7.47024 7.7894 7.14199 7.00046 6.48866 7.00046H1C0.447716 7.00046 0 6.55274 0 6.00046C0 5.44817 0.447715 5.00046 1 5.00046H6.48866C7.14217 5.00046 7.47051 4.21129 7.00986 3.74774Z" fill="#44E0B7"/>
</g>
<defs>
<clipPath id="clip0">
<rect width="12.0011" height="11.9934" fill="white" transform="translate(0 0.00341797)"/>
</clipPath>
</defs>
</svg>
