<svg width="20" height="20" viewBox="0 0 20 20" fill="none" xmlns="http://www.w3.org/2000/svg">
<path fill-rule="evenodd" clip-rule="evenodd" d="M9.533 0.0170898C6.94882 0.0170898 6.62451 0.0283892 5.60955 0.0745777C4.59657 0.120965 3.90513 0.281336 3.30012 0.51664C2.6743 0.759675 2.14342 1.08478 1.61454 1.61387C1.08525 2.14275 0.760147 2.67362 0.516319 3.29925C0.280421 3.90446 0.119851 4.5961 0.0742574 5.60868C0.0288618 6.62364 0.0169678 6.94815 0.0169678 9.53233C0.0169678 12.1165 0.0284654 12.4398 0.0744557 13.4548C0.121041 14.4678 0.281412 15.1592 0.516518 15.7642C0.759751 16.39 1.08485 16.9209 1.61394 17.4498C2.14263 17.9791 2.6735 18.305 3.29893 18.548C3.90434 18.7833 4.59598 18.9437 5.60875 18.9901C6.62371 19.0363 6.94783 19.0476 9.53181 19.0476C12.1162 19.0476 12.4395 19.0363 13.4545 18.9901C14.4674 18.9437 15.1597 18.7833 15.7651 18.548C16.3907 18.305 16.9208 17.9791 17.4495 17.4498C17.9788 16.9209 18.3039 16.39 18.5477 15.7644C18.7816 15.1592 18.9422 14.4676 18.9898 13.455C19.0353 12.44 19.0472 12.1165 19.0472 9.53233C19.0472 6.94815 19.0353 6.62384 18.9898 5.60888C18.9422 4.5959 18.7816 3.90446 18.5477 3.29945C18.3039 2.67363 17.9788 2.14275 17.4495 1.61387C16.9202 1.08458 16.3909 0.759477 15.7645 0.51664C15.1579 0.281336 14.4661 0.120965 13.4531 0.0745777C12.4381 0.0283892 12.115 0.0170898 9.53002 0.0170898H9.533ZM8.67934 1.73227C8.93268 1.73188 9.21537 1.73227 9.53294 1.73227C12.0735 1.73227 12.3746 1.74139 13.3779 1.78699C14.3056 1.82941 14.8091 1.98443 15.1445 2.11467C15.5886 2.28713 15.9052 2.49329 16.238 2.82633C16.571 3.15936 16.7772 3.47654 16.9501 3.92058C17.0803 4.2556 17.2355 4.75911 17.2777 5.68685C17.3233 6.68991 17.3332 6.99123 17.3332 9.5306C17.3332 12.07 17.3233 12.3713 17.2777 13.3744C17.2353 14.3021 17.0803 14.8056 16.9501 15.1406C16.7776 15.5847 16.571 15.9009 16.238 16.2337C15.905 16.5667 15.5888 16.7729 15.1445 16.9454C14.8095 17.0762 14.3056 17.2308 13.3779 17.2732C12.3748 17.3188 12.0735 17.3287 9.53294 17.3287C6.99217 17.3287 6.69105 17.3188 5.68799 17.2732C4.76025 17.2304 4.25674 17.0754 3.92113 16.9452C3.47708 16.7727 3.15991 16.5665 2.82688 16.2335C2.49384 15.9005 2.28768 15.5841 2.11482 15.1398C1.98458 14.8048 1.82936 14.3013 1.78714 13.3736C1.74155 12.3705 1.73243 12.0692 1.73243 9.52822C1.73243 6.98726 1.74155 6.68753 1.78714 5.68447C1.82956 4.75673 1.98458 4.25322 2.11482 3.9178C2.28728 3.47376 2.49384 3.15659 2.82688 2.82355C3.15991 2.49052 3.47708 2.28436 3.92113 2.1115C4.25654 1.98066 4.76025 1.82604 5.68799 1.78342C6.56577 1.74377 6.90594 1.73188 8.67934 1.7299V1.73227ZM14.6122 3.31171C13.9818 3.31171 13.4703 3.82256 13.4703 4.45314C13.4703 5.08353 13.9818 5.59497 14.6122 5.59497C15.2425 5.59497 15.754 5.08353 15.754 4.45314C15.754 3.82276 15.2425 3.31131 14.6122 3.31131V3.31171ZM9.53273 4.64595C6.83417 4.64595 4.64627 6.83386 4.64627 9.53242C4.64627 12.231 6.83417 14.4179 9.53273 14.4179C12.2313 14.4179 14.4184 12.231 14.4184 9.53242C14.4184 6.83386 12.2311 4.64595 9.53254 4.64595H9.53273ZM9.53258 6.36052C11.2842 6.36052 12.7043 7.78047 12.7043 9.53227C12.7043 11.2839 11.2842 12.704 9.53258 12.704C7.78079 12.704 6.36084 11.2839 6.36084 9.53227C6.36084 7.78047 7.78079 6.36052 9.53258 6.36052Z" fill="#44E0B7"/>
</svg>
