<svg width="21" height="21" viewBox="0 0 21 21" fill="none" xmlns="http://www.w3.org/2000/svg">
<path fill-rule="evenodd" clip-rule="evenodd" d="M10.9146 0.273438C5.34437 0.273438 0.829102 4.79104 0.829102 10.3668C0.829102 14.6422 3.48725 18.295 7.23845 19.7658C7.15024 18.9678 7.07157 17.7426 7.27421 16.8694C7.45659 16.0821 8.45667 11.8532 8.45667 11.8532C8.45667 11.8532 8.1551 11.2483 8.1551 10.3548C8.1551 8.95077 8.96684 7.90339 9.98004 7.90339C10.8395 7.90339 11.2555 8.54995 11.2555 9.32535C11.2555 10.1914 10.7048 11.4857 10.4199 12.6858C10.1827 13.6915 10.9241 14.5098 11.9135 14.5098C13.7062 14.5098 15.0842 12.6178 15.0842 9.88722C15.0842 7.47035 13.3498 5.78117 10.8716 5.78117C8.00252 5.78117 6.31823 7.93559 6.31823 10.1616C6.31823 11.0288 6.6508 11.9593 7.068 12.4651C7.15024 12.5653 7.16216 12.6524 7.13832 12.755C7.06204 13.0735 6.89158 13.7595 6.85821 13.899C6.8141 14.0839 6.71159 14.1233 6.51968 14.035C5.26093 13.4481 4.47422 11.6038 4.47422 10.1246C4.47422 6.9407 6.78549 4.01564 11.1375 4.01564C14.636 4.01564 17.3549 6.51124 17.3549 9.84547C17.3549 13.324 15.1628 16.1238 12.1221 16.1238C11.0993 16.1238 10.1386 15.5918 9.80958 14.9643C9.80958 14.9643 9.30418 16.8909 9.1814 17.3633C8.95373 18.2401 8.33866 19.3388 7.92862 20.0092C8.87148 20.3026 9.87395 20.4601 10.9146 20.4601C16.4847 20.4601 21 15.9413 21 10.3668C21 4.79104 16.4847 0.273438 10.9146 0.273438Z" fill="#44E0B7"/>
</svg>
