<svg width="172" height="155" viewBox="0 0 172 155" fill="none" xmlns="http://www.w3.org/2000/svg">
<path fill-rule="evenodd" clip-rule="evenodd" d="M84.7463 73.0061H67.9314C64.8901 73.0061 62.4037 70.5187 62.4037 67.4774C62.4037 64.4384 64.8901 61.9498 67.9314 61.9498H75.9914C78.399 61.9498 80.3688 59.981 80.3688 57.5723V55.272C80.3688 52.8644 78.399 50.8945 75.9914 50.8945H28.0867C25.678 50.8945 23.7092 52.8644 23.7092 55.272V57.5723C23.7092 59.981 25.678 61.9498 28.0867 61.9498H37.5289C40.569 61.9498 43.0554 64.4384 43.0554 67.4774C43.0554 70.5187 40.569 73.0061 37.5289 73.0061H6.6689C3.0575 73.0061 0.102722 75.9609 0.102722 79.5723V83.0229C0.102722 86.6343 3.0575 89.589 6.6689 89.589H84.7463C88.3577 89.589 91.3124 86.6343 91.3124 83.0229V79.5723C91.3124 75.9609 88.3577 73.0061 84.7463 73.0061Z" fill="#F3EFF9"/>
<path fill-rule="evenodd" clip-rule="evenodd" d="M167.54 114.887H152.219C149.812 114.887 147.842 112.917 147.842 110.509C147.842 108.102 149.812 106.132 152.218 106.132H153.314C155.721 106.132 157.691 104.162 157.691 101.754C157.691 99.3468 155.721 97.377 153.314 97.377H135.804C133.396 97.377 131.426 99.3468 131.426 101.754C131.426 104.162 133.396 106.132 135.804 106.132H136.899C139.306 106.132 141.276 108.102 141.276 110.509C141.276 112.917 139.306 114.887 136.898 114.887H132.52H132.521H130.332C127.924 114.887 125.955 116.857 125.955 119.264C125.955 121.672 127.924 123.642 130.332 123.642H167.54C169.948 123.642 171.918 121.672 171.918 119.264C171.918 116.857 169.948 114.887 167.54 114.887Z" fill="#F3EFF9"/>
<path fill-rule="evenodd" clip-rule="evenodd" d="M132.532 144.909H54.8106C52.3987 144.909 50.4441 142.955 50.4441 140.543V34.3675C50.4441 31.9555 52.3987 30.001 54.8106 30.001H132.532C134.944 30.001 136.899 31.9555 136.899 34.3675V140.543C136.899 142.955 134.944 144.909 132.532 144.909Z" fill="#E7E1EF"/>
<path d="M50.9911 45.3215V35.4612C50.9911 33.0493 52.9457 31.0947 55.3577 31.0947H133.079C135.491 31.0947 137.446 33.0493 137.446 35.4612V141.636C137.446 144.048 135.491 146.003 133.079 146.003H55.3577C52.9457 146.003 50.9911 144.048 50.9911 141.636V67.7559" stroke="#320170" stroke-width="3.37671" stroke-linecap="round"/>
<path d="M50.9913 60.3693V51.3408" stroke="#320170" stroke-width="3.37671" stroke-linecap="round"/>
<path fill-rule="evenodd" clip-rule="evenodd" d="M130.333 141.078H58.1046C56.8964 141.078 55.9159 140.098 55.9159 138.89V38.2083C55.9159 37.0001 56.8964 36.0195 58.1046 36.0195H130.333C131.541 36.0195 132.521 37.0001 132.521 38.2083V138.89C132.521 140.098 131.541 141.078 130.333 141.078Z" fill="white"/>
<path fill-rule="evenodd" clip-rule="evenodd" d="M112.275 25.6232H103.521C102.12 25.6232 100.583 23.3776 100.237 22.3401C99.1431 19.0571 100.543 17.9627 100.543 17.9627C102.365 16.3584 103.521 14.0153 103.521 11.3965C103.521 6.22455 99.5436 2.71164 94.2184 2.6416C88.8933 2.71164 84.9163 6.22455 84.9163 11.3965C84.9163 14.0153 86.072 16.3584 87.8941 17.9627C87.8941 17.9627 89.2938 19.0571 88.1994 22.3401C87.8536 23.3776 86.3171 25.6232 84.9163 25.6232H76.1614C65.765 25.6232 65.2178 38.7556 65.2178 38.7556H123.219C123.219 38.7556 122.672 25.6232 112.275 25.6232Z" fill="#C5B5D9"/>
<path fill-rule="evenodd" clip-rule="evenodd" d="M112.275 25.6232H103.521C102.12 25.6232 100.583 23.3776 100.237 22.3401C99.1431 19.0571 100.543 17.9627 100.543 17.9627C102.365 16.3584 103.521 14.0153 103.521 11.3965C103.521 6.22455 99.5436 2.71164 94.2184 2.6416C88.8933 2.71164 84.9163 6.22455 84.9163 11.3965C84.9163 14.0153 86.072 16.3584 87.8941 17.9627C87.8941 17.9627 89.2938 19.0571 88.1994 22.3401C87.8536 23.3776 86.3171 25.6232 84.9163 25.6232H76.1614C65.765 25.6232 65.2178 38.7556 65.2178 38.7556H123.219C123.219 38.7556 122.672 25.6232 112.275 25.6232Z" stroke="#320170" stroke-width="3.37671" stroke-linecap="round"/>
<path fill-rule="evenodd" clip-rule="evenodd" d="M109.266 57.9071H86.2845C85.3817 57.9071 84.643 57.1684 84.643 56.2656C84.643 55.3627 85.3817 54.624 86.2845 54.624H109.266C110.169 54.624 110.908 55.3627 110.908 56.2656C110.908 57.1684 110.169 57.9071 109.266 57.9071Z" fill="#3F3F3F"/>
<path fill-rule="evenodd" clip-rule="evenodd" d="M123.493 57.9071H118.021C117.118 57.9071 116.379 57.1684 116.379 56.2656C116.379 55.3627 117.118 54.624 118.021 54.624H123.493C124.396 54.624 125.134 55.3627 125.134 56.2656C125.134 57.1684 124.396 57.9071 123.493 57.9071Z" fill="#3F3F3F"/>
<path fill-rule="evenodd" clip-rule="evenodd" d="M109.266 79.7938H86.2845C85.3817 79.7938 84.643 79.0551 84.643 78.1523C84.643 77.2494 85.3817 76.5107 86.2845 76.5107H109.266C110.169 76.5107 110.908 77.2494 110.908 78.1523C110.908 79.0551 110.169 79.7938 109.266 79.7938Z" fill="#3F3F3F"/>
<path fill-rule="evenodd" clip-rule="evenodd" d="M123.493 79.7938H118.021C117.118 79.7938 116.379 79.0551 116.379 78.1523C116.379 77.2494 117.118 76.5107 118.021 76.5107H123.493C124.396 76.5107 125.134 77.2494 125.134 78.1523C125.134 79.0551 124.396 79.7938 123.493 79.7938Z" fill="#3F3F3F"/>
<path fill-rule="evenodd" clip-rule="evenodd" d="M109.266 101.682H86.2845C85.3817 101.682 84.643 100.943 84.643 100.04C84.643 99.1371 85.3817 98.3984 86.2845 98.3984H109.266C110.169 98.3984 110.908 99.1371 110.908 100.04C110.908 100.943 110.169 101.682 109.266 101.682Z" fill="#3F3F3F"/>
<path fill-rule="evenodd" clip-rule="evenodd" d="M123.493 101.682H118.021C117.118 101.682 116.379 100.943 116.379 100.04C116.379 99.1371 117.118 98.3984 118.021 98.3984H123.493C124.396 98.3984 125.134 99.1371 125.134 100.04C125.134 100.943 124.396 101.682 123.493 101.682Z" fill="#3F3F3F"/>
<path fill-rule="evenodd" clip-rule="evenodd" d="M109.266 123.568H86.2845C85.3817 123.568 84.643 122.83 84.643 121.927C84.643 121.024 85.3817 120.285 86.2845 120.285H109.266C110.169 120.285 110.908 121.024 110.908 121.927C110.908 122.83 110.169 123.568 109.266 123.568Z" fill="#3F3F3F"/>
<path fill-rule="evenodd" clip-rule="evenodd" d="M123.493 123.568H118.021C117.118 123.568 116.379 122.83 116.379 121.927C116.379 121.024 117.118 120.285 118.021 120.285H123.493C124.396 120.285 125.134 121.024 125.134 121.927C125.134 122.83 124.396 123.568 123.493 123.568Z" fill="#3F3F3F"/>
<path fill-rule="evenodd" clip-rule="evenodd" d="M76.8904 63.9256H67.7722C66.0595 63.9256 64.6708 62.5368 64.6708 60.8242V51.7059C64.6708 49.9932 66.0595 48.6045 67.7722 48.6045H76.8904C78.6031 48.6045 79.9919 49.9932 79.9919 51.7059V60.8242C79.9919 62.5368 78.6031 63.9256 76.8904 63.9256Z" fill="#D4F4EC"/>
<path d="M74.6427 51.6719H77.3754C77.9057 51.6719 78.2373 52.2458 77.9712 52.7046L73.4173 60.5771C73.1552 61.0318 72.4998 61.0358 72.2297 60.585L70.8395 58.2534C70.7124 58.039 70.7104 57.7728 70.8355 57.5564L74.0469 52.0135C74.17 51.803 74.3964 51.6719 74.6427 51.6719Z" fill="#44E0B7"/>
<path d="M69.2468 57.0379C70.2701 57.0379 71.0997 56.2083 71.0997 55.185C71.0997 54.1616 70.2701 53.332 69.2468 53.332C68.2234 53.332 67.3938 54.1616 67.3938 55.185C67.3938 56.2083 68.2234 57.0379 69.2468 57.0379Z" fill="#5132A2"/>
<path fill-rule="evenodd" clip-rule="evenodd" d="M76.8904 85.8133H67.7722C66.0595 85.8133 64.6708 84.4245 64.6708 82.7119V73.5936C64.6708 71.8809 66.0595 70.4922 67.7722 70.4922H76.8904C78.6031 70.4922 79.9919 71.8809 79.9919 73.5936V82.7119C79.9919 84.4245 78.6031 85.8133 76.8904 85.8133Z" fill="#D4F4EC"/>
<path d="M74.6427 73.5H77.3754C77.9057 73.5 78.2373 74.074 77.9712 74.5327L73.4173 82.4052C73.1552 82.86 72.4998 82.8639 72.2297 82.4131L70.8395 80.0816C70.7124 79.8671 70.7104 79.601 70.8355 79.3845L74.0469 73.8416C74.17 73.6311 74.3964 73.5 74.6427 73.5Z" fill="#44E0B7"/>
<path fill-rule="evenodd" clip-rule="evenodd" d="M76.8904 107.7H67.7722C66.0595 107.7 64.6708 106.311 64.6708 104.599V95.4803C64.6708 93.7677 66.0595 92.3789 67.7722 92.3789H76.8904C78.6031 92.3789 79.9919 93.7677 79.9919 95.4803V104.599C79.9919 106.311 78.6031 107.7 76.8904 107.7Z" fill="#D4F4EC"/>
<path d="M69.2468 78.866C70.2701 78.866 71.0997 78.0364 71.0997 77.0131C71.0997 75.9897 70.2701 75.1602 69.2468 75.1602C68.2234 75.1602 67.3938 75.9897 67.3938 77.0131C67.3938 78.0364 68.2234 78.866 69.2468 78.866Z" fill="#5132A2"/>
<path d="M74.6427 95.3496H77.3754C77.9057 95.3496 78.2373 95.9236 77.9712 96.3823L73.4173 104.255C73.1552 104.71 72.4998 104.714 72.2297 104.263L70.8395 101.931C70.7124 101.717 70.7104 101.451 70.8355 101.234L74.0469 95.6912C74.17 95.4807 74.3964 95.3496 74.6427 95.3496Z" fill="#44E0B7"/>
<path fill-rule="evenodd" clip-rule="evenodd" d="M76.8904 129.588H67.7722C66.0595 129.588 64.6708 128.199 64.6708 126.486V117.368C64.6708 115.655 66.0595 114.267 67.7722 114.267H76.8904C78.6031 114.267 79.9919 115.655 79.9919 117.368V126.486C79.9919 128.199 78.6031 129.588 76.8904 129.588Z" fill="#D4F4EC"/>
<path fill-rule="evenodd" clip-rule="evenodd" d="M132.521 141.079H119.389L132.521 127.946V141.079Z" fill="#C5B5D9"/>
<path d="M74.6427 117.198H77.3754C77.9057 117.198 78.2373 117.772 77.9712 118.231L73.4173 126.103C73.1552 126.558 72.4998 126.562 72.2297 126.111L70.8395 123.78C70.7124 123.565 70.7104 123.299 70.8355 123.083L74.0469 117.54C74.17 117.329 74.3964 117.198 74.6427 117.198Z" fill="#44E0B7"/>
<path d="M69.2468 100.716C70.2701 100.716 71.0997 99.886 71.0997 98.8627C71.0997 97.8394 70.2701 97.0098 69.2468 97.0098C68.2234 97.0098 67.3938 97.8394 67.3938 98.8627C67.3938 99.886 68.2234 100.716 69.2468 100.716Z" fill="#5132A2"/>
<path fill-rule="evenodd" clip-rule="evenodd" d="M119.389 141.079V127.946H132.521L119.389 141.079Z" fill="#F3EFF9"/>
<path d="M69.2468 122.565C70.2701 122.565 71.0997 121.736 71.0997 120.712C71.0997 119.689 70.2701 118.859 69.2468 118.859C68.2234 118.859 67.3938 119.689 67.3938 120.712C67.3938 121.736 68.2234 122.565 69.2468 122.565Z" fill="#5132A2"/>
</svg>
