<svg width="212" height="166" viewBox="0 0 212 166" fill="none" xmlns="http://www.w3.org/2000/svg">
<path d="M95.6869 38.0684H99.427V42.6997H95.6869V38.0684Z" fill="white"/>
<path d="M85.7634 21.8193H89.5035V26.4507H85.7634V21.8193Z" fill="white"/>
<path d="M43.5647 54.2588H142.942C145.929 54.2582 148.7 55.8132 150.256 58.3626L172.719 95.1776L203.675 104.882C208.459 106.383 211.629 110.922 211.391 115.93L209.986 145.334H0.116364V126.481C0.115878 110.048 5.83636 94.1275 16.2956 81.4529L35.668 57.9794C37.6129 55.6226 40.509 54.258 43.5647 54.2588V54.2588Z" fill="#E9E9E9"/>
<path d="M92.8435 37.0024C90.3011 36.8863 87.8516 36.3174 85.4949 35.2958V29.5144C86.8416 30.1994 88.3043 30.774 89.8832 31.2384C91.462 31.6912 92.8493 31.9175 94.0451 31.9175C95.0319 31.9175 95.7516 31.8014 96.2044 31.5693C96.6688 31.3255 96.901 30.9249 96.901 30.3677C96.901 29.9846 96.7326 29.6595 96.396 29.3925C96.0709 29.1255 95.5195 28.8237 94.7416 28.487C93.9754 28.1503 92.9364 27.744 91.6246 27.268C90.1502 26.7224 88.9602 26.1129 88.0547 25.4396C87.1492 24.7546 86.4875 23.9942 86.0695 23.1584C85.6632 22.3109 85.4601 21.2603 85.4601 20.0065C85.4601 18.0909 86.0754 16.5934 87.3059 15.5137C88.5365 14.434 90.3824 13.7665 92.8435 13.5111V11.1254H96.4482V13.4763C98.7584 13.604 101.086 14.1728 103.431 15.1828L101.359 20.1458C98.9326 19.0545 96.7442 18.5089 94.7939 18.5089C93.8651 18.5089 93.2092 18.625 92.8261 18.8572C92.4546 19.0777 92.2689 19.4086 92.2689 19.8497C92.2689 20.2328 92.4024 20.5521 92.6694 20.8075C92.948 21.0513 93.424 21.3299 94.0973 21.6434C94.7707 21.9452 95.7052 22.2993 96.901 22.7056C99.3273 23.5647 101.069 24.5457 102.125 25.6486C103.182 26.7398 103.71 28.1503 103.71 29.8801C103.71 31.8305 103.089 33.4151 101.846 34.6341C100.616 35.8531 98.8165 36.6077 96.4482 36.8979V40.2588H92.8435V37.0024Z" fill="#44E0B7"/>
<path d="M204.46 120.144V124.995C204.46 127.619 206.587 129.746 209.211 129.746H210.724L211.385 115.929C211.385 115.752 211.385 115.571 211.385 115.394H209.2C206.581 115.4 204.46 117.525 204.46 120.144H204.46Z" fill="#CCCCCC"/>
<path d="M204.46 120.145V124.995C204.46 127.619 206.587 129.746 209.211 129.746" stroke="black" stroke-width="0.283327"/>
<path d="M4.84755 129.133V122.269C4.84755 120.735 3.60442 119.492 2.07094 119.492H0.463286C0.231902 121.806 0.115285 124.135 0.113434 126.478V131.909H2.05706C2.79586 131.913 3.50568 131.622 4.0294 131.101C4.55312 130.58 4.84756 129.871 4.84755 129.133Z" fill="#CCCCCC"/>
<path d="M172.713 95.177L151.933 61.1191H93.5462V87.2331C93.5455 89.3397 94.3818 91.3603 95.8711 92.8501C97.3604 94.34 99.3807 95.177 101.487 95.177H172.713Z" fill="#F4F4F4"/>
<path d="M169.728 95.1773L166.487 89.8685C164.872 87.2229 162.434 85.1804 159.546 84.0542L156.825 82.9908C156.584 82.8951 156.315 82.9 156.078 83.0044C155.841 83.1088 155.656 83.304 155.564 83.5461C155.313 84.0788 155.505 84.7155 156.009 85.0205C156.883 85.6064 156.353 86.9475 155.936 87.7249C155.868 87.8533 155.736 87.9357 155.59 87.9414C155.445 87.9471 155.307 87.8753 155.228 87.7527L150.28 80.0504C150.186 79.9024 150.007 79.8312 149.836 79.8733C149.666 79.9153 149.541 80.0613 149.525 80.2364C149.517 80.3259 149.539 80.4156 149.586 80.4919L154.834 88.9216C154.923 89.0642 154.917 89.2468 154.817 89.3826C153.496 91.1892 152.379 93.1363 151.485 95.1884L169.728 95.1773Z" fill="#CCCCCC"/>
<path d="M150.453 81.8824L154.829 88.91C154.918 89.0525 154.912 89.2351 154.812 89.3709C153.491 91.1775 152.374 93.1246 151.48 95.1768H169.714L166.488 89.8679C164.873 87.2223 162.434 85.1798 159.546 84.0537L156.825 82.9902C156.585 82.8945 156.316 82.8994 156.079 83.0038C155.842 83.1082 155.656 83.3034 155.565 83.5456C155.313 84.0782 155.505 84.7149 156.009 85.0199C156.884 85.6058 156.353 86.9469 155.937 87.7243C155.868 87.8527 155.736 87.9351 155.591 87.9408C155.445 87.9465 155.307 87.8747 155.229 87.7521L150.281 80.0498" stroke="black" stroke-width="0.283327"/>
<path d="M109.545 85.9949C109.687 83.2183 109.49 81.258 109.215 79.9169C108.9 78.4554 107.606 77.4133 106.111 77.418H102.34C101.166 77.4136 100.086 78.062 99.5383 79.1006C97.7085 82.6352 96.3952 88.691 95.6649 92.6449C97.1682 94.2696 99.2824 95.1917 101.496 95.1883H110.303C109.653 92.1697 109.398 89.0793 109.545 85.9949Z" fill="#CCCCCC"/>
<path d="M86.1938 87.2331V61.1191H33.0773L16.2955 81.4522C12.8143 85.6692 9.8328 90.2747 7.41034 95.177H78.2471C80.3547 95.1785 82.3764 94.3421 83.8669 92.8521C85.3574 91.3621 86.1945 89.3407 86.1938 87.2331Z" fill="#F4F4F4"/>
<path d="M43.5173 77.4073H39.7495C38.5749 77.4017 37.4948 78.0504 36.9479 79.0899C34.6488 83.5325 33.1661 91.9429 32.633 95.1776H45.9607C46.471 92.1385 46.8076 89.0728 46.9686 85.9954C47.1103 83.2188 46.9131 81.2585 46.6382 79.9174C46.3268 78.4452 45.022 77.3959 43.5173 77.4073Z" fill="#CCCCCC"/>
<path fill-rule="evenodd" clip-rule="evenodd" d="M109.545 85.9949C109.686 83.2183 109.489 81.258 109.214 79.9169C108.9 78.4554 107.605 77.4133 106.11 77.418H102.34C101.165 77.4136 100.086 78.062 99.538 79.1006C97.7082 82.6352 96.3949 88.691 95.6646 92.6449C97.1679 94.2696 99.282 95.1917 101.495 95.1883H110.303C109.652 92.1697 109.397 89.0793 109.545 85.9949V85.9949Z" stroke="black" stroke-width="0.283327"/>
<path fill-rule="evenodd" clip-rule="evenodd" d="M43.5173 77.4063H39.7494C38.5748 77.4007 37.4947 78.0494 36.9478 79.089C34.6488 83.5315 33.1661 91.9419 32.633 95.1766H45.9607C46.471 92.1375 46.8075 89.0718 46.9686 85.9944C47.1102 83.2178 46.9131 81.2575 46.6382 79.9164C46.3267 78.4443 45.0219 77.3949 43.5173 77.4063V77.4063Z" stroke="black" stroke-width="0.283327"/>
<path fill-rule="evenodd" clip-rule="evenodd" d="M172.713 95.177L151.933 61.1191H93.5461V87.2331C93.5454 89.3397 94.3817 91.3603 95.8711 92.8501C97.3604 94.34 99.3806 95.177 101.487 95.177H172.713Z" stroke="black" stroke-width="0.283327"/>
<path d="M0.116364 143.129H210.092V147.994C210.092 149.374 208.973 150.492 207.593 150.492H3.78981C1.76716 150.492 0.12747 148.853 0.12747 146.83V143.129L0.116364 143.129Z" fill="#F4F4F4"/>
<path d="M55.9536 145.112H47.0685C46.9549 136.616 40.0348 129.788 31.5375 129.788C23.0403 129.788 16.1202 136.616 16.0066 145.112H7.12146C7.26418 131.729 18.1537 120.955 31.5375 120.955C44.9214 120.955 55.8109 131.729 55.9536 145.112Z" fill="#F4F4F4"/>
<circle cx="31.5389" cy="145.112" r="19.9721" fill="black" stroke="black" stroke-width="0.283327"/>
<circle cx="31.5388" cy="145.111" r="9.98745" fill="#CCCCCC"/>
<circle cx="31.5389" cy="145.112" r="6.98872" fill="#E9E9E9"/>
<path d="M203.322 145.112H194.437C194.323 136.616 187.403 129.788 178.906 129.788C170.409 129.788 163.489 136.616 163.375 145.112H154.49C154.633 131.729 165.522 120.955 178.906 120.955C192.29 120.955 203.179 131.729 203.322 145.112Z" fill="#F4F4F4"/>
<circle cx="178.907" cy="145.112" r="19.9721" fill="black" stroke="black" stroke-width="0.283327"/>
<circle cx="178.907" cy="145.111" r="9.98745" fill="#CCCCCC"/>
<circle cx="178.907" cy="145.112" r="6.98872" fill="#E9E9E9"/>
<rect x="46.8077" y="103.271" width="6.76659" height="2.17131" rx="0.810316" fill="white"/>
<path d="M52.7799 105.443H47.6015" stroke="black" stroke-width="0.283327"/>
<rect x="100.904" y="103.271" width="6.76659" height="2.17131" rx="0.810316" fill="white"/>
<path d="M106.877 105.443H101.695" stroke="black" stroke-width="0.283327"/>
<path d="M84.0443 62.6384C84.0598 62.634 84.0705 62.6198 84.0705 62.6037C84.0705 62.5876 84.0598 62.5734 84.0443 62.569C84.0288 62.5734 84.0181 62.5876 84.0181 62.6037C84.0181 62.6198 84.0288 62.634 84.0443 62.6384Z" fill="black"/>
<path d="M84.0443 62.6384C84.0598 62.634 84.0705 62.6198 84.0705 62.6037C84.0705 62.5876 84.0598 62.5734 84.0443 62.569C84.0288 62.5734 84.0181 62.5876 84.0181 62.6037C84.0181 62.6198 84.0288 62.634 84.0443 62.6384Z" fill="black"/>
<path d="M150.722 72.9284C150.844 72.3925 151.378 72.0574 151.914 72.1799C152.45 72.3024 152.785 72.8362 152.662 73.3722L149.729 86.2021C149.606 86.738 149.072 87.0731 148.536 86.9506C148 86.8281 147.665 86.2943 147.788 85.7583L150.722 72.9284Z" fill="black"/>
<path d="M105.458 69.5439H106.624C106.824 69.5439 107.015 69.6232 107.156 69.7643C107.297 69.9054 107.377 70.0968 107.377 70.2964V74.739C107.377 74.9385 107.297 75.1299 107.156 75.271C107.015 75.4122 106.824 75.4914 106.624 75.4914H103.348C102.288 75.4914 101.429 74.6324 101.429 73.5728C101.435 71.3503 103.235 69.55 105.458 69.5439Z" fill="#CCCCCC"/>
<path fill-rule="evenodd" clip-rule="evenodd" d="M105.458 69.5439H106.624C106.824 69.5439 107.015 69.6232 107.156 69.7643C107.297 69.9054 107.377 70.0968 107.377 70.2964V74.739C107.377 74.9385 107.297 75.1299 107.156 75.271C107.015 75.4122 106.824 75.4914 106.624 75.4914H103.348C102.288 75.4914 101.429 74.6324 101.429 73.5728C101.435 71.3503 103.235 69.55 105.458 69.5439V69.5439Z" stroke="black" stroke-width="0.283327"/>
<path d="M104.639 77.1154V75.5771" stroke="black" stroke-width="0.283327"/>
<path d="M42.8702 69.5439H44.0363C44.4519 69.5439 44.7888 69.8808 44.7888 70.2964V74.739C44.7888 75.1545 44.4519 75.4914 44.0363 75.4914H40.7627C39.7031 75.4914 38.8441 74.6324 38.8441 73.5728C38.8502 71.3513 40.6487 69.5516 42.8702 69.5439V69.5439Z" fill="#CCCCCC"/>
<path fill-rule="evenodd" clip-rule="evenodd" d="M42.8702 69.5439H44.0363C44.4519 69.5439 44.7888 69.8808 44.7888 70.2964V74.739C44.7888 75.1545 44.4519 75.4914 44.0363 75.4914H40.7627C39.7031 75.4914 38.8441 74.6324 38.8441 73.5728C38.8502 71.3513 40.6487 69.5516 42.8702 69.5439V69.5439Z" stroke="black" stroke-width="0.283327"/>
<path d="M42.04 77.1154V75.5771" stroke="black" stroke-width="0.283327"/>
<path d="M90.1198 102.374V150.493" stroke="black" stroke-width="0.283327"/>
<path d="M82.5953 122.354H139.316C139.331 122.347 139.342 122.321 139.342 122.292C139.342 122.263 139.331 122.237 139.316 122.229H82.5953C82.5798 122.237 82.5691 122.263 82.5691 122.292C82.5691 122.321 82.5798 122.347 82.5953 122.354Z" fill="black"/>
<path d="M74.1849 133.211H109.448C109.463 133.219 109.478 133.209 109.487 133.186C109.496 133.164 109.496 133.133 109.487 133.111C109.478 133.088 109.463 133.078 109.448 133.086H74.1849C74.1702 133.078 74.1544 133.088 74.1455 133.111C74.1367 133.133 74.1367 133.164 74.1455 133.186C74.1544 133.209 74.1702 133.219 74.1849 133.211Z" fill="black"/>
</svg>
