<svg width="190" height="148" viewBox="0 0 190 148" fill="none" xmlns="http://www.w3.org/2000/svg">
<path fill-rule="evenodd" clip-rule="evenodd" d="M46.4142 103.866H43.9725H43.9741H39.0858C36.399 103.866 34.2007 101.668 34.2007 98.9792C34.2007 96.2941 36.3974 94.0941 39.0858 94.0925H40.309C42.9942 94.0925 45.1926 91.8941 45.1926 89.209C45.1926 86.5206 42.9942 84.3223 40.309 84.3223H20.7638C18.077 84.3223 15.8787 86.5206 15.8787 89.209C15.8787 91.8941 18.077 94.0925 20.7638 94.0925H21.9855C24.6738 94.0941 26.8722 96.2941 26.8722 98.9792C26.8722 101.668 24.6738 103.866 21.9855 103.866H4.88515C2.19841 103.866 3.05176e-05 106.064 3.05176e-05 108.753C3.05176e-05 111.438 2.19841 113.638 4.88515 113.638H46.4142C49.1026 113.638 51.301 111.438 51.301 108.753C51.301 106.064 49.1026 103.866 46.4142 103.866Z" fill="#F2EFF8"/>
<path fill-rule="evenodd" clip-rule="evenodd" d="M182.672 51.8366H147.249C144.561 51.8366 142.363 49.6367 142.363 46.9499C142.363 44.2632 144.561 42.0632 147.248 42.0632H154.578C157.264 42.0632 159.463 39.8648 159.463 37.1781C159.463 34.4914 157.264 32.293 154.578 32.293H114.269C111.582 32.293 109.384 34.4914 109.384 37.1781C109.384 39.8648 111.582 42.0632 114.269 42.0632H120.377C123.062 42.0632 125.262 44.2632 125.262 46.9499C125.262 49.6383 123.062 51.8366 120.377 51.8366H116.712C112.68 51.8366 109.384 55.135 109.384 59.1651C109.384 63.1968 112.68 66.4936 116.712 66.4936H182.672C186.703 66.4936 190 63.1968 190 59.1651C190 55.135 186.703 51.8366 182.672 51.8366Z" fill="#F2EFF8"/>
<path fill-rule="evenodd" clip-rule="evenodd" d="M152.129 104.075C152.129 115.911 142.535 125.505 130.699 125.505C118.863 125.505 109.268 115.911 109.268 104.075C109.268 92.2389 118.863 82.6445 130.699 82.6445C142.535 82.6445 152.129 92.2389 152.129 104.075Z" fill="#F7F0FC" stroke="#320170" stroke-width="3.4" stroke-linecap="round"/>
<path fill-rule="evenodd" clip-rule="evenodd" d="M142 104C142 110.075 136.851 115 130.5 115C124.149 115 119 110.075 119 104C119 97.9247 124.149 93 130.5 93C136.851 93 142 97.9247 142 104Z" fill="white" stroke="#320170" stroke-width="3.4" stroke-linecap="round"/>
<path fill-rule="evenodd" clip-rule="evenodd" d="M65.1291 48.0749C65.1291 59.9109 55.5347 69.5053 43.6987 69.5053C31.8627 69.5053 22.2683 59.9109 22.2683 48.0749C22.2683 36.2389 31.8627 26.6445 43.6987 26.6445C55.5347 26.6445 65.1291 36.2389 65.1291 48.0749Z" fill="#F7F0FC" stroke="#320170" stroke-width="3.4" stroke-linecap="round"/>
<path fill-rule="evenodd" clip-rule="evenodd" d="M55 48C55 54.0753 49.8514 59 43.5 59C37.1486 59 32 54.0753 32 48C32 41.9247 37.1486 37 43.5 37C49.8514 37 55 41.9247 55 48Z" fill="white" stroke="#320170" stroke-width="3.4" stroke-linecap="round"/>
<path d="M109.124 26.9916C109.694 26.3193 110.53 25.9316 111.412 25.9316L142.836 25.9316C145.373 25.9316 146.765 28.8839 145.151 30.8406L67.1101 125.45C66.5402 126.141 65.6914 126.541 64.7958 126.541L31.2039 126.541C28.6485 126.541 27.2631 123.55 28.9156 121.601L109.124 26.9916Z" fill="#C4B5D9"/>
<path d="M67.3749 76.2362L109.124 26.9916C109.694 26.3193 110.53 25.9316 111.412 25.9316L140.836 25.9316C143.373 25.9316 144.765 28.8839 143.151 30.8406L65.1101 125.45C64.5402 126.141 63.6914 126.541 62.7958 126.541L31.2039 126.541C28.6485 126.541 27.2631 123.55 28.9156 121.601L46.0512 101.388M62.044 82.5243L56.713 88.8123L51.3821 95.1004" stroke="#320170" stroke-width="3.6" stroke-linecap="round" stroke-linejoin="round"/>
<path fill-rule="evenodd" clip-rule="evenodd" d="M149 36.5C149 45.6129 141.613 53 132.5 53C123.387 53 116 45.6129 116 36.5C116 27.3871 123.387 20 132.5 20C141.613 20 149 27.3871 149 36.5Z" fill="#44E0B7" stroke="white" stroke-width="2.673" stroke-linecap="round"/>
<path d="M128.1 37.8296L132.292 42.3066L136.844 37.7549" stroke="white" stroke-width="3.30462" stroke-linecap="round" stroke-linejoin="round"/>
<path d="M132.361 31L132.361 40.9139" stroke="white" stroke-width="3.30462" stroke-linecap="round"/>
<path d="M142 15.595L145.356 19.1791L149 15.5352" stroke="#A3F0DC" stroke-width="2.64554" stroke-linecap="round" stroke-linejoin="round"/>
<path d="M145.411 10.1279L145.411 18.0645" stroke="#A3F0DC" stroke-width="2.64554" stroke-linecap="round"/>
<path d="M128 5.10546L130.52 7.79666L133.256 5.06055" stroke="#D9F1EC" stroke-width="1.98645" stroke-linecap="round" stroke-linejoin="round"/>
<path d="M130.561 1L130.561 6.95935" stroke="#D9F1EC" stroke-width="1.98645" stroke-linecap="round"/>
</svg>
