<svg width="454" height="834" viewBox="0 0 454 834" fill="none" xmlns="http://www.w3.org/2000/svg">
<g opacity="0.5">
<g opacity="0.12">
<path d="M207.407 188.215C205.278 190.281 205.413 193.523 207.708 195.449C210.004 197.375 213.599 197.262 215.698 195.197C217.827 193.132 217.693 189.917 215.398 187.991C213.101 186.038 209.536 186.15 207.407 188.215Z" fill="#6B29D1"/>
<path d="M180.313 165.562C178.184 167.627 178.319 170.87 180.614 172.796C182.91 174.722 186.505 174.608 188.634 172.543C190.764 170.478 190.629 167.235 188.333 165.309C186.038 163.383 182.442 163.497 180.313 165.562Z" fill="#6B29D1"/>
<path d="M153.218 142.881C151.088 144.946 151.224 148.189 153.518 150.087C155.814 152.013 159.409 151.899 161.507 149.835C163.637 147.77 163.502 144.527 161.207 142.629C158.942 140.702 155.347 140.816 153.218 142.881Z" fill="#6B29D1"/>
<path d="M126.154 120.226C124.025 122.292 124.16 125.534 126.454 127.432C128.749 129.33 132.345 129.245 134.444 127.18C136.573 125.115 136.438 121.873 134.143 119.975C131.849 118.077 128.283 118.161 126.154 120.226Z" fill="#6B29D1"/>
<path d="M182.206 212.602C180.077 214.667 180.212 217.91 182.506 219.808C184.802 221.733 188.397 221.62 190.496 219.556C192.625 217.49 192.491 214.275 190.195 212.35C187.93 210.423 184.335 210.536 182.206 212.602Z" fill="#6B29D1"/>
<path d="M155.141 189.919C153.012 191.984 153.147 195.227 155.441 197.125C157.737 199.051 161.302 198.938 163.431 196.873C165.56 194.808 165.426 191.593 163.131 189.667C160.835 187.741 157.24 187.855 155.141 189.919Z" fill="#6B29D1"/>
<path d="M128.047 167.265C125.918 169.33 126.053 172.573 128.348 174.499C130.644 176.425 134.209 176.312 136.338 174.247C138.467 172.182 138.332 168.939 136.036 167.013C133.741 165.087 130.176 165.2 128.047 167.265Z" fill="#6B29D1"/>
<path d="M100.952 144.584C98.8223 146.65 98.9574 149.892 101.253 151.818C103.549 153.744 107.144 153.63 109.242 151.566C111.341 149.502 111.237 146.258 108.941 144.332C106.676 142.406 103.081 142.519 100.952 144.584Z" fill="#6B29D1"/>
<path d="M73.8881 121.93C71.7588 123.995 71.8939 127.238 74.1883 129.136C76.4839 131.061 80.0484 130.949 82.1777 128.884C84.307 126.819 84.1719 123.576 81.8775 121.678C79.5819 119.752 76.0174 119.864 73.8881 121.93Z" fill="#6B29D1"/>
<path d="M157.034 236.959C154.905 239.024 155.04 242.267 157.335 244.192C159.631 246.118 163.226 246.005 165.355 243.939C167.485 241.874 167.35 238.631 165.054 236.706C162.728 234.781 159.132 234.894 157.034 236.959Z" fill="#6B29D1"/>
<path d="M129.94 214.305C127.811 216.37 127.946 219.613 130.24 221.511C132.536 223.436 136.131 223.323 138.23 221.259C140.359 219.194 140.225 215.979 137.929 214.053C135.664 212.126 132.069 212.239 129.94 214.305Z" fill="#6B29D1"/>
<path d="M102.845 191.624C100.715 193.689 100.85 196.932 103.145 198.83C105.44 200.756 109.036 200.642 111.165 198.577C113.294 196.512 113.16 193.297 110.865 191.371C108.569 189.445 104.974 189.559 102.845 191.624Z" fill="#6B29D1"/>
<path d="M75.7812 168.969C73.6519 171.035 73.787 174.277 76.0826 176.203C78.3781 178.129 81.9426 178.016 84.0719 175.951C86.2012 173.886 86.0673 170.671 83.7717 168.745C81.475 166.792 77.9105 166.904 75.7812 168.969Z" fill="#6B29D1"/>
<path d="M48.6857 146.288C46.5564 148.353 46.6915 151.596 48.9871 153.521C51.2827 155.447 54.8471 155.335 56.9764 153.27C59.1057 151.204 58.9707 147.962 56.6751 146.036C54.4102 144.109 50.815 144.222 48.6857 146.288Z" fill="#6B29D1"/>
<path d="M131.833 261.344C129.703 263.409 129.838 266.652 132.134 268.578C134.43 270.504 137.994 270.392 140.123 268.326C142.253 266.261 142.119 263.046 139.823 261.12C137.557 259.165 133.962 259.278 131.833 261.344Z" fill="#6B29D1"/>
<path d="M104.737 238.663C102.608 240.728 102.743 243.971 105.039 245.896C107.334 247.822 110.899 247.71 113.028 245.645C115.157 243.579 115.022 240.337 112.727 238.411C110.463 236.512 106.868 236.625 104.737 238.663Z" fill="#6B29D1"/>
<path d="M77.6741 216.009C75.5447 218.074 75.6798 221.317 77.9743 223.215C80.2699 225.141 83.8651 225.027 85.9944 222.962C88.1237 220.897 87.9886 217.654 85.6942 215.756C83.3679 213.831 79.8034 213.944 77.6741 216.009Z" fill="#6B29D1"/>
<path d="M50.5786 193.327C48.4493 195.392 48.5844 198.635 50.8788 200.533C53.1744 202.459 56.7389 202.347 58.8682 200.281C60.9975 198.216 60.8624 194.973 58.568 193.075C56.3032 191.149 52.7079 191.262 50.5786 193.327Z" fill="#6B29D1"/>
<path d="M23.515 170.673C21.3857 172.738 21.5208 175.981 23.8152 177.879C26.1108 179.805 29.706 179.691 31.8046 177.627C33.9339 175.562 33.7999 172.347 31.5044 170.421C29.2088 168.495 25.6443 168.608 23.515 170.673Z" fill="#6B29D1"/>
<path d="M106.662 285.729C104.533 287.794 104.668 291.037 106.962 292.935C109.258 294.861 112.853 294.748 114.952 292.684C117.081 290.618 116.946 287.375 114.651 285.477C112.356 283.551 108.76 283.665 106.662 285.729Z" fill="#6B29D1"/>
<path d="M79.5669 263.048C77.4376 265.113 77.5727 268.356 79.8671 270.254C82.1627 272.18 85.7579 272.066 87.8565 270.002C89.9858 267.937 89.8519 264.722 87.5563 262.796C85.2607 260.87 81.6962 260.983 79.5669 263.048Z" fill="#6B29D1"/>
<path d="M52.4715 240.366C50.3421 242.432 50.4772 245.674 52.7717 247.572C55.0673 249.498 58.6625 249.385 60.7611 247.32C62.8904 245.255 62.7565 242.04 60.4609 240.114C58.1971 238.216 54.6019 238.329 52.4715 240.366Z" fill="#6B29D1"/>
<path d="M25.4081 217.712C23.2788 219.777 23.4139 223.02 25.7095 224.945C28.0051 226.871 31.6003 226.758 33.6989 224.693C35.8282 222.628 35.6931 219.386 33.3975 217.46C31.1019 215.534 27.5374 215.647 25.4081 217.712Z" fill="#6B29D1"/>
<path d="M-1.68734 195.031C-3.81665 197.096 -3.68156 200.339 -1.38598 202.265C0.909606 204.19 4.5048 204.077 6.60338 202.013C8.73269 199.947 8.59759 196.705 6.30201 194.779C4.03716 192.852 0.441967 192.966 -1.68734 195.031Z" fill="#6B29D1"/>
<path d="M81.4593 310.087C79.33 312.152 79.4651 315.395 81.7607 317.321C84.0563 319.247 87.6514 319.133 89.75 317.069C91.8486 315.005 91.7442 311.761 89.4487 309.835C87.1838 307.909 83.5886 308.022 81.4593 310.087Z" fill="#6B29D1"/>
<path d="M54.3656 287.434C52.2363 289.499 52.3714 292.742 54.6669 294.668C56.9625 296.594 60.5577 296.48 62.687 294.415C64.8163 292.35 64.6812 289.107 62.3857 287.181C60.0901 285.255 56.4949 285.368 54.3656 287.434Z" fill="#6B29D1"/>
<path d="M27.301 264.752C25.1717 266.817 25.3068 270.06 27.6012 271.958C29.8968 273.884 33.4613 273.771 35.5906 271.706C37.7199 269.641 37.586 266.425 35.2904 264.5C32.9948 262.574 29.4303 262.686 27.301 264.752Z" fill="#6B29D1"/>
<path d="M0.206567 242.098C-1.92275 244.163 -1.78765 247.406 0.506784 249.304C2.80237 251.229 6.39758 251.116 8.49616 249.052C10.6255 246.987 10.4915 243.772 8.19595 241.846C5.93109 239.919 2.33588 240.032 0.206567 242.098Z" fill="#6B29D1"/>
<path d="M56.258 334.473C54.1287 336.539 54.2638 339.781 56.5582 341.68C58.8538 343.605 62.449 343.492 64.5476 341.428C66.6769 339.362 66.543 336.147 64.2474 334.221C61.9825 332.295 58.3873 332.408 56.258 334.473Z" fill="#6B29D1"/>
<path d="M29.1937 311.791C27.0643 313.857 27.1994 317.099 29.495 319.025C31.7906 320.951 35.3858 320.838 37.4844 318.773C39.6137 316.708 39.4798 313.493 37.1842 311.567C34.8874 309.613 31.323 309.726 29.1937 311.791Z" fill="#6B29D1"/>
<path d="M2.09917 289.137C-0.0301411 291.203 0.104957 294.445 2.40054 296.371C4.69612 298.297 8.29131 298.183 10.3899 296.119C12.5192 294.054 12.3841 290.811 10.0885 288.885C7.82367 286.959 4.22847 287.072 2.09917 289.137Z" fill="#6B29D1"/>
<path d="M31.0865 358.83C28.9572 360.895 29.0923 364.138 31.3867 366.036C33.6823 367.962 37.2776 367.849 39.4069 365.783C41.5362 363.718 41.4011 360.475 39.1067 358.577C36.7815 356.68 33.217 356.792 31.0865 358.83Z" fill="#6B29D1"/>
<path d="M3.99212 336.177C1.86281 338.242 1.99791 341.485 4.29234 343.383C6.58793 345.309 10.1831 345.195 12.2817 343.131C14.411 341.066 14.2771 337.851 11.9815 335.925C9.71664 333.998 6.12144 334.112 3.99212 336.177Z" fill="#6B29D1"/>
<path d="M5.88523 383.216C3.75592 385.282 3.89101 388.524 6.1866 390.45C8.48218 392.376 12.0466 392.264 14.176 390.198C16.3053 388.133 16.1713 384.918 13.8757 382.992C11.6097 381.038 8.01454 381.151 5.88523 383.216Z" fill="#6B29D1"/>
</g>
<g opacity="0.12">
<path d="M232.43 164.002C230.301 166.067 230.436 169.31 232.731 171.235C235.027 173.161 238.622 173.048 240.721 170.983C242.85 168.918 242.716 165.703 240.421 163.778C238.124 161.824 234.559 161.937 232.43 164.002Z" fill="#6B29D1"/>
<path d="M205.336 141.349C203.207 143.414 203.342 146.656 205.637 148.582C207.933 150.508 211.528 150.394 213.658 148.329C215.787 146.264 215.652 143.021 213.356 141.096C211.061 139.17 207.465 139.283 205.336 141.349Z" fill="#6B29D1"/>
<path d="M178.241 118.667C176.111 120.732 176.247 123.975 178.541 125.873C180.837 127.799 184.432 127.685 186.53 125.621C188.66 123.556 188.525 120.313 186.23 118.415C183.965 116.488 180.37 116.602 178.241 118.667Z" fill="#6B29D1"/>
<path d="M151.177 96.0122C149.048 98.0775 149.183 101.32 151.477 103.218C153.772 105.116 157.368 105.031 159.467 102.966C161.596 100.901 161.461 97.6583 159.166 95.7602C156.872 93.8622 153.306 93.9468 151.177 96.0122Z" fill="#6B29D1"/>
<path d="M207.229 188.387C205.1 190.453 205.235 193.696 207.529 195.594C209.825 197.52 213.42 197.406 215.519 195.342C217.648 193.276 217.514 190.061 215.218 188.135C212.954 186.209 209.358 186.322 207.229 188.387Z" fill="#6B29D1"/>
<path d="M180.164 165.705C178.035 167.77 178.17 171.013 180.464 172.911C182.76 174.837 186.325 174.724 188.454 172.659C190.583 170.594 190.449 167.379 188.154 165.453C185.858 163.527 182.263 163.641 180.164 165.705Z" fill="#6B29D1"/>
<path d="M153.07 143.052C150.941 145.117 151.076 148.359 153.372 150.285C155.667 152.211 159.232 152.098 161.361 150.033C163.49 147.968 163.355 144.725 161.06 142.8C158.764 140.874 155.199 140.986 153.07 143.052Z" fill="#6B29D1"/>
<path d="M125.975 120.37C123.845 122.436 123.98 125.678 126.276 127.604C128.572 129.53 132.167 129.417 134.265 127.352C136.364 125.288 136.26 122.044 133.964 120.118C131.699 118.192 128.104 118.305 125.975 120.37Z" fill="#6B29D1"/>
<path d="M98.9111 97.7158C96.7818 99.7811 96.9169 103.024 99.2113 104.922C101.507 106.848 105.071 106.735 107.201 104.67C109.33 102.605 109.195 99.362 106.9 97.4639C104.605 95.5382 101.04 95.6506 98.9111 97.7158Z" fill="#6B29D1"/>
<path d="M182.057 212.745C179.928 214.81 180.063 218.053 182.358 219.978C184.654 221.904 188.249 221.791 190.378 219.726C192.508 217.66 192.373 214.418 190.077 212.492C187.751 210.567 184.155 210.68 182.057 212.745Z" fill="#6B29D1"/>
<path d="M154.963 190.091C152.834 192.156 152.969 195.399 155.263 197.297C157.559 199.223 161.154 199.109 163.253 197.045C165.382 194.98 165.248 191.765 162.952 189.839C160.688 187.912 157.092 188.026 154.963 190.091Z" fill="#6B29D1"/>
<path d="M127.868 167.41C125.738 169.475 125.873 172.718 128.168 174.616C130.463 176.542 134.059 176.429 136.188 174.363C138.317 172.298 138.183 169.083 135.888 167.157C133.592 165.232 129.997 165.345 127.868 167.41Z" fill="#6B29D1"/>
<path d="M100.804 144.756C98.6749 146.821 98.81 150.064 101.106 151.989C103.401 153.915 106.966 153.803 109.095 151.737C111.224 149.672 111.09 146.457 108.795 144.532C106.498 142.578 102.934 142.691 100.804 144.756Z" fill="#6B29D1"/>
<path d="M73.7088 122.074C71.5795 124.139 71.7146 127.382 74.0101 129.308C76.3057 131.233 79.8702 131.121 81.9995 129.056C84.1288 126.991 83.9937 123.748 81.6981 121.822C79.4333 119.896 75.8381 120.009 73.7088 122.074Z" fill="#6B29D1"/>
<path d="M156.856 237.13C154.726 239.196 154.861 242.438 157.157 244.364C159.453 246.29 163.017 246.178 165.146 244.112C167.276 242.047 167.142 238.832 164.846 236.906C162.58 234.952 158.985 235.065 156.856 237.13Z" fill="#6B29D1"/>
<path d="M129.76 214.449C127.631 216.514 127.766 219.757 130.062 221.683C132.357 223.608 135.922 223.496 138.051 221.431C140.18 219.365 140.045 216.123 137.75 214.197C135.486 212.298 131.891 212.411 129.76 214.449Z" fill="#6B29D1"/>
<path d="M102.697 191.795C100.568 193.86 100.703 197.103 102.997 199.001C105.293 200.927 108.888 200.813 111.017 198.748C113.147 196.683 113.012 193.44 110.717 191.542C108.391 189.617 104.826 189.73 102.697 191.795Z" fill="#6B29D1"/>
<path d="M75.6017 169.113C73.4724 171.179 73.6075 174.421 75.9019 176.319C78.1975 178.245 81.762 178.133 83.8913 176.067C86.0206 174.002 85.8855 170.759 83.5911 168.861C81.3262 166.935 77.731 167.048 75.6017 169.113Z" fill="#6B29D1"/>
<path d="M48.538 146.459C46.4087 148.525 46.5438 151.767 48.8382 153.665C51.1338 155.591 54.729 155.477 56.8276 153.413C58.9569 151.348 58.823 148.133 56.5274 146.208C54.2318 144.282 50.6673 144.394 48.538 146.459Z" fill="#6B29D1"/>
<path d="M131.685 261.516C129.556 263.581 129.691 266.824 131.985 268.722C134.281 270.647 137.876 270.534 139.975 268.47C142.104 266.404 141.969 263.162 139.674 261.264C137.379 259.338 133.784 259.451 131.685 261.516Z" fill="#6B29D1"/>
<path d="M104.59 238.834C102.461 240.899 102.596 244.142 104.89 246.04C107.186 247.966 110.781 247.852 112.88 245.788C115.009 243.723 114.875 240.508 112.579 238.582C110.284 236.656 106.719 236.769 104.59 238.834Z" fill="#6B29D1"/>
<path d="M77.4945 216.153C75.3652 218.218 75.5003 221.461 77.7947 223.359C80.0903 225.285 83.6855 225.172 85.7841 223.107C87.9134 221.042 87.7795 217.827 85.4839 215.901C83.2202 214.002 79.625 214.116 77.4945 216.153Z" fill="#6B29D1"/>
<path d="M50.4312 193.499C48.3018 195.564 48.4369 198.807 50.7325 200.732C53.0281 202.658 56.6233 202.545 58.7219 200.48C60.8512 198.415 60.7161 195.172 58.4205 193.247C56.1249 191.321 52.5605 191.433 50.4312 193.499Z" fill="#6B29D1"/>
<path d="M23.3357 170.817C21.2064 172.882 21.3415 176.125 23.637 178.051C25.9326 179.977 29.5278 179.863 31.6264 177.799C33.7557 175.734 33.6206 172.491 31.325 170.565C29.0602 168.638 25.465 168.752 23.3357 170.817Z" fill="#6B29D1"/>
<path d="M106.482 285.873C104.353 287.939 104.488 291.181 106.784 293.107C109.079 295.033 112.675 294.919 114.773 292.855C116.872 290.791 116.767 287.547 114.472 285.621C112.207 283.695 108.612 283.808 106.482 285.873Z" fill="#6B29D1"/>
<path d="M79.3887 263.22C77.2594 265.286 77.3945 268.528 79.6901 270.454C81.9857 272.38 85.5809 272.266 87.7102 270.201C89.8395 268.136 89.7044 264.893 87.4088 262.967C85.1132 261.042 81.518 261.155 79.3887 263.22Z" fill="#6B29D1"/>
<path d="M52.3241 240.538C50.1948 242.603 50.3299 245.846 52.6244 247.744C54.9199 249.67 58.4844 249.557 60.6137 247.492C62.743 245.427 62.6091 242.212 60.3135 240.286C58.0179 238.36 54.4535 238.473 52.3241 240.538Z" fill="#6B29D1"/>
<path d="M25.2296 217.884C23.1003 219.949 23.2354 223.192 25.5299 225.09C27.8254 227.016 31.4207 226.902 33.5192 224.838C35.6485 222.773 35.5146 219.558 33.219 217.632C30.9542 215.705 27.359 215.819 25.2296 217.884Z" fill="#6B29D1"/>
<path d="M-1.83489 195.202C-3.9642 197.267 -3.82911 200.51 -1.53352 202.435C0.762069 204.361 4.35731 204.248 6.48662 202.183C8.61594 200.117 8.482 196.902 6.18641 194.977C3.85893 193.024 0.263697 193.137 -1.83489 195.202Z" fill="#6B29D1"/>
<path d="M81.2811 310.259C79.1518 312.325 79.2869 315.568 81.5813 317.466C83.8769 319.392 87.4721 319.278 89.5707 317.214C91.7 315.148 91.5661 311.933 89.2705 310.007C87.0056 308.081 83.4104 308.194 81.2811 310.259Z" fill="#6B29D1"/>
<path d="M54.2167 287.577C52.0874 289.642 52.2225 292.885 54.5181 294.811C56.8137 296.736 60.4089 296.623 62.5074 294.559C64.6367 292.493 64.5028 289.278 62.2072 287.352C59.9105 285.399 56.346 285.511 54.2167 287.577Z" fill="#6B29D1"/>
<path d="M27.1222 264.923C24.9929 266.989 25.128 270.231 27.4236 272.157C29.7192 274.083 33.3144 273.97 35.4129 271.905C37.5422 269.84 37.4071 266.597 35.1116 264.671C32.8467 262.745 29.2515 262.858 27.1222 264.923Z" fill="#6B29D1"/>
<path d="M0.0580107 242.241C-2.07131 244.306 -1.93621 247.549 0.358229 249.447C2.65382 251.373 6.24907 251.26 8.37839 249.194C10.5077 247.129 10.3726 243.886 8.07817 241.988C5.75185 240.064 2.18733 240.176 0.0580107 242.241Z" fill="#6B29D1"/>
<path d="M56.1096 334.616C53.9803 336.681 54.1154 339.924 56.4098 341.822C58.7054 343.748 62.3007 343.635 64.43 341.569C66.5593 339.504 66.4242 336.261 64.1298 334.363C61.8046 332.466 58.2401 332.578 56.1096 334.616Z" fill="#6B29D1"/>
<path d="M29.0152 311.963C26.8858 314.028 27.0209 317.271 29.3154 319.169C31.611 321.095 35.2062 320.981 37.3048 318.917C39.4341 316.852 39.3001 313.637 37.0045 311.711C34.7397 309.784 31.1445 309.898 29.0152 311.963Z" fill="#6B29D1"/>
<path d="M1.95075 289.28C-0.178574 291.346 -0.0434757 294.588 2.25096 296.486C4.54656 298.412 8.1418 298.299 10.2711 296.233C12.4004 294.168 12.2665 290.953 9.97091 289.027C7.64458 287.103 4.08007 287.215 1.95075 289.28Z" fill="#6B29D1"/>
<path d="M30.9083 359.002C28.779 361.068 28.9141 364.311 31.2097 366.236C33.5052 368.162 37.0697 368.05 39.199 365.984C41.3283 363.919 41.1944 360.704 38.8988 358.778C36.6328 356.824 33.0376 356.937 30.9083 359.002Z" fill="#6B29D1"/>
<path d="M3.84356 336.32C1.71425 338.385 1.84935 341.628 4.14493 343.554C6.44052 345.479 10.0358 345.366 12.1344 343.302C14.2637 341.237 14.1286 337.994 11.833 336.068C9.53855 334.17 5.97403 334.282 3.84356 336.32Z" fill="#6B29D1"/>
</g>
<g opacity="0.12">
<path d="M25.4007 35.8712C23.2714 37.9365 19.6762 38.0499 17.3806 36.1241C15.085 34.1983 14.9499 30.9556 17.0803 28.918C19.2097 26.8527 22.7741 26.7403 25.0697 28.6661C27.396 30.5909 27.53 33.8059 25.4007 35.8712Z" fill="#6B29D1"/>
<path d="M52.4656 58.5532C50.3363 60.6185 46.7411 60.7319 44.4455 58.8061C42.15 56.8803 42.0148 53.6376 44.1442 51.5723C46.2735 49.507 49.8687 49.3936 52.1643 51.3194C54.4599 53.2452 54.595 56.4879 52.4656 58.5532Z" fill="#6B29D1"/>
<path d="M79.5608 81.2344C77.4315 83.2996 73.8363 83.413 71.5715 81.4863C69.2759 79.5605 69.1408 76.3178 71.2713 74.2803C73.4006 72.215 76.9957 72.1016 79.2606 74.0284C81.555 75.9264 81.6901 79.1691 79.5608 81.2344Z" fill="#6B29D1"/>
<path d="M106.624 103.889C104.495 105.955 100.9 106.068 98.6348 104.141C96.37 102.214 96.2042 98.9725 98.3346 96.9349C100.464 94.8696 104.059 94.7563 106.324 96.683C108.589 98.6098 108.753 101.824 106.624 103.889Z" fill="#6B29D1"/>
<path d="M0.199573 60.2568C-1.92974 62.3221 -5.52499 62.4355 -7.78985 60.5087C-10.0854 58.583 -10.2205 55.3403 -8.09008 53.3027C-5.96077 51.2374 -2.39625 51.1251 -0.100655 53.0508C2.19378 54.9489 2.32888 58.1915 0.199573 60.2568Z" fill="#6B29D1"/>
<path d="M27.294 82.9102C25.1647 84.9754 21.5695 85.0888 19.3046 83.1621C17.009 81.2363 16.875 78.0213 19.0044 75.956C21.1337 73.8908 24.6982 73.7784 26.9938 75.7041C29.2894 77.6299 29.4245 80.8726 27.294 82.9102Z" fill="#6B29D1"/>
<path d="M54.3582 105.592C52.2289 107.658 48.6337 107.771 46.3381 105.845C44.0425 103.919 43.9086 100.704 46.0379 98.6387C48.1672 96.5734 51.7624 96.46 54.058 98.3858C56.3536 100.312 56.4875 103.527 54.3582 105.592Z" fill="#6B29D1"/>
<path d="M81.4536 128.274C79.3243 130.339 75.7291 130.453 73.4335 128.527C71.1379 126.601 71.0028 123.358 73.1332 121.321C75.2637 119.283 78.8578 119.142 81.1534 121.068C83.4478 122.966 83.5829 126.209 81.4536 128.274Z" fill="#6B29D1"/>
<path d="M108.517 150.928C106.388 152.993 102.792 153.106 100.528 151.18C98.2319 149.254 98.098 146.039 100.227 143.974C102.357 141.908 105.952 141.795 108.217 143.722C110.512 145.647 110.646 148.862 108.517 150.928Z" fill="#6B29D1"/>
<path d="M2.09236 107.296C-0.0369536 109.361 -3.63221 109.475 -5.89707 107.548C-8.19266 105.622 -8.32777 102.379 -6.1973 100.342C-4.06799 98.2765 -0.503464 98.1641 1.79213 100.09C4.08657 101.988 4.22167 105.231 2.09236 107.296Z" fill="#6B29D1"/>
<path d="M29.1879 129.977C27.0585 132.043 23.4633 132.156 21.1985 130.229C18.9029 128.303 18.7678 125.061 20.8971 122.995C23.0264 120.93 26.5909 120.817 28.8865 122.743C31.1821 124.669 31.3172 127.912 29.1879 129.977Z" fill="#6B29D1"/>
<path d="M56.251 152.632C54.1217 154.697 50.5265 154.811 48.2309 152.885C45.9353 150.959 45.8014 147.744 47.9307 145.679C50.06 143.613 53.6246 143.501 55.9202 145.427C58.2465 147.352 58.3804 150.567 56.251 152.632Z" fill="#6B29D1"/>
<path d="M83.3464 175.313C81.217 177.378 77.6218 177.491 75.3262 175.565C73.0307 173.64 72.8967 170.425 75.026 168.359C77.1553 166.294 80.7505 166.181 83.0461 168.106C85.3406 170.005 85.4757 173.247 83.3464 175.313Z" fill="#6B29D1"/>
<path d="M3.98523 154.335C1.85593 156.401 -1.73931 156.514 -4.00417 154.587C-6.29975 152.662 -6.43485 149.419 -4.30555 147.354C-2.17624 145.288 1.419 145.175 3.68385 147.102C5.98059 149.055 6.11454 152.27 3.98523 154.335Z" fill="#6B29D1"/>
<path d="M31.0806 177.017C28.9513 179.082 25.356 179.195 23.0911 177.268C20.7955 175.343 20.6616 172.128 22.7909 170.062C24.9202 167.997 28.5155 167.884 30.7803 169.811C33.0748 171.709 33.2099 174.951 31.0806 177.017Z" fill="#6B29D1"/>
<path d="M58.1438 199.671C56.0145 201.737 52.4193 201.85 50.1545 199.923C47.8589 197.997 47.7238 194.755 49.8543 192.717C51.9836 190.651 55.548 190.539 57.8436 192.465C60.1392 194.391 60.2731 197.606 58.1438 199.671Z" fill="#6B29D1"/>
<path d="M5.87787 201.375C3.74855 203.44 0.153354 203.554 -2.14224 201.628C-4.43784 199.702 -4.57295 196.459 -2.44247 194.422C-0.313156 192.357 3.28204 192.243 5.57764 194.169C7.87324 196.095 8.00719 199.31 5.87787 201.375Z" fill="#6B29D1"/>
<path d="M32.9734 224.056C30.8441 226.121 27.2489 226.234 24.9533 224.309C22.6577 222.383 22.5226 219.14 24.6531 217.103C26.7824 215.037 30.3776 214.924 32.6732 216.85C34.9676 218.748 35.1027 221.99 32.9734 224.056Z" fill="#6B29D1"/>
<path d="M7.77081 248.414C5.6415 250.479 2.04632 250.593 -0.249275 248.667C-2.54487 246.741 -2.67997 243.499 -0.550659 241.434C1.57865 239.368 5.14308 239.256 7.43867 241.182C9.76615 243.134 9.90128 246.377 7.77081 248.414Z" fill="#6B29D1"/>
</g>
<g opacity="0.12">
<path d="M50.4237 11.6583C48.2944 13.7236 44.6992 13.837 42.4036 11.9112C40.108 9.98539 39.9729 6.74266 42.1034 4.70508C44.2327 2.63978 47.7972 2.52739 50.0927 4.45317C52.4191 6.37799 52.553 9.593 50.4237 11.6583Z" fill="#6B29D1"/>
<path d="M77.4886 34.3403C75.3593 36.4056 71.7641 36.519 69.4685 34.5932C67.1729 32.6674 67.0378 29.4247 69.1672 27.3594C71.2965 25.2941 74.8916 25.1807 77.1872 27.1065C79.4828 29.0323 79.6179 32.275 77.4886 34.3403Z" fill="#6B29D1"/>
<path d="M104.584 57.0211C102.455 59.0863 98.8595 59.1996 96.5947 57.273C94.2991 55.3473 94.164 52.1048 96.2944 50.0673C98.4238 48.0021 102.019 47.8888 104.284 49.8154C106.578 51.7134 106.713 54.9559 104.584 57.0211Z" fill="#6B29D1"/>
<path d="M131.647 79.6763C129.518 81.7416 125.923 81.855 123.658 79.9282C121.393 78.0015 121.227 74.7597 123.358 72.7221C125.487 70.6567 129.082 70.5434 131.347 72.4701C133.612 74.3969 133.777 77.611 131.647 79.6763Z" fill="#6B29D1"/>
<path d="M25.2226 36.0439C23.0933 38.1092 19.498 38.2226 17.2332 36.2958C14.9376 34.3701 14.8025 31.1274 16.9329 29.0898C19.0622 27.0246 22.6268 26.9122 24.9224 28.8379C27.2168 30.736 27.3519 33.9787 25.2226 36.0439Z" fill="#6B29D1"/>
<path d="M52.317 58.6973C50.1877 60.7625 46.5925 60.8759 44.3276 58.9492C42.032 57.0234 41.8981 53.8084 44.0274 51.7431C46.1567 49.6779 49.7212 49.5655 52.0168 51.4912C54.3124 53.417 54.4475 56.6597 52.317 58.6973Z" fill="#6B29D1"/>
<path d="M79.3813 81.3799C77.252 83.4452 73.6568 83.5585 71.3612 81.6328C69.0656 79.707 68.9317 76.492 71.061 74.4267C73.1903 72.3615 76.7855 72.2481 79.0811 74.1739C81.3767 76.0996 81.5106 79.3146 79.3813 81.3799Z" fill="#6B29D1"/>
<path d="M106.477 104.061C104.347 106.126 100.752 106.24 98.4566 104.314C96.161 102.388 96.0259 99.1454 98.1564 97.1078C100.287 95.0702 103.881 94.9291 106.177 96.8549C108.471 98.753 108.606 101.996 106.477 104.061Z" fill="#6B29D1"/>
<path d="M133.54 126.715C131.411 128.78 127.816 128.893 125.551 126.967C123.255 125.041 123.121 121.826 125.251 119.761C127.38 117.695 130.975 117.582 133.24 119.509C135.535 121.435 135.669 124.65 133.54 126.715Z" fill="#6B29D1"/>
<path d="M0.0508387 60.4009C-2.07847 62.4662 -5.67376 62.5795 -7.96935 60.6537C-10.2649 58.728 -10.4 55.4852 -8.27073 53.4199C-6.14142 51.3546 -2.54613 51.2413 -0.250543 53.167C2.0462 55.1205 2.18131 58.3633 0.0508387 60.4009Z" fill="#6B29D1"/>
<path d="M27.1154 83.083C24.9861 85.1483 21.3908 85.2616 19.126 83.3349C16.8304 81.4092 16.6953 78.1664 18.8257 76.1289C20.955 74.0636 24.5196 73.9512 26.8152 75.877C29.1096 77.775 29.2447 81.0177 27.1154 83.083Z" fill="#6B29D1"/>
<path d="M54.2108 105.765C52.0815 107.83 48.4863 107.943 46.2214 106.016C43.9259 104.091 43.7908 100.848 45.9201 98.7823C48.0494 96.7169 51.6139 96.6045 53.9095 98.5304C56.205 100.456 56.3401 103.699 54.2108 105.765Z" fill="#6B29D1"/>
<path d="M81.2741 128.419C79.1448 130.484 75.5496 130.598 73.254 128.672C70.9584 126.746 70.8245 123.531 72.9538 121.466C75.0831 119.401 78.6476 119.288 80.9432 121.214C83.2695 123.139 83.4034 126.354 81.2741 128.419Z" fill="#6B29D1"/>
<path d="M108.369 151.1C106.24 153.165 102.645 153.278 100.349 151.352C98.0538 149.427 97.9198 146.212 100.049 144.146C102.178 142.081 105.774 141.968 108.069 143.894C110.364 145.792 110.499 149.034 108.369 151.1Z" fill="#6B29D1"/>
<path d="M1.94496 107.468C-0.184357 109.533 -3.77964 109.647 -6.07524 107.721C-8.37083 105.795 -8.50478 102.58 -6.37546 100.515C-4.24615 98.4493 -0.650867 98.336 1.64473 100.262C3.90844 102.161 4.04354 105.404 1.94496 107.468Z" fill="#6B29D1"/>
<path d="M29.0083 130.123C26.879 132.188 23.2837 132.301 21.0189 130.374C18.7233 128.449 18.5882 125.206 20.7175 123.141C22.8468 121.075 26.442 120.962 28.7069 122.889C31.0036 124.842 31.1376 128.057 29.0083 130.123Z" fill="#6B29D1"/>
<path d="M56.1036 152.804C53.9743 154.869 50.379 154.982 48.1142 153.056C45.8186 151.13 45.6846 147.915 47.8139 145.85C49.9432 143.784 53.5385 143.671 55.8034 145.598C58.0978 147.496 58.2329 150.738 56.1036 152.804Z" fill="#6B29D1"/>
<path d="M83.1668 175.458C81.0375 177.524 77.4423 177.637 75.1774 175.71C72.8819 173.784 72.7468 170.542 74.8772 168.504C77.0065 166.439 80.571 166.326 82.8665 168.252C85.1621 170.178 85.2961 173.393 83.1668 175.458Z" fill="#6B29D1"/>
<path d="M3.83766 154.507C1.70836 156.572 -1.88689 156.686 -4.15175 154.759C-6.44733 152.833 -6.58243 149.59 -4.45197 147.553C-2.32266 145.487 1.24185 145.375 3.53744 147.301C5.80114 149.2 5.93624 152.443 3.83766 154.507Z" fill="#6B29D1"/>
<path d="M30.9009 177.162C28.7716 179.227 25.1764 179.341 22.8808 177.415C20.5852 175.489 20.4501 172.247 22.5805 170.209C24.7099 168.144 28.3051 168.03 30.6007 169.956C32.8963 171.882 33.0302 175.097 30.9009 177.162Z" fill="#6B29D1"/>
<path d="M57.9964 199.843C55.8671 201.908 52.2719 202.021 49.9763 200.096C47.6807 198.17 47.5456 194.927 49.6761 192.89C51.8054 190.824 55.4006 190.711 57.6962 192.637C59.9906 194.535 60.1257 197.777 57.9964 199.843Z" fill="#6B29D1"/>
<path d="M5.69973 201.548C3.57042 203.613 -0.0248315 203.726 -2.28969 201.8C-4.58529 199.874 -4.72039 196.631 -2.58992 194.594C-0.460609 192.528 3.10391 192.416 5.39951 194.342C7.69394 196.24 7.82905 199.483 5.69973 201.548Z" fill="#6B29D1"/>
<path d="M32.7939 224.201C30.6646 226.266 27.0694 226.379 24.7738 224.454C22.4782 222.528 22.3431 219.285 24.4724 217.22C26.6017 215.154 30.1661 215.042 32.4617 216.968C34.7892 218.92 34.9243 222.163 32.7939 224.201Z" fill="#6B29D1"/>
<path d="M7.59256 248.587C5.46325 250.652 1.868 250.766 -0.396866 248.839C-2.69246 246.913 -2.82756 243.67 -0.697094 241.633C1.43222 239.568 4.99674 239.455 7.29233 241.381C9.58677 243.279 9.72187 246.522 7.59256 248.587Z" fill="#6B29D1"/>
</g>
</g>
<path opacity="0.8" d="M399.852 352.94C386.87 341.247 365.846 341.247 352.865 352.94L338.774 365.634C325.792 377.328 304.769 377.328 291.787 365.634C278.806 353.94 278.806 335.002 291.787 323.308L443.599 186.553C456.58 174.859 456.58 155.921 443.599 144.227C430.617 132.553 409.593 132.533 396.612 144.227L182.159 337.39C169.178 349.063 148.154 349.063 135.173 337.39C122.192 325.696 122.192 306.757 135.173 295.063L211.906 225.941C224.887 214.247 224.887 195.308 211.906 183.635C198.924 171.941 177.9 171.941 164.919 183.635L138.073 207.819C125.091 219.492 104.068 219.492 91.0862 207.819C78.1049 196.125 78.1049 177.186 91.0862 165.492L176.314 88.7169C189.296 77.023 189.296 58.0843 176.314 46.3905C163.333 34.6967 142.309 34.6967 129.328 46.3905L-343.596 472.491C-356.577 484.185 -356.577 503.124 -343.596 514.818C-330.615 526.511 -309.591 526.511 -296.609 514.818L-233.062 457.573C-220.081 445.879 -199.057 445.899 -186.076 457.573C-173.094 469.267 -173.094 488.205 -186.076 499.899L-311.947 613.266C-324.928 624.96 -324.928 643.899 -311.947 655.593C-298.966 667.286 -277.942 667.286 -264.96 655.593L-195.364 592.899C-182.383 581.205 -161.359 581.205 -148.378 592.899C-135.396 604.593 -135.396 623.531 -148.378 635.225L-155.672 641.776C-168.654 653.47 -168.654 672.409 -155.672 684.103C-142.691 695.797 -121.667 695.797 -108.686 684.103L12.9489 574.532C25.9303 562.838 46.9542 562.838 59.9129 574.532C72.8942 586.225 72.8942 605.164 59.9129 616.858L-124.046 782.551C-137.027 794.245 -137.027 813.184 -124.046 824.857C-111.065 836.531 -90.0408 836.551 -77.0822 824.857L399.852 395.267C412.81 383.593 412.81 364.634 399.852 352.94Z" fill="#F7F5FB"/>
</svg>
