<svg width="16" height="10" viewBox="0 0 16 10" fill="none" xmlns="http://www.w3.org/2000/svg">
<path fill-rule="evenodd" clip-rule="evenodd" d="M14.9237 0.626812C14.1587 -0.138168 12.9145 -0.142088 12.1447 0.618054L9.39223 3.33608C8.60384 4.11459 7.3296 4.11058 6.54614 3.32711L3.81127 0.592248C3.04629 -0.172732 1.80212 -0.176654 1.03233 0.583488C0.262545 1.34363 0.258649 2.57999 1.02363 3.34497L6.49846 8.8198C6.51862 8.84187 6.53938 8.8636 6.56075 8.88497C6.87419 9.19841 7.26808 9.38408 7.67683 9.44177C8.26666 9.52605 8.88781 9.34373 9.34304 8.8942C9.36779 8.86977 9.39174 8.84484 9.4149 8.81946L14.915 3.38829C15.6848 2.62815 15.6887 1.39179 14.9237 0.626812Z" fill="#44E0B7"/>
</svg>
