<svg width="107" height="24" viewBox="0 0 107 24" fill="none" xmlns="http://www.w3.org/2000/svg">
<path d="M1 19.8663C6.41237 20.2218 17.6701 20.5063 19.4021 18.7997C21.0415 17.1842 29.2764 16.7157 33.8239 16.6702C34.2613 16.6658 34.6435 16.3846 34.781 15.9693C37.7535 6.99039 45.3447 -6.23127 54.2656 5.83346C54.6899 6.40727 55.5737 6.42222 56.0554 5.8957C60.4802 1.05922 71.0738 -2.56606 72 9.1664V12.2427C72 13.1103 73.0697 13.6072 73.8155 13.1638C80.8734 8.96778 92.1153 12.0732 85.4936 21.5963C84.9854 22.3272 85.5157 23.3965 86.4039 23.3359L106 21.9998" stroke="#181A1D" stroke-linejoin="round"/>
</svg>
