<svg width="470" height="356" viewBox="0 0 470 356" fill="none" xmlns="http://www.w3.org/2000/svg">
<path d="M310.12 81.874H267.395V117.037H310.12L310.12 81.874Z" fill="#F4F4F4"/>
<path fill-rule="evenodd" clip-rule="evenodd" d="M310.12 81.874H267.395V117.037H310.12L310.12 81.874Z" stroke="black" stroke-width="0.61"/>
<path d="M292.783 81.874H284.731V91.8453H292.783V81.874Z" fill="white"/>
<path fill-rule="evenodd" clip-rule="evenodd" d="M292.783 81.874H284.731V91.8453H292.783V81.874Z" stroke="black" stroke-width="0.61"/>
<path d="M267.395 81.7725H224.67V116.935H267.395L267.395 81.7725Z" fill="#F4F4F4"/>
<path fill-rule="evenodd" clip-rule="evenodd" d="M267.395 81.7725H224.67V116.935H267.395L267.395 81.7725Z" stroke="black" stroke-width="0.61"/>
<path d="M250.059 81.7725H242.006V91.7438H250.059V81.7725Z" fill="white"/>
<path fill-rule="evenodd" clip-rule="evenodd" d="M250.059 81.7725H242.006V91.7438H250.059V81.7725Z" stroke="black" stroke-width="0.61"/>
<path d="M288.76 46.7891H246.035V81.9517H288.76L288.76 46.7891Z" fill="#F4F4F4"/>
<path fill-rule="evenodd" clip-rule="evenodd" d="M288.76 46.7891H246.035V81.9517H288.76L288.76 46.7891Z" stroke="black" stroke-width="0.61"/>
<path d="M271.424 46.7891H263.372V56.7604H271.424V46.7891Z" fill="white"/>
<path fill-rule="evenodd" clip-rule="evenodd" d="M271.424 46.7891H263.372V56.7604H271.424V46.7891Z" stroke="black" stroke-width="0.61"/>
<path d="M335.711 24.4132H310.472C310.307 24.4132 310.173 24.2794 310.173 24.1143C310.173 23.9493 310.307 23.8154 310.472 23.8154H335.711C335.876 23.8154 336.01 23.9493 336.01 24.1143C336.01 24.2794 335.876 24.4132 335.711 24.4132Z" fill="black"/>
<path d="M212.17 68.5011H189.782C189.617 68.5011 189.483 68.3673 189.483 68.2022C189.483 68.0371 189.617 67.9033 189.782 67.9033H212.17C212.335 67.9033 212.469 68.0371 212.469 68.2022C212.469 68.3673 212.335 68.5011 212.17 68.5011Z" fill="black"/>
<path d="M402.617 82.1076H391.313C391.148 82.1076 391.014 81.9737 391.014 81.8087C391.014 81.6436 391.148 81.5098 391.313 81.5098H402.617C402.782 81.5098 402.916 81.6436 402.916 81.8087C402.916 81.9737 402.782 82.1076 402.617 82.1076Z" fill="black"/>
<path d="M362.278 116.63H148.319C141.889 116.629 135.922 119.977 132.573 125.465L84.2109 204.728L17.5622 225.621C7.26239 228.853 0.437775 238.624 0.94931 249.407L3.97415 312.714H455.821V272.124C455.822 236.744 443.506 202.467 420.987 175.178L379.279 124.64C375.092 119.566 368.856 116.628 362.278 116.63V116.63Z" fill="#E9E9E9"/>
<path d="M15.8705 258.482V268.926C15.8705 274.575 11.2911 279.154 5.64213 279.154H2.38411L0.96135 249.408C0.96135 249.025 0.96135 248.636 0.96135 248.254H5.66604C11.3057 248.267 15.8705 252.843 15.8705 258.482H15.8705Z" fill="#CCCCCC"/>
<path d="M15.8705 258.482V268.926C15.8705 274.575 11.2911 279.154 5.64213 279.154" stroke="black" stroke-width="0.61"/>
<path d="M445.635 277.833V263.055C445.635 259.754 448.311 257.077 451.613 257.077H455.074C455.572 262.059 455.823 267.072 455.827 272.118V283.811H451.643C450.052 283.819 448.524 283.192 447.396 282.07C446.269 280.948 445.635 279.423 445.635 277.833Z" fill="#CCCCCC"/>
<path d="M84.2229 204.728L128.962 131.401H254.668V187.624C254.669 192.16 252.869 196.51 249.662 199.718C246.456 202.925 242.106 204.728 237.571 204.728H84.2229Z" fill="#F4F4F4"/>
<path d="M90.6493 204.728L97.6256 193.298C101.103 187.602 106.353 183.205 112.571 180.78L118.429 178.491C118.947 178.285 119.526 178.295 120.037 178.52C120.547 178.745 120.945 179.165 121.143 179.686C121.685 180.833 121.272 182.204 120.187 182.861C118.304 184.122 119.445 187.009 120.342 188.683C120.49 188.96 120.774 189.137 121.087 189.149C121.401 189.161 121.697 189.007 121.866 188.743L132.519 172.16C132.724 171.841 133.108 171.688 133.475 171.779C133.843 171.869 134.112 172.183 134.145 172.56C134.162 172.753 134.116 172.946 134.014 173.11L122.715 191.26C122.523 191.567 122.537 191.96 122.751 192.252C125.596 196.142 128.001 200.334 129.925 204.752L90.6493 204.728Z" fill="#CCCCCC"/>
<path d="M132.148 176.106L122.727 191.236C122.535 191.543 122.549 191.936 122.763 192.228C125.607 196.118 128.013 200.31 129.937 204.728H90.679L97.6255 193.298C101.103 187.603 106.353 183.205 112.57 180.78L118.429 178.491C118.947 178.285 119.526 178.295 120.036 178.52C120.547 178.745 120.945 179.165 121.143 179.686C121.685 180.833 121.272 182.204 120.186 182.861C118.303 184.122 119.445 187.01 120.342 188.683C120.49 188.96 120.774 189.137 121.087 189.149C121.4 189.162 121.697 189.007 121.866 188.743L132.519 172.16" stroke="black" stroke-width="0.61"/>
<path d="M220.222 184.958C219.918 178.98 220.342 174.76 220.934 171.872C221.611 168.726 224.398 166.482 227.617 166.492H235.735C238.264 166.483 240.588 167.879 241.767 170.115C245.707 177.725 248.534 190.763 250.106 199.276C246.87 202.773 242.318 204.759 237.553 204.751H218.59C219.991 198.253 220.54 191.599 220.222 184.958Z" fill="#CCCCCC"/>
<path d="M270.497 187.624V131.401H384.856L420.987 175.178C428.482 184.257 434.902 194.173 440.117 204.728H287.606C283.069 204.731 278.716 202.93 275.507 199.722C272.298 196.514 270.496 192.162 270.497 187.624Z" fill="#F4F4F4"/>
<path d="M362.379 166.469H370.491C373.02 166.457 375.346 167.853 376.523 170.092C381.473 179.656 384.665 197.764 385.813 204.728H357.119C356.02 198.185 355.295 191.585 354.949 184.959C354.644 178.981 355.068 174.76 355.66 171.873C356.331 168.704 359.14 166.444 362.379 166.469Z" fill="#CCCCCC"/>
<path fill-rule="evenodd" clip-rule="evenodd" d="M220.222 184.958C219.917 178.98 220.342 174.76 220.934 171.872C221.611 168.726 224.398 166.482 227.617 166.492H235.735C238.263 166.483 240.587 167.879 241.767 170.115C245.707 177.725 248.534 190.763 250.106 199.276C246.87 202.773 242.318 204.759 237.553 204.751H218.59C219.991 198.253 220.54 191.599 220.222 184.958V184.958Z" stroke="black" stroke-width="0.61"/>
<path fill-rule="evenodd" clip-rule="evenodd" d="M362.379 166.468H370.491C373.02 166.456 375.346 167.853 376.523 170.091C381.473 179.655 384.665 197.763 385.813 204.727H357.118C356.02 198.184 355.295 191.584 354.948 184.958C354.644 178.98 355.068 174.759 355.66 171.872C356.33 168.703 359.14 166.443 362.379 166.468V166.468Z" stroke="black" stroke-width="0.61"/>
<path fill-rule="evenodd" clip-rule="evenodd" d="M84.2227 204.728L128.962 131.401H254.667V187.624C254.669 192.16 252.868 196.51 249.662 199.718C246.455 202.925 242.106 204.728 237.57 204.728H84.2227Z" stroke="black" stroke-width="0.61"/>
<path fill-rule="evenodd" clip-rule="evenodd" d="M270.497 187.624V131.401H384.856L420.987 175.178C428.482 184.257 434.902 194.173 440.117 204.728H287.606C283.069 204.731 278.716 202.93 275.507 199.722C272.298 196.514 270.496 192.162 270.497 187.624V187.624Z" stroke="black" stroke-width="0.61"/>
<path d="M455.821 307.968H3.74698V318.441C3.74698 321.413 6.15579 323.821 9.1272 323.821H447.912C452.267 323.821 455.797 320.291 455.797 315.936V307.968L455.821 307.968Z" fill="#F4F4F4"/>
<path fill-rule="evenodd" clip-rule="evenodd" d="M17.5741 225.621L84.2228 204.728L132.585 125.465C135.932 119.98 141.893 116.633 148.319 116.63H362.278C368.856 116.628 375.092 119.566 379.279 124.64L420.987 175.178C443.506 202.467 455.822 236.744 455.821 272.124V315.936C455.821 320.291 452.291 323.821 447.936 323.821H9.15109C6.17968 323.821 3.77088 321.413 3.77088 318.441V307.968L0.9732 249.383C0.471295 238.612 7.28802 228.855 17.5741 225.621V225.621Z" stroke="black" stroke-width="0.61"/>
<path d="M335.604 312.237H354.733C354.978 293.944 369.877 279.243 388.171 279.243C406.466 279.243 421.365 293.944 421.609 312.237H440.739C440.432 283.423 416.987 260.227 388.171 260.227C359.356 260.227 335.911 283.423 335.604 312.237Z" fill="#F4F4F4"/>
<circle r="42.9998" transform="matrix(-1 0 0 1 388.168 312.236)" fill="black" stroke="black" stroke-width="0.61"/>
<circle r="21.5029" transform="matrix(-1 0 0 1 388.168 312.236)" fill="#CCCCCC"/>
<circle r="15.0466" transform="matrix(-1 0 0 1 388.168 312.236)" fill="#E9E9E9"/>
<path d="M18.3215 312.237H37.4511C37.6957 293.944 52.5945 279.243 70.889 279.243C89.1835 279.243 104.082 293.944 104.327 312.237H123.457C123.149 283.423 99.7042 260.227 70.889 260.227C42.0738 260.227 18.6287 283.423 18.3215 312.237Z" fill="#F4F4F4"/>
<circle r="42.9998" transform="matrix(-1 0 0 1 70.886 312.236)" fill="black" stroke="black" stroke-width="0.61"/>
<circle r="21.5029" transform="matrix(-1 0 0 1 70.8859 312.236)" fill="#CCCCCC"/>
<circle r="15.0466" transform="matrix(-1 0 0 1 70.886 312.236)" fill="#E9E9E9"/>
<rect width="14.5684" height="4.6748" rx="1.7446" transform="matrix(-1 0 0 1 355.295 222.153)" fill="white"/>
<path d="M342.437 226.828H353.586" stroke="black" stroke-width="0.61"/>
<rect width="14.5684" height="4.6748" rx="1.7446" transform="matrix(-1 0 0 1 238.826 222.153)" fill="white"/>
<path d="M225.967 226.828H237.122" stroke="black" stroke-width="0.61"/>
<path d="M195.39 145.641C195.474 145.672 195.551 145.718 195.617 145.779C195.665 145.822 195.705 145.872 195.737 145.928C195.805 146.054 195.834 146.198 195.82 146.341C195.822 146.531 195.733 146.711 195.581 146.825C195.467 146.894 195.324 146.894 195.21 146.825C195.1 146.755 195.034 146.633 195.037 146.502C195.043 146.424 195.055 146.346 195.073 146.269L195.115 146.072C195.145 145.953 195.245 145.866 195.366 145.85C195.487 145.834 195.605 145.893 195.665 146C195.691 146.075 195.691 146.158 195.665 146.233C195.637 146.339 195.615 146.447 195.599 146.556V146.442V146.371L195.551 146.311L195.491 146.263L195.42 146.233H195.342H195.264L195.198 146.263L195.139 146.311L195.091 146.371C195.103 146.356 195.113 146.34 195.121 146.323L195.091 146.394C195.11 146.344 195.124 146.292 195.133 146.239V146.317C195.139 146.277 195.139 146.237 195.133 146.197V146.275C195.126 146.238 195.116 146.202 195.103 146.167L195.133 146.239C195.119 146.21 195.103 146.182 195.085 146.155L195.133 146.215C195.116 146.194 195.096 146.176 195.073 146.161L195.133 146.203L195.067 146.167H195.139C195.101 146.157 195.067 146.138 195.037 146.113C195.005 146.092 194.979 146.063 194.959 146.03C194.93 145.955 194.93 145.872 194.959 145.797C194.98 145.721 195.029 145.657 195.097 145.617C195.165 145.575 195.248 145.564 195.324 145.587L195.39 145.641Z" fill="black"/>
<path d="M203.956 149.24C204.707 149.136 205.413 148.819 205.989 148.325C206.644 147.799 207.072 147.041 207.184 146.209C207.236 145.835 207.124 145.457 206.876 145.172C206.629 144.886 206.271 144.722 205.893 144.72C205.131 144.768 204.463 145.246 204.171 145.952C204.004 146.292 203.484 145.994 203.657 145.647C203.976 144.961 204.565 144.437 205.283 144.2C205.982 143.99 206.739 144.176 207.262 144.684C208.458 145.958 207.412 147.93 206.276 148.869C205.606 149.414 204.796 149.76 203.938 149.867C203.777 149.867 203.645 149.718 203.639 149.568C203.646 149.406 203.776 149.276 203.938 149.27L203.956 149.24Z" fill="black"/>
<path d="M206.15 146.191C206.019 146.027 205.786 145.986 205.606 146.095C205.406 146.217 205.236 146.383 205.11 146.58C204.819 146.963 204.6 147.397 204.464 147.859C204.45 147.895 204.412 147.914 204.374 147.905C204.337 147.896 204.312 147.861 204.315 147.823C204.479 147.274 204.749 146.762 205.11 146.317C205.254 146.107 205.465 145.954 205.708 145.88C205.919 145.835 206.138 145.919 206.264 146.095C206.318 146.179 206.192 146.251 206.138 146.173L206.15 146.191Z" fill="black"/>
<path d="M205.355 146.915C205.35 146.871 205.326 146.832 205.289 146.807C205.25 146.777 205.201 146.764 205.152 146.771C205.033 146.793 204.927 146.862 204.859 146.963C204.828 146.989 204.782 146.989 204.751 146.963C204.722 146.932 204.722 146.885 204.751 146.855C204.852 146.722 205.004 146.638 205.17 146.622C205.326 146.615 205.464 146.721 205.499 146.873C205.504 146.891 205.502 146.911 205.493 146.928C205.484 146.944 205.469 146.957 205.451 146.963C205.411 146.975 205.369 146.954 205.355 146.915Z" fill="black"/>
<path d="M196.233 144.26C196.157 144.175 196.075 144.095 195.988 144.021C195.988 144.021 195.988 144.021 195.946 143.991L195.874 143.938L195.719 143.848L195.575 143.776H195.539L195.455 143.746C195.345 143.707 195.231 143.679 195.115 143.663C195.039 143.642 194.975 143.593 194.935 143.525C194.906 143.452 194.906 143.371 194.935 143.298C194.954 143.222 195.004 143.157 195.073 143.119C195.146 143.089 195.227 143.089 195.3 143.119C195.826 143.201 196.307 143.465 196.657 143.866C196.772 143.984 196.772 144.172 196.657 144.29C196.541 144.404 196.355 144.404 196.239 144.29L196.233 144.26Z" fill="black"/>
<path d="M195.061 137.225C194.027 140.214 192.969 142.946 192.508 146.138C192.329 147.165 191.979 148.155 191.474 149.067C191.38 149.197 191.346 149.36 191.38 149.517C191.415 149.673 191.514 149.807 191.654 149.886H191.701C192.005 150.057 192.196 150.375 192.204 150.723C192.275 153.264 191.528 155.727 193.501 157.299C195.725 159.092 199.204 157.825 201.547 156.33" stroke="black" stroke-width="0.61"/>
<path d="M209.773 157.233C209.175 155.738 208.978 154.07 208.577 152.51C208.464 151.766 208.142 151.07 207.651 150.501C207.423 150.313 207.206 150.114 206.999 149.903C206.761 149.602 206.607 149.243 206.551 148.863C206.479 148.493 207.053 148.331 207.149 148.708C207.192 149.071 207.359 149.409 207.621 149.664C207.859 149.851 208.086 150.051 208.302 150.262C208.742 150.879 209.04 151.585 209.175 152.331C209.576 153.891 209.773 155.559 210.371 157.047C210.52 157.4 209.94 157.555 209.773 157.209V157.233Z" fill="black"/>
<path d="M275.124 134.671C275.091 134.662 275.068 134.631 275.068 134.597C275.068 134.562 275.091 134.532 275.124 134.522C275.158 134.532 275.181 134.562 275.181 134.597C275.181 134.631 275.158 134.662 275.124 134.671Z" fill="black"/>
<path d="M275.124 134.671C275.091 134.662 275.068 134.631 275.068 134.597C275.068 134.562 275.091 134.532 275.124 134.522C275.158 134.532 275.181 134.562 275.181 134.597C275.181 134.631 275.158 134.662 275.124 134.671Z" fill="black"/>
<path d="M333.434 145.641C333.518 145.671 333.595 145.718 333.661 145.778C333.707 145.823 333.747 145.873 333.78 145.928C333.846 146.055 333.875 146.198 333.864 146.34C333.861 146.529 333.773 146.707 333.625 146.825C333.509 146.893 333.365 146.893 333.248 146.825C333.142 146.752 333.079 146.631 333.081 146.502C333.084 146.423 333.096 146.345 333.117 146.269L333.159 146.071C333.179 145.996 333.229 145.932 333.296 145.892C333.438 145.81 333.62 145.858 333.703 146C333.742 146.071 333.753 146.154 333.733 146.233C333.733 146.34 333.685 146.448 333.667 146.556V146.472V146.526V146.442L333.637 146.37L333.589 146.311L333.529 146.263L333.458 146.233H333.374H333.296L333.224 146.263L333.165 146.311L333.117 146.37C333.129 146.356 333.139 146.34 333.147 146.322L333.117 146.394C333.134 146.344 333.146 146.292 333.153 146.239V146.317C333.156 146.277 333.156 146.237 333.153 146.197V146.317C333.158 146.281 333.158 146.245 333.153 146.209V146.281L333.105 146.197L333.147 146.257C333.13 146.236 333.11 146.218 333.087 146.203L333.153 146.245L333.087 146.209H333.159C333.122 146.197 333.088 146.179 333.057 146.155C333.028 146.13 333.002 146.102 332.979 146.071C332.953 145.996 332.953 145.914 332.979 145.838C333.002 145.764 333.051 145.7 333.117 145.659C333.187 145.617 333.272 145.606 333.35 145.629L333.434 145.641Z" fill="black"/>
<path d="M342.006 149.24C342.757 149.136 343.463 148.818 344.039 148.326C344.692 147.798 345.12 147.041 345.234 146.209C345.286 145.835 345.174 145.457 344.927 145.172C344.679 144.887 344.321 144.723 343.943 144.721C343.18 144.767 342.511 145.245 342.221 145.952C342.048 146.293 341.534 145.994 341.707 145.647C342.024 144.962 342.61 144.438 343.327 144.201C344.028 143.99 344.788 144.175 345.312 144.685C346.508 145.958 345.462 147.931 344.326 148.87C343.654 149.413 342.845 149.759 341.988 149.868C341.827 149.868 341.689 149.719 341.689 149.569C341.693 149.405 341.825 149.273 341.988 149.27L342.006 149.24Z" fill="black"/>
<path d="M344.194 146.191C344.061 146.029 343.83 145.989 343.65 146.095C343.449 146.215 343.279 146.381 343.154 146.579C342.861 146.963 342.64 147.396 342.502 147.859C342.502 147.954 342.329 147.913 342.359 147.823C342.52 147.278 342.791 146.771 343.154 146.334C343.297 146.125 343.508 145.97 343.752 145.898C343.965 145.85 344.187 145.935 344.314 146.113C344.368 146.197 344.236 146.269 344.188 146.191H344.194Z" fill="black"/>
<path d="M343.399 146.914C343.394 146.87 343.37 146.831 343.333 146.807C343.294 146.777 343.245 146.765 343.196 146.771C343.075 146.793 342.967 146.861 342.897 146.962C342.866 146.982 342.825 146.978 342.799 146.952C342.773 146.926 342.769 146.885 342.789 146.854C342.892 146.72 343.046 146.636 343.214 146.621C343.369 146.617 343.506 146.722 343.543 146.872C343.55 146.912 343.527 146.95 343.489 146.962C343.471 146.968 343.451 146.966 343.434 146.957C343.417 146.948 343.405 146.932 343.399 146.914Z" fill="black"/>
<path d="M334.271 144.261C334.197 144.174 334.115 144.094 334.026 144.022L333.99 143.992C333.99 143.992 334.038 144.028 333.99 143.992L333.918 143.938L333.769 143.848L333.619 143.776H333.577L333.5 143.747C333.387 143.707 333.271 143.679 333.153 143.663C333.079 143.642 333.017 143.593 332.979 143.525C332.937 143.458 332.926 143.375 332.95 143.298C332.966 143.223 333.014 143.157 333.081 143.119C333.156 143.089 333.239 143.089 333.314 143.119C333.84 143.201 334.321 143.465 334.671 143.866C334.788 143.983 334.788 144.173 334.671 144.291C334.554 144.408 334.364 144.408 334.247 144.291L334.271 144.261Z" fill="black"/>
<path d="M333.099 137.225C332.065 140.214 331.013 142.946 330.546 146.138C330.364 147.164 330.014 148.153 329.512 149.067C329.418 149.197 329.384 149.36 329.419 149.517C329.453 149.673 329.552 149.807 329.692 149.886H329.733C330.04 150.054 330.234 150.373 330.242 150.723C330.307 153.264 329.56 155.727 331.539 157.299C333.763 159.092 337.559 158.291 339.908 156.791" stroke="black" stroke-width="0.61"/>
<path d="M332.561 150.418C332.688 150.382 332.814 150.34 332.938 150.292H332.979L333.069 150.25L333.26 150.155C333.378 150.094 333.492 150.026 333.601 149.952L333.763 149.838L333.852 149.772C333.968 149.657 334.155 149.657 334.271 149.772C334.386 149.888 334.386 150.075 334.271 150.191C333.809 150.583 333.269 150.873 332.686 151.04C332.61 151.062 332.529 151.053 332.459 151.015C332.39 150.977 332.338 150.912 332.316 150.836C332.277 150.677 332.368 150.515 332.525 150.466L332.561 150.418Z" fill="black"/>
<path d="M338.635 157.574C338.72 157.826 338.782 158.087 338.82 158.351C338.892 158.745 338.945 159.134 339.005 159.546C339.101 160.204 339.173 160.868 339.286 161.525C339.358 161.902 338.778 162.063 338.688 161.687C338.569 161.029 338.503 160.365 338.407 159.708C338.348 159.313 338.288 158.919 338.216 158.512C338.178 158.248 338.116 157.988 338.031 157.735C337.988 157.575 338.081 157.411 338.24 157.364C338.399 157.325 338.562 157.417 338.611 157.574H338.635Z" fill="black"/>
<path d="M348.223 160.574C347.741 159.295 347.351 157.982 347.058 156.647C346.737 155.241 346.313 153.86 345.79 152.516C345.256 151.351 344.855 150.13 344.595 148.875C344.529 148.499 345.103 148.337 345.192 148.72C345.503 150.117 345.964 151.475 346.567 152.773C346.847 153.514 347.082 154.27 347.273 155.039C347.542 156.019 347.793 157.006 348.056 157.992C348.244 158.767 348.479 159.53 348.761 160.275C348.911 160.622 348.397 160.927 348.247 160.574H348.223Z" fill="black"/>
<path d="M339.555 157.149C339.555 157.149 339.238 158.823 338.957 158.943C338.677 159.062 338.461 158.13 338.461 158.13L338.862 157.371" fill="black"/>
<path d="M342.431 145.121C342.431 145.121 342.281 146.801 341.313 146.813C340.344 146.825 335.663 142.03 335.335 139.185C335.335 139.185 332.214 143.567 327.444 141.666V138.844C327.444 138.844 329.052 139.137 329.416 138.844C329.416 138.844 327.623 138.354 327.205 137.577L331.73 131.396C331.73 131.396 333.822 134.121 336.745 133.787C339.669 133.452 341.42 134.42 341.564 135.49C343.606 135.271 345.664 135.726 347.422 136.788C350.088 138.539 353.657 146.137 351.188 149.939C348.719 153.741 347.936 155.672 347.225 156.061C346.513 156.449 343.154 148.887 343.776 148.887C344.397 148.887 346.765 146.233 345.145 144.912C344.774 144.542 344.261 144.352 343.739 144.393C343.218 144.433 342.74 144.699 342.431 145.121Z" fill="black"/>
<path d="M191.695 149.904C191.695 149.904 187.941 157.197 191.929 159.385C195.916 161.573 203.956 160.581 202.3 151.614C202.3 151.614 203.293 146.496 204.62 145.331C205.947 144.165 207.274 144.733 207.507 146.168C207.74 147.602 205.857 149.031 205.857 149.031C205.857 149.031 207.226 152.152 208.195 152.815C208.613 153.187 209.214 153.269 209.717 153.024C210.219 152.78 210.525 152.255 210.49 151.697C210.556 150.334 213.527 147.704 213.766 144.524C213.766 144.524 216.008 145.97 215.912 143.394C215.817 140.817 213.085 140.668 213.085 140.668C213.085 140.668 215.763 141.863 215.374 139.843C214.986 137.822 210.311 137.99 210.311 137.99C210.311 137.99 210.699 137.649 210.652 135.652C210.604 133.656 208.715 132.376 207.531 131.659C204.961 130.105 205.738 134.726 205.738 134.726C205.738 134.726 206.025 131.737 200.423 130.457C194.822 129.178 192.162 131.223 191.385 132.926C190.607 134.63 196.304 133.805 196.071 133.703C195.838 133.602 190.44 130.834 189.759 133.464C189.077 136.095 192.688 139.108 197.117 140.04C197.117 140.04 195.856 140.53 197.117 141.792C197.558 142.199 198.058 142.538 198.6 142.796C200.646 143.829 201.641 146.194 200.949 148.379C200.555 149.575 200.047 150.555 199.449 150.346C197.936 149.784 196.848 146.981 191.695 149.904Z" fill="black"/>
<path d="M192.61 136.561C192.466 136.561 190.129 136.656 190.326 138.898C190.524 141.14 193.429 142.066 193.429 142.066C193.429 142.066 194.134 138.234 194.625 137.726" fill="black"/>
<path d="M199.012 160.664C198.5 159.659 198.043 158.628 197.644 157.573C197.601 157.408 197.7 157.239 197.865 157.197C198.03 157.154 198.198 157.253 198.241 157.418C198.624 158.421 199.061 159.403 199.55 160.359C199.73 160.7 199.216 161.005 199.036 160.664H199.012Z" fill="black"/>
<path d="M219.069 204.734C219.666 198.439 220.204 192.096 219.768 185.771C219.575 182.617 219.07 179.489 218.261 176.434C217.544 173.797 216.223 171.418 215.063 168.961C213.981 166.654 212.893 164.119 213.043 161.513C213.126 160.108 213.688 158.524 212.66 157.328L212.594 157.262C212.63 157.262 212.594 157.262 212.594 157.262H212.499C212.349 157.271 212.199 157.287 212.05 157.31C210.8 157.53 209.562 157.82 208.344 158.177C206.7 158.625 205.062 159.115 203.442 159.635C202.079 160.066 200.71 160.514 199.377 161.04C199.009 161.178 198.651 161.342 198.307 161.531L198.241 161.572C198.187 161.602 198.241 161.572 198.241 161.572L198.199 161.608C198.215 161.554 198.237 161.502 198.265 161.453C198.283 161.566 198.283 161.681 198.265 161.794V163.216C198.265 163.381 198.131 163.515 197.966 163.515C197.801 163.515 197.667 163.381 197.667 163.216C197.631 162.619 197.631 162.02 197.667 161.423C197.709 161.106 198.074 160.957 198.331 160.825C199.472 160.318 200.641 159.879 201.834 159.51C204.905 158.435 208.037 157.543 211.213 156.838C211.632 156.738 212.058 156.674 212.487 156.646C213.15 156.646 213.521 157.334 213.718 157.896C214.196 159.313 213.599 160.825 213.658 162.266C213.747 163.589 214.043 164.891 214.537 166.122C215.518 168.758 216.97 171.191 218.04 173.785C219.113 176.699 219.791 179.743 220.055 182.836C220.85 189.322 220.426 195.88 219.852 202.36C219.786 203.155 219.708 203.944 219.636 204.751C219.601 205.134 219.003 205.134 219.039 204.751L219.069 204.734Z" fill="black"/>
<path d="M206.838 162.75C206.838 162.75 196.023 159.438 184.922 172.393C173.821 185.347 170.312 185.204 170.312 185.204C170.312 185.204 152.013 170.51 150.453 170.432C148.893 170.354 143.543 175.089 144.565 179.65C144.565 179.65 156.485 195.103 165.637 199.915C174.79 204.728 197.918 186.124 197.918 186.124" stroke="black" stroke-width="0.61"/>
<path d="M184.36 195.336C184.36 195.336 184.958 200.65 184.36 202.306C183.762 203.962 183.553 204.745 183.553 204.745" stroke="black" stroke-width="0.61"/>
<path d="M138.844 168.435L139.765 169.2C139.818 169.257 139.848 169.332 139.848 169.41C139.852 169.49 139.821 169.568 139.764 169.625C139.708 169.682 139.63 169.712 139.549 169.709C139.477 169.704 139.408 169.677 139.352 169.631L138.431 168.866C138.373 168.809 138.341 168.732 138.342 168.65C138.345 168.572 138.377 168.497 138.431 168.441C138.487 168.385 138.562 168.353 138.641 168.352C138.72 168.357 138.796 168.389 138.856 168.441L138.844 168.435Z" fill="black"/>
<path d="M194.517 150.418C194.645 150.383 194.771 150.341 194.894 150.292H194.941L195.031 150.25L195.222 150.155C195.341 150.096 195.455 150.028 195.563 149.951L195.725 149.838L195.808 149.772C195.881 149.686 195.995 149.648 196.104 149.674C196.214 149.699 196.3 149.784 196.327 149.893C196.354 150.002 196.317 150.117 196.233 150.191C195.769 150.583 195.227 150.873 194.642 151.039C194.566 151.062 194.485 151.053 194.415 151.015C194.346 150.976 194.294 150.912 194.272 150.836C194.233 150.677 194.324 150.514 194.481 150.465L194.517 150.418Z" fill="white"/>
<path d="M349.353 142.163C349.353 142.163 348.229 131.588 358.141 131.115C368.052 130.643 373.69 128.162 373.69 128.162C373.69 128.162 375.22 135.623 374.287 137.912C372.456 138.223 370.603 138.393 368.746 138.42L374.054 139.616C374.054 139.616 372.859 145.146 369.332 148.81C369.332 148.81 361.901 141.505 356.593 141.858C351.284 142.21 349.299 144.572 349.299 144.572" fill="black"/>
<path d="M349.311 162.302C349.311 162.302 354.542 174.897 355.289 187.619C356.036 200.34 357.083 204.728 357.083 204.728" stroke="black" stroke-width="0.61"/>
<path d="M349.945 160.425C349.682 160.221 338.975 160.55 337.218 162.882L337.815 165.936C337.815 165.936 328.251 168.531 326.194 180.606C324.138 192.682 318.793 204.728 318.793 204.728" stroke="black" stroke-width="0.61"/>
<path d="M348.48 182.55C348.647 183.333 345.312 184.116 345.551 189.179C345.79 194.243 345.551 204.722 345.551 204.722" stroke="black" stroke-width="0.61"/>
<path d="M137.57 156.826C137.306 155.673 136.157 154.951 135.003 155.215C133.849 155.479 133.128 156.628 133.392 157.782L139.708 185.405C139.972 186.559 141.121 187.28 142.275 187.016C143.429 186.752 144.15 185.603 143.886 184.449L137.57 156.826Z" fill="black"/>
<path d="M139.848 166.044C139.848 166.044 141.69 168.286 139.705 168.094C137.72 167.903 134.922 166.971 134.922 167.419C134.922 167.867 133.344 177.486 137.314 177.253C141.283 177.02 143.064 177.719 143.064 177.719" fill="#F4F4F4"/>
<path d="M148.522 171.574C147.601 171.075 146.788 170.399 146.131 169.583C145.396 168.764 144.696 167.915 143.913 167.138C142.401 165.644 140.326 164.322 138.103 164.89C137.937 164.935 137.768 164.837 137.723 164.672C137.678 164.507 137.776 164.337 137.941 164.293C140.129 163.737 142.275 164.813 143.865 166.253C144.71 167.059 145.508 167.911 146.257 168.806C146.953 169.718 147.83 170.477 148.833 171.036C149.18 171.203 148.875 171.717 148.528 171.556L148.522 171.574Z" fill="black"/>
<path d="M140.476 168.489L136.74 167.981C135.623 167.903 134.528 167.638 133.5 167.198C133.159 167.024 133.458 166.51 133.804 166.684C134.833 167.104 135.923 167.355 137.033 167.425L140.619 167.915C140.996 167.969 140.835 168.543 140.458 168.513L140.476 168.489Z" fill="black"/>
<path d="M135.55 175.842C137.009 176.595 138.7 176.721 140.296 176.942C141.701 177.139 143.393 177.139 144.481 178.137C144.768 178.388 144.35 178.813 144.063 178.556C143.488 178.12 142.802 177.857 142.084 177.797C141.289 177.671 140.488 177.569 139.693 177.462C138.151 177.351 136.639 176.979 135.221 176.362C134.88 176.183 135.185 175.668 135.526 175.842H135.55Z" fill="black"/>
<path d="M135.807 174.001L134.839 173.756C134.761 173.735 134.696 173.684 134.656 173.614C134.617 173.544 134.607 173.462 134.629 173.385C134.676 173.229 134.836 173.137 134.994 173.176L135.968 173.421C136.127 173.467 136.22 173.632 136.178 173.792C136.129 173.948 135.966 174.04 135.807 174.001Z" fill="black"/>
<path d="M135.55 171.036C135.359 171.015 135.17 170.973 134.988 170.91C134.807 170.847 134.632 170.765 134.468 170.665C134.375 170.611 134.318 170.511 134.319 170.403C134.32 170.295 134.378 170.196 134.471 170.143C134.565 170.09 134.68 170.09 134.773 170.145C134.877 170.212 134.987 170.27 135.102 170.318H135.03C135.222 170.397 135.422 170.451 135.628 170.48H135.55C135.628 170.484 135.702 170.516 135.759 170.569C135.816 170.625 135.848 170.702 135.848 170.782C135.848 170.861 135.816 170.938 135.759 170.994C135.705 171.05 135.629 171.081 135.55 171.077V171.036Z" fill="black"/>
<path d="M229.022 149.539H226.511C226.082 149.539 225.67 149.71 225.366 150.014C225.062 150.317 224.891 150.729 224.891 151.159V160.724C224.891 161.154 225.062 161.566 225.366 161.869C225.67 162.173 226.082 162.344 226.511 162.344H233.565C235.847 162.344 237.696 160.495 237.696 158.213C237.683 153.428 233.807 149.552 229.022 149.539Z" fill="#CCCCCC"/>
<path fill-rule="evenodd" clip-rule="evenodd" d="M229.022 149.539H226.511C226.082 149.539 225.67 149.71 225.366 150.014C225.062 150.317 224.891 150.729 224.891 151.159V160.724C224.891 161.154 225.062 161.566 225.366 161.869C225.67 162.173 226.082 162.344 226.511 162.344H233.565C235.847 162.344 237.696 160.495 237.696 158.213C237.683 153.428 233.807 149.552 229.022 149.539V149.539Z" stroke="black" stroke-width="0.61"/>
<path d="M230.786 165.841V162.529" stroke="black" stroke-width="0.61"/>
<path d="M363.772 149.539H361.261C360.367 149.539 359.641 150.264 359.641 151.159V160.724C359.641 161.619 360.367 162.344 361.261 162.344H368.309C370.591 162.344 372.44 160.495 372.44 158.213C372.427 153.43 368.555 149.555 363.772 149.539V149.539Z" fill="#CCCCCC"/>
<path fill-rule="evenodd" clip-rule="evenodd" d="M363.772 149.539H361.261C360.367 149.539 359.641 150.264 359.641 151.159V160.724C359.641 161.619 360.367 162.344 361.261 162.344H368.309C370.591 162.344 372.44 160.495 372.44 158.213C372.427 153.43 368.555 149.555 363.772 149.539V149.539Z" stroke="black" stroke-width="0.61"/>
<path d="M365.559 165.841V162.529" stroke="black" stroke-width="0.61"/>
<path d="M183.553 195.772C183.553 195.563 188.874 192.58 188.874 192.58C188.874 192.58 196.215 204.727 196.992 204.727H187.32C187.32 204.727 183.38 197.165 183.553 195.772Z" fill="black"/>
<path d="M355.69 171.873C355.69 171.873 353.598 172.118 352.623 172.8C352.241 173.069 352.862 173.218 352.862 173.218L354.656 181.91L355.074 175.011L355.69 171.873Z" fill="black"/>
<path d="M346.579 184.803C346.579 184.803 346.908 194.84 347.59 197.177C348.271 199.515 354.506 204.727 354.506 204.727H347.01C347.01 204.727 345.013 205.6 345.3 204.046C345.587 202.492 344.649 185.717 346.579 184.803V184.803Z" fill="black"/>
<path d="M325.627 183.512C325.627 183.512 327.534 188.851 329.405 190.507C329.405 190.507 329.136 204.627 328.944 204.256C328.753 203.885 323.002 191.308 322.907 189.652C322.811 187.996 323.57 181.976 325.627 183.512Z" fill="black"/>
<path d="M196.543 187.2C196.543 187.2 191.534 194.242 190.273 198.331C189.011 202.42 184.36 202.289 184.36 202.289L184.629 197.614C184.629 197.614 186.136 194.135 187.505 193.358C188.874 192.58 196.543 187.2 196.543 187.2Z" fill="black"/>
<path d="M307.155 113.037H301.703V118.489H307.155V113.037Z" fill="black"/>
<path d="M304.429 115.763V102.295H315.817" stroke="black" stroke-width="0.61"/>
<path d="M216.241 118.489H221.693V113.037H216.241V118.489Z" fill="black"/>
<path d="M218.967 115.763V102.295H207.585" stroke="black" stroke-width="0.61"/>
<path d="M170.611 185.413C170.297 185.579 169.954 185.685 169.601 185.724C169.439 185.733 169.278 185.733 169.116 185.724H168.883C168.847 185.724 168.841 185.724 168.883 185.724H168.818L168.692 185.766C168.534 185.808 168.371 185.715 168.327 185.557C168.285 185.397 168.378 185.233 168.537 185.186C168.859 185.105 169.192 185.075 169.523 185.097H169.637H169.702L169.929 185.043C170.068 185.004 170.203 184.949 170.33 184.881C170.422 184.814 170.545 184.806 170.646 184.859C170.746 184.912 170.808 185.018 170.805 185.132C170.801 185.246 170.733 185.349 170.629 185.395L170.611 185.413Z" fill="black"/>
<path d="M329.656 187.099L329.524 194.542C329.549 196.94 329.401 199.338 329.082 201.715C329.016 202.092 328.442 201.93 328.484 201.554C328.798 199.176 328.94 196.778 328.908 194.38L329.04 187.087C329.04 186.922 329.174 186.788 329.339 186.788C329.504 186.788 329.638 186.922 329.638 187.087L329.656 187.099Z" fill="black"/>
<path d="M350.674 168.28C349.855 168.52 349.209 169.152 348.953 169.966C348.589 170.829 348.564 171.798 348.881 172.68C349.249 173.343 349.801 173.885 350.471 174.24C351.17 174.798 352.081 175.017 352.958 174.838C353.054 174.808 353.089 174.951 353 174.981C352.107 175.184 351.171 174.983 350.441 174.431C349.573 174.058 348.907 173.331 348.61 172.434C348.314 171.536 348.417 170.555 348.893 169.739C349.199 168.971 349.844 168.388 350.638 168.16C350.677 168.157 350.712 168.182 350.721 168.22C350.73 168.257 350.71 168.295 350.674 168.31V168.28Z" fill="black"/>
<path d="M348.737 163.199C347.651 163.596 346.451 163.544 345.402 163.055C344.543 162.617 343.986 161.752 343.943 160.79C343.943 160.694 344.087 160.694 344.093 160.79C344.14 161.724 344.695 162.557 345.539 162.96C346.542 163.394 347.674 163.428 348.702 163.055C348.791 163.025 348.833 163.169 348.737 163.199Z" fill="black"/>
<path d="M340.213 170.229C341.731 170.277 342.939 171.831 342.999 173.278C343.058 174.826 341.719 176.177 340.488 176.918C339.234 177.767 337.601 177.811 336.303 177.032C335.097 176.189 334.684 174.594 335.329 173.272C335.726 172.385 336.304 171.59 337.027 170.94C337.604 170.302 338.481 170.023 339.322 170.211C339.412 170.211 339.376 170.384 339.28 170.355C337.744 169.918 336.411 171.622 335.735 172.788C335.012 174.043 334.898 175.699 336.106 176.703C337.183 177.536 338.643 177.677 339.86 177.068C341.183 176.503 342.219 175.424 342.73 174.079C343.184 172.495 341.899 170.438 340.189 170.384C340.156 170.375 340.133 170.344 340.133 170.31C340.133 170.275 340.156 170.245 340.189 170.235L340.213 170.229Z" fill="black"/>
<path d="M327.904 176.04C328.728 176.578 329.43 177.283 329.967 178.108C330.409 178.949 330.499 179.932 330.218 180.84C329.976 181.68 329.504 182.436 328.855 183.022C328.535 183.317 328.175 183.565 327.785 183.757C327.27 184.008 326.697 184.104 326.2 184.391C326.123 184.439 326.045 184.307 326.129 184.259C326.533 184.063 326.953 183.899 327.384 183.769C327.803 183.606 328.195 183.378 328.544 183.094C329.218 182.548 329.723 181.822 330.002 181.001C330.342 180.078 330.279 179.055 329.829 178.18C329.302 177.381 328.619 176.698 327.82 176.171C327.743 176.111 327.82 175.98 327.892 176.04H327.904Z" fill="black"/>
<path d="M345.264 187.158C344.14 186.65 342.777 187.391 341.952 188.151C341.111 188.874 340.712 189.986 340.9 191.08C341.259 193.023 343.734 195.689 345.856 194.463C345.878 194.45 345.906 194.451 345.928 194.464C345.951 194.477 345.964 194.501 345.964 194.526C345.964 194.552 345.95 194.576 345.928 194.589C344.134 195.629 342.114 193.949 341.253 192.443C340.764 191.646 340.595 190.693 340.781 189.777C341.022 188.916 341.563 188.17 342.305 187.672C343.154 187.074 344.314 186.56 345.342 187.027C345.426 187.068 345.342 187.2 345.264 187.158Z" fill="black"/>
<path d="M332.651 189.956C334.191 189.913 335.587 190.859 336.118 192.306C336.441 192.993 336.576 193.755 336.506 194.512C336.367 195.229 335.934 195.856 335.311 196.239C334.115 197.154 332.477 197.997 330.977 197.273C329.715 196.676 329.261 195.121 329.249 193.818C329.175 192.239 329.867 190.721 331.108 189.741C331.186 189.687 331.264 189.819 331.186 189.873C330.143 190.676 329.501 191.894 329.429 193.208C329.315 194.404 329.53 195.851 330.451 196.723C331.61 197.823 333.314 197.381 334.522 196.61C335.177 196.269 335.733 195.765 336.136 195.145C336.429 194.416 336.429 193.602 336.136 192.874C335.652 191.325 334.342 189.956 332.621 190.106C332.525 190.106 332.525 189.968 332.621 189.956H332.651Z" fill="black"/>
<path d="M345.659 202.152C345.109 201.804 344.467 201.631 343.818 201.655C343.167 201.604 342.513 201.646 341.875 201.781C341.229 201.992 340.68 202.427 340.326 203.006C339.926 203.568 339.567 204.16 339.191 204.74C339.137 204.818 339.011 204.74 339.065 204.662C339.483 204.011 339.878 203.329 340.35 202.713C340.713 202.201 341.234 201.823 341.833 201.637C342.5 201.494 343.185 201.452 343.865 201.512C344.525 201.489 345.176 201.668 345.73 202.026C345.808 202.08 345.73 202.211 345.659 202.152Z" fill="black"/>
<path d="M332.095 204.471C331.651 203.743 331.019 203.148 330.265 202.749C330.182 202.707 330.265 202.576 330.343 202.624C331.12 203.04 331.769 203.66 332.22 204.417C332.242 204.452 332.231 204.497 332.196 204.519C332.162 204.54 332.116 204.529 332.095 204.495V204.471Z" fill="black"/>
<path d="M322.62 196.95C323.6 198.247 324.335 199.873 323.917 201.529C323.608 202.954 322.283 203.922 320.832 203.783C320.737 203.783 320.778 203.628 320.868 203.64C322.398 203.855 323.606 202.587 323.857 201.165C324.102 199.646 323.403 198.176 322.512 197.028C322.452 196.95 322.584 196.872 322.638 196.95H322.62Z" fill="black"/>
<path d="M354.68 187.009C352.364 187.522 350.775 189.654 350.943 192.019C351.062 193.187 351.597 194.273 352.45 195.079C353.43 196 354.763 196.329 356.037 196.628C356.132 196.628 356.09 196.795 355.995 196.777C354.886 196.58 353.826 196.174 352.868 195.582C352.111 195.047 351.52 194.309 351.164 193.453C350.446 191.758 350.764 189.8 351.983 188.42C352.677 187.624 353.607 187.071 354.638 186.842C354.733 186.842 354.775 186.967 354.68 186.985V187.009Z" fill="black"/>
<path d="M355.451 204.453C355.104 203.018 354.351 201.512 352.862 200.992C351.374 200.472 349.873 201.285 348.761 202.247C348.69 202.307 348.582 202.205 348.66 202.139C349.789 201.141 351.374 200.346 352.904 200.848C354.434 201.35 355.235 202.923 355.6 204.435C355.6 204.531 355.475 204.573 355.451 204.477V204.453Z" fill="black"/>
<path d="M155.008 184.743C155.169 184.928 155.269 185.158 155.295 185.401C155.293 185.608 155.165 185.792 154.973 185.867C154.757 185.945 154.584 185.79 154.494 185.598C154.368 185.373 154.316 185.114 154.345 184.857C154.382 184.621 154.579 184.444 154.817 184.433C154.851 184.442 154.874 184.473 154.874 184.507C154.874 184.542 154.851 184.573 154.817 184.582C154.658 184.59 154.524 184.706 154.494 184.863C154.455 185.067 154.487 185.278 154.584 185.461C154.638 185.592 154.728 185.802 154.901 185.754C155.046 185.709 155.145 185.576 155.146 185.425C155.122 185.202 155.028 184.993 154.877 184.827C154.823 184.749 154.949 184.678 155.008 184.755V184.743Z" fill="black"/>
<path d="M151.631 181.486C151.791 181.67 151.892 181.9 151.918 182.143C151.916 182.349 151.787 182.532 151.595 182.604C151.38 182.687 151.206 182.532 151.117 182.341C150.992 182.115 150.937 181.856 150.961 181.599C151.004 181.364 151.201 181.187 151.439 181.169C151.535 181.169 151.535 181.324 151.439 181.318C151.28 181.331 151.148 181.448 151.117 181.605C151.078 181.809 151.11 182.02 151.206 182.203C151.26 182.335 151.35 182.544 151.523 182.496C151.668 182.452 151.767 182.319 151.768 182.167C151.744 181.945 151.65 181.735 151.499 181.569C151.445 181.492 151.571 181.42 151.631 181.498V181.486Z" fill="black"/>
<path d="M148.253 178.227C148.414 178.412 148.514 178.641 148.54 178.885C148.538 179.09 148.41 179.273 148.217 179.345C148.002 179.429 147.829 179.267 147.739 179.082C147.611 178.857 147.557 178.598 147.584 178.341C147.625 178.104 147.822 177.926 148.062 177.91C148.095 177.92 148.118 177.95 148.118 177.985C148.118 178.02 148.095 178.05 148.062 178.06C147.902 178.072 147.771 178.19 147.739 178.347C147.7 178.55 147.732 178.761 147.829 178.944C147.883 179.076 147.972 179.279 148.146 179.237C148.29 179.193 148.39 179.06 148.391 178.908C148.367 178.686 148.272 178.476 148.122 178.311C148.068 178.233 148.193 178.161 148.253 178.239V178.227Z" fill="black"/>
<path d="M303.675 105.302H218.967" stroke="black" stroke-width="0.61"/>
<path d="M303.675 110.903H218.967" stroke="black" stroke-width="0.61"/>
<path d="M262.044 220.223V323.821" stroke="black" stroke-width="0.61"/>
<rect width="26.9727" height="26.9727" rx="13.4864" transform="matrix(-1 0 0 1 451.924 189.831)" fill="#9FF3DD"/>
<path d="M330.606 244.356L313.91 261.692C313.573 262.044 313.075 262.192 312.6 262.08C312.126 261.968 311.746 261.614 311.602 261.148L304.703 238.975C304.558 238.511 304.669 238.003 304.996 237.642C305.323 237.281 305.817 237.119 306.294 237.218L329.895 242.066C330.381 242.17 330.773 242.528 330.92 243.003C331.068 243.477 330.948 243.995 330.606 244.356Z" fill="#7F61CD"/>
<path d="M396.46 104.608H343.094C343.061 104.598 343.038 104.568 343.038 104.533C343.038 104.499 343.061 104.468 343.094 104.459H396.46C396.493 104.468 396.516 104.499 396.516 104.533C396.516 104.568 396.493 104.598 396.46 104.608Z" fill="black"/>
<path d="M185.341 99.9332H164.896C164.864 99.9423 164.83 99.9303 164.811 99.9034C164.792 99.8765 164.792 99.8405 164.811 99.8135C164.83 99.7866 164.864 99.7747 164.896 99.7837H185.341C185.374 99.7933 185.397 99.8238 185.397 99.8585C185.397 99.8932 185.374 99.9237 185.341 99.9332Z" fill="black"/>
<path d="M278.245 262.942H156.126C156.093 262.932 156.07 262.902 156.07 262.867C156.07 262.833 156.093 262.802 156.126 262.793H278.245C278.278 262.802 278.301 262.833 278.301 262.867C278.301 262.902 278.278 262.932 278.245 262.942Z" fill="black"/>
<path d="M296.352 286.316H220.432C220.4 286.325 220.366 286.313 220.347 286.286C220.328 286.259 220.328 286.223 220.347 286.196C220.366 286.169 220.4 286.157 220.432 286.167H296.352C296.384 286.157 296.418 286.169 296.437 286.196C296.456 286.223 296.456 286.259 296.437 286.286C296.418 286.313 296.384 286.325 296.352 286.316Z" fill="black"/>
<path d="M464.627 241.325H417.299C417.266 241.315 417.243 241.285 417.243 241.25C417.243 241.215 417.266 241.185 417.299 241.175H464.627C464.66 241.185 464.683 241.215 464.683 241.25C464.683 241.285 464.66 241.315 464.627 241.325Z" fill="black"/>
<path d="M179.488 178.347C179.488 178.347 176.643 180.35 173.917 179.967C171.191 179.584 156.126 168.202 156.126 168.202C155.874 167.934 155.523 167.782 155.155 167.782C154.787 167.782 154.435 167.934 154.183 168.202C153.414 169.143 152.789 170.192 152.33 171.317" stroke="black" stroke-width="0.61"/>
<path d="M143.429 162.086C145.476 162.66 147.435 163.511 149.252 164.615C150.92 165.552 152.462 166.697 153.843 168.023C154.118 168.292 153.693 168.716 153.418 168.441C152.073 167.156 150.573 166.044 148.953 165.129C147.179 164.051 145.266 163.22 143.268 162.66C143.161 162.631 143.078 162.548 143.049 162.441C143.021 162.334 143.051 162.22 143.13 162.142C143.208 162.064 143.322 162.034 143.429 162.062V162.086Z" fill="black"/>
<path d="M149.186 167.73C148.583 167.626 147.963 167.688 147.392 167.909C147.094 168.011 146.795 168.124 146.514 168.25C146.346 168.316 146.053 168.411 145.976 168.597L145.432 168.369L145.462 168.31C145.544 168.166 145.727 168.116 145.871 168.199C146.015 168.282 146.064 168.465 145.982 168.609L145.946 168.668C145.784 168.955 145.264 168.758 145.402 168.441C145.526 168.15 145.76 167.92 146.053 167.801C146.394 167.64 146.753 167.503 147.106 167.377C147.819 167.093 148.598 167.016 149.353 167.156C149.73 167.24 149.568 167.819 149.198 167.754L149.186 167.73Z" fill="black"/>
<path d="M145.814 165.703C145.73 165.75 145.65 165.804 145.575 165.865L145.635 165.817C145.489 165.929 145.359 166.06 145.246 166.205L145.288 166.145C145.192 166.277 145.108 166.417 145.037 166.564C145 166.631 144.938 166.681 144.864 166.701C144.785 166.722 144.702 166.711 144.631 166.672C144.563 166.632 144.514 166.568 144.493 166.492C144.466 166.419 144.466 166.338 144.493 166.265C144.703 165.811 145.05 165.435 145.485 165.189C145.578 165.122 145.7 165.113 145.801 165.167C145.902 165.22 145.963 165.326 145.96 165.44C145.956 165.554 145.888 165.656 145.784 165.703H145.814Z" fill="black"/>
</svg>
