<svg width="63" height="15" viewBox="0 0 63 15" fill="none" xmlns="http://www.w3.org/2000/svg">
<path d="M62 11.901C58.8557 12.1064 52.3155 12.2707 51.3093 11.2848C50.3927 10.3868 45.928 10.1023 43.2384 10.0587C42.8016 10.0516 42.4186 9.77026 42.2756 9.35745C40.5291 4.31531 36.3612 -2.6778 31.443 3.29818C30.991 3.84747 30.097 3.87124 29.5736 3.38937C26.8025 0.837819 21.2617 -0.695292 20.7524 5.71984V6.5523C20.7524 7.41857 19.6556 7.94604 18.8594 7.60483C15.0204 5.95972 9.95389 7.55124 12.3736 12.0321C12.7972 12.8164 12.2581 13.8968 11.3688 13.8365L0.999997 13.1335" stroke="#181A1D" stroke-linejoin="round"/>
</svg>
