<svg width="254" height="180" viewBox="0 0 254 180" fill="none" xmlns="http://www.w3.org/2000/svg">
<path d="M149.513 49.164H111.557C111.445 49.164 111.337 49.1194 111.257 49.0401C111.178 48.9607 111.133 48.853 111.133 48.7407C111.133 48.6284 111.178 48.5208 111.257 48.4414C111.337 48.362 111.445 48.3174 111.557 48.3174H149.513C149.625 48.3174 149.733 48.362 149.812 48.4414C149.892 48.5208 149.936 48.6284 149.936 48.7407C149.936 48.853 149.892 48.9607 149.812 49.0401C149.733 49.1194 149.625 49.164 149.513 49.164Z" fill="#3F3F3F"/>
<path d="M104.14 49.164H92.2867C92.1744 49.164 92.0667 49.1194 91.9873 49.0401C91.9079 48.9607 91.8633 48.853 91.8633 48.7407C91.8633 48.6284 91.9079 48.5208 91.9873 48.4414C92.0667 48.362 92.1744 48.3174 92.2867 48.3174H104.14C104.252 48.3174 104.36 48.362 104.439 48.4414C104.519 48.5208 104.563 48.6284 104.563 48.7407C104.563 48.853 104.519 48.9607 104.439 49.0401C104.36 49.1194 104.252 49.164 104.14 49.164Z" fill="#3F3F3F"/>
<path d="M109.33 49.164H106.375C106.263 49.164 106.155 49.1194 106.076 49.0401C105.996 48.9607 105.952 48.853 105.952 48.7407C105.954 48.6291 105.999 48.5227 106.078 48.4438C106.157 48.3648 106.264 48.3196 106.375 48.3174H109.33C109.442 48.3196 109.548 48.3648 109.627 48.4438C109.706 48.5227 109.751 48.6291 109.753 48.7407C109.753 48.853 109.709 48.9607 109.629 49.0401C109.55 49.1194 109.442 49.164 109.33 49.164Z" fill="#3F3F3F"/>
<path d="M76.2 78.3066H38.227C38.1147 78.3066 38.007 78.262 37.9276 78.1826C37.8483 78.1032 37.8036 77.9956 37.8036 77.8833C37.8036 77.771 37.8483 77.6633 37.9276 77.584C38.007 77.5046 38.1147 77.46 38.227 77.46H76.2C76.3123 77.46 76.4199 77.5046 76.4993 77.584C76.5787 77.6633 76.6233 77.771 76.6233 77.8833C76.6233 77.9956 76.5787 78.1032 76.4993 78.1826C76.4199 78.262 76.3123 78.3066 76.2 78.3066Z" fill="#3F3F3F"/>
<path d="M30.8271 78.3066H19.0161C18.9038 78.3066 18.7962 78.262 18.7168 78.1826C18.6374 78.1032 18.5928 77.9956 18.5928 77.8833C18.5928 77.771 18.6374 77.6633 18.7168 77.584C18.7962 77.5046 18.9038 77.46 19.0161 77.46H30.8271C30.9394 77.46 31.0471 77.5046 31.1264 77.584C31.2058 77.6633 31.2504 77.771 31.2504 77.8833C31.2504 77.9956 31.2058 78.1032 31.1264 78.1826C31.0471 78.262 30.9394 78.3066 30.8271 78.3066Z" fill="#3F3F3F"/>
<path d="M36.0003 78.3066H33.02C32.9077 78.3066 32.8001 78.262 32.7207 78.1826C32.6413 78.1032 32.5967 77.9956 32.5967 77.8833C32.5967 77.771 32.6413 77.6633 32.7207 77.584C32.8001 77.5046 32.9077 77.46 33.02 77.46H35.9664C36.0787 77.46 36.1864 77.5046 36.2658 77.584C36.3451 77.6633 36.3897 77.771 36.3897 77.8833C36.3897 77.9956 36.3451 78.1032 36.2658 78.1826C36.1864 78.262 36.0787 78.3066 35.9664 78.3066H36.0003Z" fill="#3F3F3F"/>
<path d="M227.525 60.1709H191.965C191.853 60.1687 191.747 60.1234 191.668 60.0445C191.589 59.9656 191.544 59.8591 191.541 59.7476C191.541 59.6353 191.586 59.5276 191.665 59.4482C191.745 59.3688 191.852 59.3242 191.965 59.3242H227.525C227.637 59.3242 227.745 59.3688 227.824 59.4482C227.903 59.5276 227.948 59.6353 227.948 59.7476C227.948 59.8598 227.903 59.9675 227.824 60.0469C227.745 60.1263 227.637 60.1709 227.525 60.1709Z" fill="#3F3F3F"/>
<path d="M184.573 60.1709H172.83C172.718 60.1709 172.61 60.1263 172.531 60.0469C172.451 59.9675 172.407 59.8598 172.407 59.7476C172.407 59.6353 172.451 59.5276 172.531 59.4482C172.61 59.3688 172.718 59.3242 172.83 59.3242H184.573C184.686 59.3242 184.793 59.3688 184.873 59.4482C184.952 59.5276 184.997 59.6353 184.997 59.7476C184.997 59.8598 184.952 59.9675 184.873 60.0469C184.793 60.1263 184.686 60.1709 184.573 60.1709Z" fill="#3F3F3F"/>
<path d="M189.738 60.1709H186.792C186.679 60.1709 186.572 60.1263 186.492 60.0469C186.413 59.9675 186.368 59.8598 186.368 59.7476C186.368 59.6353 186.413 59.5276 186.492 59.4482C186.572 59.3688 186.679 59.3242 186.792 59.3242H189.738C189.85 59.3242 189.958 59.3688 190.037 59.4482C190.117 59.5276 190.161 59.6353 190.161 59.7476C190.161 59.8598 190.117 59.9675 190.037 60.0469C189.958 60.1263 189.85 60.1709 189.738 60.1709Z" fill="#3F3F3F"/>
<path d="M129.887 120.259L125.163 115.179L123.69 121.622C123.69 121.622 119.609 121.208 114.376 117.304C111.244 114.915 109.044 111.507 108.153 107.669L109.508 107.271C113.741 117.584 122.453 118.964 122.453 118.964L124.147 111.344L129.65 117.719C129.65 117.719 130.497 117.093 131.961 114.333C132.579 113.082 132.92 111.713 132.961 110.319C133.271 113.907 132.168 117.473 129.887 120.259Z" fill="#E6E2EE"/>
<path d="M190.906 159.129C181.906 166.809 161.273 151.569 156.235 147.632L154.178 128.751C154.178 128.751 167.835 150.392 182.118 153.575C196.401 156.759 196.096 142.873 196.808 132.341C198.222 141.908 198.416 152.737 190.906 159.129Z" fill="#E6E2EE"/>
<path d="M100.228 154.456C98.2133 163.134 93.0656 178.036 82.1266 176.275C72.0598 174.649 64.2366 162.635 62.1114 147.107C59.9863 131.579 60.8584 127.735 57.8781 122.731C58.0898 122.833 61.5442 124.628 63.373 133.637C65.261 142.95 70.1463 165.505 80.2216 170.17C81.915 170.949 86.995 170.34 88.1803 165.996C90.2292 158.757 86.3261 150.68 86.3261 150.68L96.0966 152.83L95.0298 140.554L100.228 154.456Z" fill="#E6E2EE"/>
<path d="M94.9283 139.597C94.9283 139.597 108.56 171.77 131.716 177.908H98.0863L94.9283 139.597Z" fill="#E6E2EE"/>
<path d="M127.042 99.4477C124.155 99.4477 121.649 98.0253 120.896 96.6453C120.869 96.5963 120.852 96.5427 120.846 96.4872C120.84 96.4318 120.845 96.3758 120.861 96.3223C120.877 96.2689 120.903 96.219 120.938 96.1757C120.973 96.1323 121.016 96.0962 121.065 96.0695C121.114 96.0429 121.167 96.0261 121.223 96.0201C121.278 96.0142 121.334 96.0192 121.388 96.035C121.441 96.0507 121.491 96.0768 121.534 96.1118C121.578 96.1468 121.614 96.19 121.641 96.2389C122.267 97.3819 124.579 98.6011 127.042 98.6011C129.007 98.6011 131.741 97.8645 133.629 94.3677C136.83 88.4411 134.417 77.0619 134.391 76.9433C134.38 76.8877 134.379 76.8304 134.39 76.7746C134.4 76.7187 134.421 76.6655 134.453 76.618C134.484 76.5704 134.524 76.5294 134.571 76.4974C134.617 76.4653 134.67 76.4428 134.726 76.4311C134.781 76.4194 134.839 76.4188 134.895 76.4293C134.95 76.4398 135.004 76.4612 135.051 76.4922C135.099 76.5233 135.14 76.5634 135.172 76.6103C135.204 76.6572 135.226 76.7099 135.238 76.7655C135.348 77.2481 137.778 88.6189 134.391 94.7657C133.73 96.1489 132.694 97.3187 131.401 98.142C130.108 98.9653 128.609 99.4089 127.076 99.4223L127.042 99.4477Z" fill="#2C0F6B"/>
<path d="M128.024 90.6506C127.969 90.6545 127.913 90.6474 127.86 90.6297C127.807 90.612 127.758 90.5841 127.716 90.5475C127.631 90.4737 127.579 90.3691 127.571 90.2569C127.564 90.1446 127.601 90.0338 127.675 89.9488C127.748 89.8639 127.853 89.8118 127.965 89.8039C128.236 89.7616 128.295 89.6684 128.321 89.6346C128.524 89.3298 128.321 88.4577 128.084 87.6957L127.931 87.1115C127.696 86.1116 127.534 85.0957 127.449 84.072C127.442 83.9579 127.479 83.8455 127.553 83.7586C127.628 83.6717 127.733 83.6171 127.847 83.6063C127.96 83.5993 128.071 83.6371 128.157 83.7116C128.242 83.786 128.295 83.8911 128.304 84.0042C128.383 84.9795 128.536 85.9474 128.761 86.8998L128.913 87.4671C129.201 88.5424 129.447 89.4652 129.032 90.0918C128.925 90.2459 128.785 90.3744 128.623 90.4681C128.46 90.5618 128.279 90.6183 128.092 90.6336L128.024 90.6506Z" fill="#2C0F6B"/>
<path d="M120.675 81.9129C120.598 81.9146 120.521 81.894 120.455 81.8537C120.408 81.8258 120.366 81.7886 120.333 81.7444C120.299 81.7001 120.275 81.6497 120.262 81.5961C120.249 81.5425 120.246 81.4867 120.255 81.432C120.263 81.3774 120.282 81.325 120.311 81.2779C120.714 80.5467 121.349 79.9707 122.115 79.641C122.882 79.3113 123.737 79.2467 124.545 79.4576C124.598 79.4732 124.648 79.4991 124.691 79.5339C124.734 79.5687 124.771 79.6117 124.797 79.6604C124.824 79.7092 124.841 79.7627 124.847 79.818C124.853 79.8732 124.848 79.9292 124.833 79.9825C124.817 80.0368 124.791 80.0875 124.755 80.1315C124.72 80.1756 124.676 80.2121 124.626 80.2389C124.577 80.2657 124.522 80.2823 124.466 80.2877C124.41 80.2931 124.353 80.2872 124.299 80.2704C123.672 80.112 123.01 80.1676 122.418 80.4284C121.826 80.6891 121.338 81.1401 121.031 81.7097C120.994 81.7709 120.942 81.8217 120.879 81.8572C120.817 81.8927 120.747 81.9119 120.675 81.9129Z" fill="#2C0F6B"/>
<path d="M133.392 80.9148C133.329 80.9151 133.266 80.9008 133.208 80.8729C133.151 80.845 133.101 80.8043 133.062 80.7539C132.77 80.3509 132.358 80.0514 131.884 79.8992C131.411 79.7469 130.901 79.7497 130.429 79.9072C130.376 79.9322 130.319 79.9461 130.261 79.948C130.203 79.9499 130.145 79.9397 130.091 79.9182C130.037 79.8966 129.988 79.8642 129.947 79.8228C129.906 79.7814 129.874 79.732 129.853 79.6777C129.831 79.6234 129.822 79.5653 129.824 79.5071C129.827 79.4489 129.841 79.3919 129.867 79.3395C129.892 79.2872 129.928 79.2406 129.973 79.2028C130.017 79.165 130.068 79.1368 130.124 79.1198C130.77 78.8905 131.473 78.8736 132.129 79.0716C132.786 79.2696 133.362 79.6722 133.773 80.2205C133.842 80.3093 133.872 80.4215 133.858 80.5326C133.843 80.6437 133.786 80.7446 133.697 80.8132C133.657 80.8513 133.609 80.8801 133.556 80.8977C133.503 80.9152 133.447 80.9211 133.392 80.9148Z" fill="#2C0F6B"/>
<path d="M123.249 86.3158C123.14 86.3159 123.035 86.2736 122.956 86.1978C122.877 86.1221 122.83 86.0187 122.826 85.9094L122.724 83.1493C122.722 83.0937 122.731 83.0381 122.75 82.9859C122.769 82.9337 122.799 82.8857 122.836 82.8449C122.874 82.804 122.919 82.7709 122.97 82.7476C123.021 82.7243 123.075 82.7112 123.131 82.709C123.24 82.7109 123.344 82.7539 123.422 82.8292C123.501 82.9046 123.548 83.0068 123.554 83.1154L123.656 85.8755C123.658 85.9318 123.649 85.988 123.629 86.0408C123.61 86.0935 123.579 86.1419 123.541 86.1829C123.502 86.2239 123.456 86.2567 123.404 86.2796C123.353 86.3024 123.297 86.3147 123.241 86.3158H123.249Z" fill="#2C0F6B"/>
<path d="M131.36 85.5374C131.251 85.5375 131.146 85.4952 131.067 85.4195C130.988 85.3437 130.941 85.2403 130.937 85.131L130.835 82.5148C130.833 82.4592 130.842 82.4037 130.861 82.3515C130.88 82.2992 130.91 82.2513 130.947 82.2104C130.985 82.1695 131.031 82.1365 131.081 82.1132C131.132 82.0898 131.186 82.0767 131.242 82.0745C131.298 82.0685 131.355 82.0746 131.409 82.0924C131.463 82.1102 131.513 82.1393 131.554 82.1778C131.596 82.2163 131.629 82.2632 131.651 82.3155C131.673 82.3678 131.684 82.4242 131.682 82.4809L131.784 85.0971C131.786 85.1534 131.777 85.2096 131.757 85.2624C131.738 85.3152 131.707 85.3635 131.669 85.4045C131.63 85.4455 131.584 85.4784 131.532 85.5012C131.481 85.524 131.425 85.5363 131.369 85.5374H131.36Z" fill="#2C0F6B"/>
<path d="M127.237 93.7668C126.577 93.7708 125.927 93.6007 125.353 93.2737C124.78 92.9467 124.302 92.4743 123.969 91.9042C123.935 91.8575 123.912 91.8045 123.899 91.7484C123.887 91.6923 123.886 91.6343 123.897 91.5778C123.907 91.5213 123.929 91.4676 123.962 91.42C123.994 91.3723 124.035 91.3317 124.084 91.3006C124.132 91.2696 124.186 91.2486 124.243 91.2392C124.299 91.2297 124.357 91.2319 124.413 91.2456C124.469 91.2593 124.522 91.2842 124.567 91.3188C124.613 91.3534 124.652 91.397 124.68 91.447C125.016 92.0374 125.547 92.4923 126.182 92.7334C126.818 92.9745 127.517 92.9866 128.16 92.7678C128.265 92.7297 128.382 92.735 128.483 92.7826C128.585 92.8302 128.664 92.9163 128.702 93.0218C128.722 93.0734 128.732 93.1286 128.73 93.184C128.729 93.2395 128.716 93.294 128.694 93.3446C128.671 93.3951 128.638 93.4405 128.597 93.4781C128.556 93.5158 128.508 93.5448 128.456 93.5636C128.064 93.6994 127.652 93.7681 127.237 93.7668Z" fill="#2C0F6B"/>
<path d="M115.629 99.185C112.598 101.522 108.289 100.701 105.723 99.185C104.332 98.3832 103.23 97.1623 102.574 95.6968C110.769 96.7212 105.825 82.8613 110.058 74.3608C112.183 70.1274 116.332 66.4021 123.385 66.546C137.228 66.8424 135.526 78.6872 135.526 78.6872C130.895 78.3565 126.518 76.4433 123.131 73.2686C123.131 73.2686 114.943 76.5875 115.147 85.2997C115.435 94.6808 115.629 99.185 115.629 99.185Z" fill="#2C0F6B"/>
<path d="M128.998 106.696C128.889 106.696 128.784 106.654 128.705 106.578C128.626 106.502 128.579 106.399 128.575 106.289L128.329 99.025C128.328 98.9694 128.338 98.9141 128.358 98.8623C128.378 98.8105 128.409 98.7632 128.447 98.7231C128.486 98.683 128.532 98.6509 128.583 98.6286C128.634 98.6063 128.689 98.5943 128.744 98.5932C128.8 98.587 128.857 98.593 128.91 98.6109C128.964 98.6288 129.013 98.658 129.054 98.6967C129.095 98.7353 129.127 98.7824 129.148 98.8347C129.169 98.887 129.179 98.9433 129.176 98.9996L129.421 106.256C129.424 106.311 129.415 106.367 129.396 106.419C129.377 106.471 129.347 106.519 129.31 106.56C129.272 106.601 129.226 106.634 129.176 106.657C129.125 106.68 129.071 106.694 129.015 106.696H128.998Z" fill="#2C0F6B"/>
<path d="M181.102 134.407C180.996 134.408 180.893 134.368 180.814 134.297L159.783 115.162C155.666 111.33 150.807 108.381 145.507 106.499C140.206 104.616 134.577 103.839 128.964 104.215C128.852 104.229 128.739 104.199 128.649 104.13C128.559 104.061 128.501 103.959 128.486 103.847C128.471 103.734 128.502 103.621 128.571 103.531C128.64 103.441 128.742 103.383 128.854 103.368C134.587 102.983 140.339 103.773 145.756 105.689C151.173 107.605 156.142 110.607 160.359 114.51L181.381 133.645C181.444 133.702 181.489 133.777 181.508 133.86C181.528 133.942 181.523 134.029 181.493 134.108C181.462 134.188 181.409 134.256 181.339 134.305C181.27 134.354 181.187 134.38 181.102 134.382V134.407Z" fill="#2C0F6B"/>
<path d="M83.2527 144.211H83.1935C83.138 144.205 83.0844 144.188 83.0358 144.16C82.9871 144.133 82.9446 144.096 82.9106 144.051C82.8766 144.007 82.8519 143.957 82.8379 143.902C82.824 143.848 82.8211 143.792 82.8294 143.737C82.9395 142.89 85.6319 123.417 93.3281 115.797C101.024 108.177 112.801 105.908 115.011 105.552L114.766 98.7789C114.763 98.7233 114.772 98.6678 114.791 98.6156C114.811 98.5634 114.84 98.5154 114.878 98.4745C114.915 98.4336 114.961 98.4006 115.011 98.3773C115.062 98.354 115.116 98.3408 115.172 98.3387C115.229 98.3352 115.285 98.3434 115.339 98.3627C115.392 98.3819 115.441 98.412 115.482 98.4508C115.523 98.4897 115.556 98.5366 115.579 98.5887C115.601 98.6407 115.612 98.6969 115.612 98.7535L115.875 105.933C115.88 106.039 115.844 106.143 115.774 106.223C115.705 106.304 115.608 106.354 115.502 106.365C115.375 106.365 102.337 108.126 93.9292 116.432C86.4277 123.84 83.693 143.695 83.6676 143.898C83.6431 143.989 83.5891 144.069 83.5139 144.126C83.4388 144.182 83.3469 144.212 83.2527 144.211Z" fill="#2C0F6B"/>
<path d="M112.353 82.8273C112.322 82.8348 112.29 82.8348 112.26 82.8273C112.192 82.8273 105.85 79.5337 107.18 73.9796C108.39 68.9927 113.953 68.3662 113.953 68.3662C113.981 68.3614 114.01 68.3625 114.037 68.3695C114.065 68.3765 114.09 68.3891 114.113 68.4067C114.135 68.4243 114.153 68.4463 114.167 68.4714C114.18 68.4965 114.188 68.5241 114.19 68.5525C114.192 68.5803 114.189 68.6083 114.18 68.6349C114.172 68.6614 114.158 68.686 114.14 68.7073C114.122 68.7285 114.1 68.746 114.075 68.7587C114.05 68.7713 114.023 68.7789 113.995 68.7811C113.944 68.7811 108.712 69.3822 107.569 74.0812C106.307 79.3051 112.353 82.4209 112.412 82.4463C112.438 82.4581 112.461 82.475 112.48 82.496C112.5 82.517 112.515 82.5417 112.524 82.5686C112.534 82.5955 112.537 82.624 112.536 82.6524C112.534 82.6809 112.526 82.7087 112.514 82.7341C112.495 82.7601 112.471 82.7817 112.443 82.7978C112.415 82.8138 112.384 82.8239 112.353 82.8273Z" fill="#74DCB9"/>
<path d="M111.84 85.922C113.569 85.8586 114.909 84.1025 114.831 81.9997C114.754 79.8969 113.29 78.2437 111.561 78.3071C109.832 78.3705 108.493 80.1265 108.57 82.2293C108.647 84.3321 110.111 85.9854 111.84 85.922Z" fill="#74DCB9"/>
<path d="M117.78 91.5228C117.752 91.53 117.723 91.53 117.695 91.5228C111.768 89.1776 111.133 81.964 111.125 81.8962C111.125 81.8401 111.147 81.7863 111.187 81.7466C111.227 81.7069 111.281 81.6846 111.337 81.6846C111.393 81.6846 111.447 81.7069 111.486 81.7466C111.526 81.7863 111.548 81.8401 111.548 81.8962C111.548 81.964 112.183 88.9236 117.856 91.2096C117.9 91.2284 117.937 91.2619 117.96 91.3044C117.983 91.347 117.99 91.396 117.981 91.4434C117.972 91.4908 117.948 91.5338 117.911 91.5652C117.874 91.5966 117.828 91.6145 117.78 91.616V91.5228Z" fill="#74DCB9"/>
<path d="M121.2 92.434C121.605 91.5597 121 90.4197 119.85 89.8876C118.7 89.3554 117.44 89.6327 117.035 90.5069C116.631 91.3812 117.235 92.5212 118.385 93.0533C119.535 93.5855 120.796 93.3082 121.2 92.434Z" fill="#74DCB9"/>
<path d="M98.4081 178.332C98.3028 178.333 98.201 178.294 98.1227 178.224C98.0445 178.153 97.9953 178.056 97.9847 177.951C95.1823 148.513 94.4457 138.81 94.4372 138.717C94.4333 138.661 94.4404 138.605 94.4581 138.552C94.4758 138.5 94.5037 138.451 94.5402 138.409C94.6141 138.324 94.7186 138.272 94.8309 138.264C94.9432 138.256 95.054 138.293 95.1389 138.367C95.2239 138.441 95.276 138.545 95.2839 138.657C95.2839 138.751 96.0289 148.445 98.8314 177.867C98.8409 177.979 98.8065 178.09 98.7353 178.177C98.6642 178.264 98.562 178.319 98.4504 178.332H98.4081Z" fill="#2C0F6B"/>
<path d="M159.36 177.586C159.257 177.587 159.157 177.549 159.08 177.48C159.004 177.411 158.955 177.316 158.945 177.214C158.894 176.748 154.127 131.079 153.348 125.398C153.336 125.287 153.367 125.176 153.435 125.087C153.503 124.999 153.602 124.94 153.712 124.924C153.768 124.915 153.824 124.918 153.878 124.932C153.932 124.946 153.983 124.971 154.027 125.005C154.071 125.039 154.108 125.081 154.136 125.13C154.163 125.179 154.18 125.232 154.187 125.288C154.965 130.977 159.732 176.663 159.783 177.121C159.789 177.176 159.784 177.232 159.768 177.286C159.752 177.34 159.725 177.39 159.69 177.433C159.654 177.476 159.611 177.512 159.561 177.538C159.512 177.565 159.458 177.581 159.402 177.586H159.36Z" fill="#2C0F6B"/>
<path d="M184.446 161.687C174.447 161.687 160.74 151.671 155.973 147.962C155.892 147.891 155.841 147.792 155.83 147.685C155.82 147.577 155.851 147.47 155.917 147.385C155.983 147.3 156.079 147.243 156.185 147.226C156.291 147.209 156.4 147.233 156.489 147.293C160.638 150.545 181.779 166.352 190.627 158.8C198.247 152.339 197.705 141.316 196.401 132.426C196.397 132.398 196.397 132.369 196.401 132.341C196.029 129.801 195.555 127.261 195.131 125.034C194.285 120.335 193.54 116.619 194.022 114.485C195.665 107.161 196.444 98.5338 194.632 96.9505C194.508 96.8409 194.357 96.7666 194.195 96.7353C194.032 96.7041 193.865 96.717 193.709 96.7727C193.23 98.5637 192.893 100.39 192.701 102.234C192.74 102.302 192.795 102.358 192.862 102.398C192.928 102.439 193.004 102.461 193.082 102.462C193.26 102.462 193.497 102.2 193.65 101.556C193.946 100.278 194.361 98.2967 194.361 98.2967L195.207 98.4745C195.207 98.4745 194.784 100.456 194.488 101.751C194.191 103.047 193.548 103.267 193.184 103.301C192.922 103.317 192.661 103.253 192.437 103.117C192.213 102.981 192.036 102.779 191.931 102.539C191.736 102.124 192.075 100.041 192.938 96.3494C192.953 96.2817 192.985 96.219 193.031 96.1671C193.077 96.1152 193.135 96.076 193.201 96.053C193.524 95.9024 193.883 95.8478 194.236 95.8959C194.588 95.9439 194.92 96.0925 195.191 96.324C198.315 99.0587 194.987 114.036 194.843 114.68C194.403 116.644 195.123 120.462 195.961 124.891C196.384 127.134 196.867 129.683 197.248 132.273C198.586 141.384 199.102 152.695 191.194 159.426C189.296 160.977 186.896 161.781 184.446 161.687Z" fill="#2C0F6B"/>
<path d="M190.864 102.885C190.509 102.886 190.168 102.746 189.916 102.496C189.693 102.257 189.535 101.965 189.458 101.648C189.38 101.33 189.387 100.998 189.476 100.684C189.526 100.481 189.603 100.058 189.696 99.4988C190.348 95.5618 190.881 93.3689 191.778 93.0726C192.061 92.9652 192.367 92.9352 192.664 92.9859C192.962 93.0365 193.241 93.1658 193.472 93.3604C194.064 93.9192 194.175 94.9437 193.785 96.383C193.771 96.437 193.747 96.4877 193.713 96.5323C193.68 96.5768 193.638 96.6143 193.59 96.6427C193.542 96.671 193.489 96.6895 193.434 96.6973C193.379 96.705 193.323 96.7018 193.269 96.6878C193.159 96.658 193.065 96.5862 193.008 96.488C192.951 96.3897 192.935 96.2729 192.964 96.1629C193.252 95.0876 193.226 94.2918 192.888 93.97C192.765 93.8856 192.624 93.8329 192.476 93.8166C192.328 93.8004 192.179 93.8211 192.041 93.8769C191.643 94.0886 191.127 96.0359 190.525 99.6427C190.432 100.218 190.356 100.676 190.297 100.887C190.246 101.058 190.24 101.239 190.276 101.414C190.313 101.588 190.393 101.75 190.508 101.886C190.575 101.952 190.658 101.999 190.749 102.021C190.84 102.044 190.935 102.041 191.025 102.013C191.397 101.912 191.872 100.684 192.066 99.6427C192.087 99.5329 192.15 99.4356 192.242 99.3722C192.334 99.3087 192.447 99.2842 192.557 99.304C192.667 99.3246 192.764 99.3878 192.828 99.4798C192.891 99.5718 192.916 99.6851 192.896 99.7951C192.778 100.439 192.303 102.547 191.203 102.826C191.093 102.859 190.979 102.879 190.864 102.885Z" fill="#2C0F6B"/>
<path d="M188.714 102.335C188.332 102.324 187.967 102.18 187.681 101.929C186.834 101.201 187.537 97.069 187.774 96.0022C188.476 92.861 189.281 92.6155 189.543 92.6155C189.781 92.5371 190.033 92.5094 190.282 92.5342C190.532 92.559 190.773 92.6357 190.991 92.7594C191.409 93.0298 191.711 93.4465 191.838 93.9278C191.852 93.9818 191.855 94.0379 191.847 94.0931C191.839 94.1483 191.821 94.2014 191.793 94.2493C191.764 94.2973 191.727 94.3392 191.682 94.3727C191.638 94.4062 191.587 94.4305 191.533 94.4443C191.424 94.4703 191.309 94.453 191.213 94.3962C191.117 94.3393 191.046 94.2473 191.016 94.1395C190.988 94.0035 190.931 93.8751 190.849 93.7631C190.767 93.6511 190.662 93.5582 190.54 93.4907C190.419 93.4232 190.284 93.3827 190.146 93.3719C190.008 93.3611 189.868 93.3804 189.738 93.4283C189.636 93.4283 189.357 93.7331 189.044 94.5882C188.155 96.9928 187.909 100.879 188.197 101.362C188.277 101.438 188.375 101.492 188.481 101.521C188.588 101.549 188.7 101.549 188.807 101.522C188.943 101.477 189.068 101.4 189.171 101.299C189.273 101.198 189.351 101.074 189.399 100.938C189.438 100.833 189.516 100.746 189.617 100.697C189.718 100.648 189.834 100.64 189.941 100.676C190.047 100.714 190.133 100.792 190.182 100.893C190.231 100.995 190.239 101.111 190.204 101.218C190.109 101.483 189.955 101.723 189.752 101.918C189.549 102.113 189.304 102.259 189.035 102.344C188.928 102.353 188.82 102.35 188.714 102.335Z" fill="#2C0F6B"/>
<path d="M185.098 103.368H184.997C184.943 103.354 184.892 103.33 184.847 103.297C184.803 103.263 184.765 103.221 184.737 103.173C184.709 103.125 184.69 103.072 184.682 103.017C184.675 102.962 184.678 102.906 184.692 102.852C185.539 99.5413 185.318 95.2318 185.141 92.0907C185.064 90.8969 185.005 89.8555 185.022 89.1019C185.022 87.4086 185.31 86.5619 185.869 86.1301C186.092 86.0031 186.342 85.9287 186.599 85.9125C186.856 85.8964 187.113 85.9389 187.35 86.037C188.781 86.4942 189.044 92.1076 189.044 94.5036C189.045 94.5588 189.035 94.6137 189.015 94.665C188.994 94.7163 188.964 94.7631 188.925 94.8025C188.887 94.8419 188.841 94.8732 188.79 94.8946C188.739 94.916 188.684 94.927 188.629 94.927C188.517 94.9271 188.41 94.8839 188.329 94.8066C188.249 94.7292 188.201 94.6237 188.197 94.5121C188.138 90.6767 187.613 87.0953 187.079 86.8498C186.546 86.6043 186.428 86.7651 186.343 86.8498C186.258 86.9345 185.886 87.5102 185.852 89.1442C185.852 89.8639 185.894 90.8884 185.962 92.0653C186.148 95.2741 186.402 99.6853 185.496 103.072C185.469 103.157 185.417 103.231 185.345 103.284C185.274 103.338 185.187 103.367 185.098 103.368Z" fill="#2C0F6B"/>
<path d="M178.791 146.869C178.683 146.87 178.58 146.828 178.503 146.754C178.426 146.68 178.38 146.579 178.376 146.472C178.079 141.815 179.739 136.591 181.5 131.071C181.856 129.962 182.211 128.835 182.558 127.684C184.565 121.114 185.539 112.385 183.777 109.845C183.303 109.167 182.812 108.558 182.33 107.974C180.958 106.28 179.79 104.849 180.459 102.97C180.732 102.063 180.942 101.138 181.085 100.201C181.508 97.8305 181.813 96.3573 182.668 96.061C182.852 96.0045 183.048 96.0007 183.233 96.0501C183.419 96.0995 183.587 96.2001 183.718 96.3404C185.285 97.7035 184.269 100.862 183.845 101.979L184.76 102.487C186.072 103.207 187.867 106.297 188.062 106.644C188.09 106.692 188.109 106.745 188.117 106.8C188.125 106.855 188.121 106.911 188.107 106.964C188.093 107.018 188.068 107.068 188.034 107.112C188 107.156 187.958 107.193 187.909 107.22C187.811 107.276 187.695 107.291 187.586 107.263C187.477 107.234 187.383 107.164 187.325 107.068C186.817 106.17 185.293 103.74 184.353 103.224L183.109 102.538C183.015 102.487 182.944 102.404 182.91 102.303C182.875 102.203 182.88 102.093 182.922 101.996C183.38 100.938 184.311 97.9745 183.159 96.9839C183.041 96.8738 182.965 96.8484 182.948 96.8569C182.516 97.0093 182.101 99.1005 181.915 100.345C181.772 101.332 181.551 102.306 181.254 103.258C180.738 104.68 181.678 105.84 182.948 107.44C183.43 108.033 183.938 108.659 184.429 109.362C186.394 112.19 185.386 121.215 183.329 127.93C182.982 129.064 182.618 130.199 182.27 131.316C180.535 136.769 178.884 141.916 179.172 146.412C179.176 146.467 179.17 146.523 179.153 146.576C179.135 146.628 179.108 146.677 179.071 146.719C179.035 146.761 178.991 146.795 178.941 146.819C178.891 146.844 178.837 146.858 178.782 146.861L178.791 146.869Z" fill="#2C0F6B"/>
<path d="M156.159 144.897C156.078 144.898 155.998 144.875 155.931 144.829C155.836 144.769 155.77 144.673 155.746 144.563C155.723 144.454 155.743 144.339 155.804 144.245L169.333 123.324C169.362 123.274 169.4 123.23 169.446 123.196C169.492 123.161 169.544 123.136 169.6 123.123C169.656 123.109 169.714 123.107 169.771 123.116C169.827 123.126 169.882 123.147 169.93 123.178C169.978 123.209 170.02 123.249 170.052 123.297C170.084 123.345 170.106 123.398 170.117 123.455C170.128 123.511 170.127 123.569 170.114 123.625C170.102 123.682 170.078 123.734 170.045 123.781L156.54 144.702C156.501 144.767 156.445 144.819 156.377 144.854C156.31 144.888 156.235 144.903 156.159 144.897Z" fill="#2C0F6B"/>
<path d="M83.9385 176.842C83.3062 176.84 82.6749 176.789 82.0505 176.69C72.0683 175.047 63.8895 163.194 61.6881 147.175C60.9769 142.002 60.6044 138.149 60.2996 135.059C59.7154 129.005 59.4529 126.228 57.5141 122.985L57.3109 122.647C54.4999 117.956 54.2036 117.465 53.9665 113.833C53.714 111.908 53.1627 110.034 52.3325 108.279C51.6636 106.653 51.1387 105.375 51.3503 104.554C51.562 103.732 52.0107 103.495 52.3409 103.461C53.34 103.36 54.1359 104.757 54.4407 105.358C55.2365 106.958 57.3193 112.021 57.4125 112.241C57.4524 112.345 57.4509 112.46 57.4083 112.562C57.3658 112.665 57.2854 112.747 57.1839 112.792C57.0791 112.832 56.963 112.831 56.8591 112.788C56.7553 112.746 56.6715 112.665 56.6251 112.563C56.6251 112.504 54.4661 107.305 53.6871 105.739C53.1199 104.63 52.5611 104.283 52.4256 104.308C52.2901 104.333 52.2478 104.46 52.1716 104.765C52.0361 105.307 52.5611 106.594 53.1114 107.957C53.9781 109.795 54.5495 111.758 54.8047 113.774C55.0333 117.16 55.2619 117.584 58.0305 122.24L58.2168 122.545V122.588C60.2657 125.974 60.5451 128.836 61.1463 135.034C61.4426 138.124 61.8151 141.959 62.5263 147.124C64.6769 162.787 72.5763 174.361 82.1859 175.911C92.6338 177.604 96.6216 163.795 96.6639 163.651C96.6943 163.539 96.7679 163.443 96.8688 163.385C96.9696 163.327 97.0893 163.312 97.2016 163.342C97.3139 163.372 97.4095 163.446 97.4674 163.547C97.5254 163.647 97.5409 163.767 97.5106 163.879C97.4429 163.964 93.7091 176.842 83.9385 176.842Z" fill="#2C0F6B"/>
<path d="M59.3513 111.834C59.2677 111.834 59.1862 111.809 59.1168 111.762C59.0475 111.715 58.9936 111.649 58.9619 111.572C58.8349 111.275 55.9223 104.231 55.4567 102.961C54.7116 100.921 53.6787 99.2104 53.1537 99.1512C53.0775 99.1512 53.0013 99.202 52.9167 99.329C52.2224 100.337 53.2299 103.131 54.0173 104.646C54.0481 104.695 54.0684 104.75 54.0771 104.808C54.0857 104.865 54.0825 104.924 54.0675 104.98C54.0526 105.036 54.0262 105.088 53.9902 105.134C53.9541 105.179 53.9091 105.217 53.8579 105.244C53.8067 105.271 53.7504 105.288 53.6926 105.293C53.6347 105.297 53.5765 105.29 53.5216 105.271C53.4667 105.252 53.4162 105.223 53.3733 105.183C53.3304 105.144 53.296 105.097 53.2722 105.044C53.0352 104.595 51.0116 100.607 52.2139 98.8548C52.3151 98.6717 52.4676 98.5221 52.6526 98.4244C52.8375 98.3266 53.047 98.285 53.2553 98.3045C54.61 98.4823 55.8885 101.691 56.2441 102.665C56.7097 103.926 59.7154 111.174 59.7408 111.25C59.7628 111.301 59.7744 111.356 59.7748 111.412C59.7751 111.467 59.7643 111.522 59.743 111.574C59.7217 111.625 59.6903 111.671 59.6506 111.71C59.611 111.749 59.5639 111.78 59.5122 111.8C59.462 111.824 59.4069 111.836 59.3513 111.834Z" fill="#2C0F6B"/>
<path d="M62.0607 110.7C61.9728 110.7 61.8871 110.673 61.8147 110.623C61.7422 110.573 61.6864 110.503 61.6543 110.421C59.9609 105.603 56.7182 97.7209 55.245 97.1367C55.245 97.1367 55.1773 97.1367 55.1603 97.1367C54.0004 97.6955 55.1603 100.21 55.1603 100.236C55.1844 100.285 55.1983 100.34 55.2011 100.395C55.2039 100.45 55.1956 100.506 55.1767 100.558C55.1577 100.61 55.1286 100.658 55.0908 100.698C55.0531 100.739 55.0077 100.772 54.9571 100.794C54.9066 100.819 54.8518 100.833 54.7958 100.836C54.7398 100.838 54.6838 100.83 54.631 100.811C54.5782 100.792 54.5298 100.763 54.4884 100.725C54.447 100.688 54.4135 100.642 54.3899 100.591C54.3306 100.456 52.8743 97.3061 54.7963 96.3578C54.9184 96.3016 55.0513 96.2725 55.1857 96.2725C55.3202 96.2725 55.4531 96.3016 55.5752 96.3578C57.8781 97.3061 62.0014 108.829 62.4671 110.142C62.5025 110.248 62.4949 110.365 62.4458 110.466C62.3968 110.567 62.3103 110.645 62.2046 110.683C62.1581 110.698 62.1093 110.704 62.0607 110.7Z" fill="#2C0F6B"/>
<path d="M65.9045 112.393C65.8175 112.393 65.7326 112.366 65.6614 112.316C65.5902 112.266 65.5362 112.196 65.5066 112.114C62.9666 105.07 59.6392 97.4158 58.5639 97.3312C58.4423 97.3474 58.3261 97.3918 58.2247 97.4609C58.1232 97.53 58.0394 97.6218 57.9797 97.7291C57.7844 98.4325 57.8444 99.1823 58.1491 99.8458C58.1917 99.9502 58.1912 100.067 58.1475 100.171C58.1038 100.275 58.0206 100.358 57.9162 100.4C57.8118 100.443 57.6947 100.442 57.5907 100.399C57.4867 100.355 57.4043 100.272 57.3617 100.167C57.2855 99.9897 56.6674 98.398 57.2347 97.3312C57.3498 97.1069 57.5165 96.9133 57.7211 96.7661C57.9257 96.6189 58.1623 96.5224 58.4115 96.4845C60.452 96.0442 64.6176 107.059 66.3025 111.809C66.3406 111.915 66.3352 112.031 66.2876 112.133C66.24 112.234 66.154 112.313 66.0485 112.351L65.9045 112.393Z" fill="#2C0F6B"/>
<path d="M88.2734 157.588C88.1785 157.587 88.0868 157.553 88.0131 157.493C87.9394 157.434 87.8879 157.351 87.867 157.258C85.0053 144.829 76.7927 133.484 72.3731 127.388C71.4793 126.218 70.6511 125 69.8923 123.738C68.6393 121.266 68.7409 114.425 68.8001 110.344C68.8001 109.396 68.8001 108.651 68.8001 108.202C68.8001 107.101 68.5038 106.847 68.4276 106.797C68.3863 106.783 68.3418 106.783 68.3006 106.797C66.6072 107.279 66.548 110.598 66.675 111.877C66.6819 111.975 66.6582 112.072 66.6072 112.156C65.9084 113.23 65.429 114.431 65.1965 115.691C64.964 116.951 64.983 118.244 65.2526 119.497C65.268 119.551 65.2725 119.607 65.2659 119.663C65.2594 119.718 65.2418 119.772 65.2142 119.821C65.1866 119.87 65.1496 119.913 65.1053 119.947C65.0611 119.982 65.0104 120.007 64.9562 120.022C64.8485 120.05 64.7338 120.035 64.6371 119.98C64.5404 119.924 64.4695 119.833 64.4398 119.725C64.1331 118.38 64.0972 116.987 64.3341 115.628C64.571 114.269 65.0761 112.971 65.8198 111.809C65.7521 110.962 65.5574 106.729 68.0212 106.035C68.1622 105.99 68.3114 105.977 68.458 105.998C68.6045 106.018 68.7445 106.071 68.8678 106.153C69.3504 106.458 69.6044 107.144 69.6298 108.244C69.6298 108.702 69.6298 109.464 69.6298 110.42C69.5706 114.163 69.469 121.131 70.6289 123.425C71.3672 124.648 72.1758 125.827 73.0504 126.956C77.4954 133.103 85.7504 144.541 88.6714 157.131C88.6968 157.24 88.6782 157.354 88.6195 157.45C88.5608 157.545 88.4668 157.613 88.3581 157.639L88.2734 157.588Z" fill="#2C0F6B"/>
<path d="M96.0797 153.27H95.9866L86.2161 151.119C86.1038 151.095 86.0059 151.026 85.944 150.93C85.8821 150.833 85.8612 150.715 85.8859 150.603C85.9106 150.491 85.9788 150.393 86.0757 150.331C86.1726 150.269 86.29 150.248 86.4023 150.273L96.1729 152.423C96.2851 152.436 96.3879 152.492 96.4586 152.58C96.5292 152.668 96.562 152.781 96.5496 152.893C96.5373 153.006 96.4808 153.108 96.3927 153.179C96.3046 153.25 96.192 153.282 96.0797 153.27Z" fill="#2C0F6B"/>
<path d="M128.82 126.178C128.722 126.176 128.627 126.14 128.552 126.077C128.476 126.014 128.425 125.927 128.405 125.83L127.288 120.166C127.276 120.112 127.274 120.055 127.284 120C127.294 119.945 127.316 119.893 127.346 119.846C127.377 119.799 127.417 119.76 127.464 119.729C127.511 119.698 127.563 119.677 127.618 119.667C127.673 119.656 127.729 119.655 127.783 119.666C127.838 119.676 127.89 119.698 127.936 119.728C127.983 119.759 128.023 119.799 128.054 119.845C128.085 119.891 128.106 119.942 128.118 119.997L129.235 125.67C129.246 125.724 129.247 125.78 129.236 125.835C129.225 125.889 129.204 125.941 129.174 125.988C129.143 126.034 129.103 126.074 129.057 126.105C129.011 126.136 128.959 126.158 128.905 126.169L128.82 126.178Z" fill="#2C0F6B"/>
<path d="M130.691 135.32C130.594 135.32 130.499 135.287 130.424 135.225C130.348 135.163 130.296 135.077 130.277 134.982L129.159 129.309C129.148 129.255 129.148 129.198 129.158 129.144C129.169 129.089 129.19 129.037 129.221 128.991C129.251 128.945 129.291 128.905 129.337 128.874C129.383 128.842 129.435 128.821 129.489 128.81C129.6 128.79 129.715 128.814 129.808 128.877C129.901 128.94 129.966 129.038 129.989 129.148L131.106 134.812C131.119 134.867 131.12 134.923 131.11 134.978C131.1 135.034 131.079 135.086 131.048 135.133C131.017 135.179 130.977 135.219 130.93 135.25C130.884 135.281 130.831 135.302 130.776 135.312L130.691 135.32Z" fill="#2C0F6B"/>
<path d="M132.639 144.414C132.542 144.416 132.447 144.382 132.373 144.32C132.298 144.258 132.249 144.171 132.232 144.076L131.106 138.403C131.095 138.349 131.095 138.293 131.106 138.239C131.116 138.185 131.138 138.134 131.168 138.088C131.199 138.042 131.239 138.003 131.285 137.973C131.331 137.943 131.382 137.922 131.437 137.912C131.491 137.901 131.547 137.9 131.602 137.911C131.656 137.922 131.708 137.943 131.755 137.973C131.801 138.004 131.841 138.044 131.872 138.09C131.903 138.136 131.925 138.188 131.936 138.242L133.062 143.915C133.082 144.026 133.058 144.14 132.995 144.234C132.931 144.327 132.834 144.392 132.723 144.414H132.639Z" fill="#2C0F6B"/>
<path d="M68.2159 42.4085H22.4959C20.9398 42.4085 19.4474 43.0267 18.347 44.127C17.2467 45.2274 16.6285 46.7197 16.6285 48.2759C16.6285 49.0485 16.7811 49.8136 17.0776 50.5271C17.374 51.2406 17.8085 51.8886 18.356 52.4338C18.9035 52.9789 19.5534 53.4106 20.2682 53.704C20.983 53.9973 21.7487 54.1466 22.5213 54.1433H22.86C23.6684 54.1433 24.4436 54.4644 25.0152 55.036C25.5869 55.6076 25.908 56.3829 25.908 57.1913C25.908 57.9997 25.5869 58.7749 25.0152 59.3465C24.4436 59.9181 23.6684 60.2393 22.86 60.2393H11.0067C10.3629 60.2415 9.74612 60.4982 9.2909 60.9535C8.83568 61.4087 8.57895 62.0254 8.57672 62.6692C8.57896 63.3122 8.83596 63.9281 9.29142 64.382C9.74688 64.8358 10.3637 65.0907 11.0067 65.0907H56.388C56.7607 65.0907 57.1182 64.9426 57.3818 64.679C57.6454 64.4155 57.7935 64.058 57.7935 63.6852V63.0587C57.7935 62.6859 57.9415 62.3284 58.2051 62.0649C58.4687 61.8013 58.8262 61.6532 59.1989 61.6532H65.4558C65.8308 61.6532 66.1904 61.5042 66.4556 61.2391C66.7208 60.9739 66.8697 60.6143 66.8697 60.2393V55.5487C66.8697 55.176 67.0178 54.8185 67.2814 54.5549C67.545 54.2914 67.9024 54.1433 68.2752 54.1433C68.6479 54.1433 69.0054 53.9952 69.269 53.7316C69.5326 53.4681 69.6807 53.1106 69.6807 52.7378V43.8139C69.6808 43.6243 69.6426 43.4365 69.5683 43.262C69.494 43.0875 69.3851 42.9299 69.2483 42.7986C69.1114 42.6673 68.9494 42.565 68.772 42.498C68.5946 42.4309 68.4054 42.4005 68.2159 42.4085Z" fill="#F2EFF8"/>
<path d="M35.2467 66.7334H21.0905C20.1179 66.7334 19.3294 67.5219 19.3294 68.4945C19.3294 69.4671 20.1179 70.2555 21.0905 70.2555H35.2467C36.2194 70.2555 37.0078 69.4671 37.0078 68.4945C37.0078 67.5219 36.2194 66.7334 35.2467 66.7334Z" fill="#F2EFF8"/>
<path d="M74.9385 34.5342H63.1359C62.1961 34.5342 61.4341 35.2942 61.4341 36.2317C61.4341 37.1693 62.1961 37.9293 63.1359 37.9293H74.9385C75.8784 37.9293 76.6403 37.1693 76.6403 36.2317C76.6403 35.2942 75.8784 34.5342 74.9385 34.5342Z" fill="#F2EFF8"/>
<path d="M70.9845 40.8164H55.4397C53.4291 40.8164 51.7991 42.4464 51.7991 44.4571C51.7991 46.4678 53.4291 48.0977 55.4397 48.0977H70.9845C72.9952 48.0977 74.6252 46.4678 74.6252 44.4571C74.6252 42.4464 72.9952 40.8164 70.9845 40.8164Z" fill="#F2EFF8"/>
<path d="M81.5764 39.4111H79.5867C78.6468 39.4111 77.8849 40.1712 77.8849 41.1087C77.8849 42.0462 78.6468 42.8063 79.5867 42.8063H81.5764C82.5162 42.8063 83.2782 42.0462 83.2782 41.1087C83.2782 40.1712 82.5162 39.4111 81.5764 39.4111Z" fill="#F2EFF8"/>
<path d="M66.5056 52.1787H29.8788V73.4639H66.5056V52.1787Z" fill="#C2B6D6"/>
<path d="M34.9166 52.2793H26.3314V54.0912H34.9166V52.2793Z" fill="white"/>
<path d="M34.9166 54.515H26.3314C26.2191 54.515 26.1114 54.4704 26.032 54.391C25.9526 54.3116 25.908 54.2039 25.908 54.0916V52.2798C25.908 52.1675 25.9526 52.0598 26.032 51.9804C26.1114 51.901 26.2191 51.8564 26.3314 51.8564H34.9166C35.0288 51.8564 35.1365 51.901 35.2159 51.9804C35.2953 52.0598 35.3399 52.1675 35.3399 52.2798V54.0916C35.3399 54.2039 35.2953 54.3116 35.2159 54.391C35.1365 54.4704 35.0288 54.515 34.9166 54.515ZM26.7547 53.6683H34.4932V52.7031H26.7547V53.6683Z" fill="#2C0F6B"/>
<path d="M34.9166 71.6514H26.3314V73.4632H34.9166V71.6514Z" fill="white"/>
<path d="M34.9166 73.887H26.3314C26.2191 73.887 26.1114 73.8424 26.032 73.7631C25.9526 73.6837 25.908 73.576 25.908 73.4637V71.6518C25.9102 71.5403 25.9555 71.4338 26.0344 71.3549C26.1133 71.276 26.2198 71.2307 26.3314 71.2285H34.9166C35.0288 71.2285 35.1365 71.2731 35.2159 71.3525C35.2953 71.4319 35.3399 71.5396 35.3399 71.6518V73.4468C35.3422 73.5038 35.3329 73.5607 35.3127 73.614C35.2924 73.6673 35.2616 73.716 35.222 73.7571C35.1825 73.7983 35.1351 73.831 35.0826 73.8533C35.0301 73.8756 34.9736 73.8871 34.9166 73.887ZM26.7547 73.0404H34.4932V72.0752H26.7547V73.0404Z" fill="#2C0F6B"/>
<path d="M74.3034 73.5654H22.2589V75.3773H74.3034V73.5654Z" fill="#2C0F6B"/>
<path d="M74.295 75.8001H22.2588C22.1466 75.8001 22.0389 75.7555 21.9595 75.6761C21.8801 75.5968 21.8355 75.4891 21.8355 75.3768V73.5649C21.8355 73.4527 21.8801 73.345 21.9595 73.2656C22.0389 73.1862 22.1466 73.1416 22.2588 73.1416H74.295C74.4072 73.1416 74.5149 73.1862 74.5943 73.2656C74.6737 73.345 74.7183 73.4527 74.7183 73.5649V75.3768C74.7183 75.4891 74.6737 75.5968 74.5943 75.6761C74.5149 75.7555 74.4072 75.8001 74.295 75.8001ZM22.6483 74.9535H73.8716V73.9883H22.6822L22.6483 74.9535Z" fill="#2C0F6B"/>
<path d="M75.184 50.3662H21.3699V52.1781H75.184V50.3662Z" fill="white"/>
<path d="M75.184 52.6019H21.3699C21.2576 52.6019 21.1499 52.5573 21.0705 52.4779C20.9911 52.3985 20.9465 52.2908 20.9465 52.1786V50.3667C20.9487 50.2551 20.994 50.1487 21.0729 50.0698C21.1518 49.9908 21.2583 49.9455 21.3699 49.9434H75.184C75.2963 49.9434 75.404 49.988 75.4833 50.0674C75.5627 50.1467 75.6073 50.2544 75.6073 50.3667V52.1786C75.6073 52.2908 75.5627 52.3985 75.4833 52.4779C75.404 52.5573 75.2963 52.6019 75.184 52.6019ZM21.7932 51.7552H74.7607V50.79H21.7932V51.7552Z" fill="#2C0F6B"/>
<path d="M73.7701 50.2728H22.7923V48.4609L48.1923 32.5859L73.7701 48.4609V50.2728Z" fill="white"/>
<path d="M73.7701 50.6966H22.7923C22.68 50.6966 22.5723 50.652 22.4929 50.5726C22.4136 50.4933 22.369 50.3856 22.369 50.2733V48.4614C22.3706 48.3897 22.3891 48.3194 22.4229 48.2562C22.4567 48.1929 22.5049 48.1385 22.5637 48.0974L47.9637 32.2308C48.0313 32.1897 48.1089 32.168 48.1881 32.168C48.2672 32.168 48.3448 32.1897 48.4124 32.2308L73.9902 48.0974C74.0515 48.1365 74.1022 48.1903 74.1377 48.2538C74.1731 48.3174 74.1923 48.3887 74.1934 48.4614V50.2733C74.1913 50.3849 74.146 50.4913 74.067 50.5702C73.9881 50.6492 73.8817 50.6945 73.7701 50.6966ZM23.2156 49.85H73.3468V48.6985L48.1923 33.086L23.2156 48.6985V49.85Z" fill="#2C0F6B"/>
<path d="M33.3079 54.0908H27.9485V71.6507H33.3079V54.0908Z" fill="white"/>
<path d="M33.2994 72.0745H27.94C27.8277 72.0745 27.72 72.0299 27.6407 71.9505C27.5613 71.8711 27.5167 71.7634 27.5167 71.6512V54.0913C27.5167 53.979 27.5613 53.8714 27.6407 53.792C27.72 53.7126 27.8277 53.668 27.94 53.668H33.2909C33.4032 53.668 33.5109 53.7126 33.5903 53.792C33.6697 53.8714 33.7143 53.979 33.7143 54.0913V71.6512C33.7143 71.762 33.6708 71.8684 33.5933 71.9476C33.5157 72.0267 33.4102 72.0723 33.2994 72.0745ZM28.3718 71.2278H32.8761V54.5146H28.3718V71.2278Z" fill="#2C0F6B"/>
<path d="M46.5751 52.2793H37.9899V54.0912H46.5751V52.2793Z" fill="white"/>
<path d="M46.5667 54.515H37.9899C37.8776 54.515 37.77 54.4704 37.6906 54.391C37.6112 54.3116 37.5666 54.2039 37.5666 54.0916V52.2798C37.5666 52.1675 37.6112 52.0598 37.6906 51.9804C37.77 51.901 37.8776 51.8564 37.9899 51.8564H46.5667C46.6789 51.8564 46.7866 51.901 46.866 51.9804C46.9454 52.0598 46.99 52.1675 46.99 52.2798V54.0916C46.99 54.2039 46.9454 54.3116 46.866 54.391C46.7866 54.4704 46.6789 54.515 46.5667 54.515ZM38.4048 53.6683H46.1433V52.7031H38.4133L38.4048 53.6683Z" fill="#2C0F6B"/>
<path d="M46.5751 71.6514H37.9899V73.4632H46.5751V71.6514Z" fill="white"/>
<path d="M46.5667 73.887H37.9899C37.8776 73.887 37.77 73.8424 37.6906 73.7631C37.6112 73.6837 37.5666 73.576 37.5666 73.4637V71.6518C37.5666 71.5396 37.6112 71.4319 37.6906 71.3525C37.77 71.2731 37.8776 71.2285 37.9899 71.2285H46.5667C46.6789 71.2285 46.7866 71.2731 46.866 71.3525C46.9454 71.4319 46.99 71.5396 46.99 71.6518V73.4468C46.9923 73.5038 46.983 73.5607 46.9628 73.614C46.9425 73.6673 46.9117 73.716 46.8721 73.7571C46.8326 73.7983 46.7852 73.831 46.7327 73.8533C46.6802 73.8756 46.6237 73.8871 46.5667 73.887ZM38.4048 73.0404H46.1433V72.0752H38.4133L38.4048 73.0404Z" fill="#2C0F6B"/>
<path d="M44.9665 54.0908H39.6071V71.6507H44.9665V54.0908Z" fill="white"/>
<path d="M44.958 72.0745H39.607C39.4948 72.0745 39.3871 72.0299 39.3077 71.9505C39.2283 71.8711 39.1837 71.7634 39.1837 71.6512V54.0913C39.1837 53.979 39.2283 53.8714 39.3077 53.792C39.3871 53.7126 39.4948 53.668 39.607 53.668H44.958C45.0703 53.668 45.1779 53.7126 45.2573 53.792C45.3367 53.8714 45.3813 53.979 45.3813 54.0913V71.6512C45.3813 71.7634 45.3367 71.8711 45.2573 71.9505C45.1779 72.0299 45.0703 72.0745 44.958 72.0745ZM40.0304 71.2278H44.5346V54.5146H40.0304V71.2278Z" fill="#2C0F6B"/>
<path d="M58.3523 52.2793H49.7671V54.0912H58.3523V52.2793Z" fill="white"/>
<path d="M58.3523 54.515H49.7671C49.6548 54.515 49.5471 54.4704 49.4677 54.391C49.3884 54.3116 49.3438 54.2039 49.3438 54.0916V52.2798C49.3438 52.1675 49.3884 52.0598 49.4677 51.9804C49.5471 51.901 49.6548 51.8564 49.7671 51.8564H58.3523C58.4646 51.8564 58.5722 51.901 58.6516 51.9804C58.731 52.0598 58.7756 52.1675 58.7756 52.2798V54.0916C58.7756 54.2039 58.731 54.3116 58.6516 54.391C58.5722 54.4704 58.4646 54.515 58.3523 54.515ZM50.1904 53.6683H57.9289V52.7031H50.1904V53.6683Z" fill="#2C0F6B"/>
<path d="M58.3523 71.6514H49.7671V73.4632H58.3523V71.6514Z" fill="white"/>
<path d="M58.3523 73.887H49.7671C49.6548 73.887 49.5471 73.8424 49.4677 73.7631C49.3884 73.6837 49.3438 73.576 49.3438 73.4637V71.6518C49.3438 71.5396 49.3884 71.4319 49.4677 71.3525C49.5471 71.2731 49.6548 71.2285 49.7671 71.2285H58.3523C58.4639 71.2307 58.5703 71.276 58.6492 71.3549C58.7282 71.4338 58.7734 71.5403 58.7756 71.6518V73.4468C58.7779 73.5038 58.7686 73.5607 58.7484 73.614C58.7281 73.6673 58.6973 73.716 58.6578 73.7571C58.6182 73.7983 58.5708 73.831 58.5183 73.8533C58.4658 73.8756 58.4093 73.8871 58.3523 73.887ZM50.1904 73.0404H57.9289V72.0752H50.1904V73.0404Z" fill="#2C0F6B"/>
<path d="M56.7351 54.0908H51.3757V71.6507H56.7351V54.0908Z" fill="white"/>
<path d="M56.7267 72.0745H51.3757C51.2635 72.0745 51.1558 72.0299 51.0764 71.9505C50.997 71.8711 50.9524 71.7634 50.9524 71.6512V54.0913C50.9524 53.979 50.997 53.8714 51.0764 53.792C51.1558 53.7126 51.2635 53.668 51.3757 53.668H56.7267C56.8389 53.668 56.9466 53.7126 57.026 53.792C57.1054 53.8714 57.15 53.979 57.15 54.0913V71.6512C57.15 71.7634 57.1054 71.8711 57.026 71.9505C56.9466 72.0299 56.8389 72.0745 56.7267 72.0745ZM51.7906 71.2278H56.3033V54.5146H51.7991L51.7906 71.2278Z" fill="#2C0F6B"/>
<path d="M70.358 52.2793H61.7728V54.0912H70.358V52.2793Z" fill="white"/>
<path d="M70.358 54.515H61.8066C61.6944 54.515 61.5867 54.4704 61.5073 54.391C61.4279 54.3116 61.3833 54.2039 61.3833 54.0916V52.2798C61.3833 52.1675 61.4279 52.0598 61.5073 51.9804C61.5867 51.901 61.6944 51.8564 61.8066 51.8564H70.358C70.4702 51.8564 70.5779 51.901 70.6573 51.9804C70.7367 52.0598 70.7813 52.1675 70.7813 52.2798V54.0916C70.7813 54.2039 70.7367 54.3116 70.6573 54.391C70.5779 54.4704 70.4702 54.515 70.358 54.515ZM62.1961 53.6683H69.9346V52.7031H62.1961V53.6683Z" fill="#2C0F6B"/>
<path d="M70.358 71.6514H61.7728V73.4632H70.358V71.6514Z" fill="white"/>
<path d="M70.358 73.887H61.8066C61.6944 73.887 61.5867 73.8424 61.5073 73.7631C61.4279 73.6837 61.3833 73.576 61.3833 73.4637V71.6518C61.3855 71.5403 61.4308 71.4338 61.5097 71.3549C61.5886 71.276 61.695 71.2307 61.8066 71.2285H70.358C70.4702 71.2285 70.5779 71.2731 70.6573 71.3525C70.7367 71.4319 70.7813 71.5396 70.7813 71.6518V73.4468C70.7836 73.5038 70.7743 73.5607 70.7541 73.614C70.7338 73.6673 70.703 73.716 70.6635 73.7571C70.6239 73.7983 70.5765 73.831 70.524 73.8533C70.4715 73.8756 70.415 73.8871 70.358 73.887ZM62.1961 73.0404H69.9346V72.0752H62.1961V73.0404Z" fill="#2C0F6B"/>
<path d="M68.7493 54.0908H63.39V71.6507H68.7493V54.0908Z" fill="white"/>
<path d="M68.7493 72.0745H63.3899C63.2777 72.0745 63.17 72.0299 63.0906 71.9505C63.0112 71.8711 62.9666 71.7634 62.9666 71.6512V54.0913C62.9666 53.979 63.0112 53.8714 63.0906 53.792C63.17 53.7126 63.2777 53.668 63.3899 53.668H68.7493C68.8616 53.668 68.9693 53.7126 69.0487 53.792C69.1281 53.8714 69.1727 53.979 69.1727 54.0913V71.6512C69.1727 71.7634 69.1281 71.8711 69.0487 71.9505C68.9693 72.0299 68.8616 72.0745 68.7493 72.0745ZM63.8133 71.2278H68.326V54.5146H63.8133V71.2278Z" fill="#2C0F6B"/>
<path d="M48.2261 47.8682C50.7044 47.8682 52.7134 45.8592 52.7134 43.3809C52.7134 40.9026 50.7044 38.8936 48.2261 38.8936C45.7478 38.8936 43.7388 40.9026 43.7388 43.3809C43.7388 45.8592 45.7478 47.8682 48.2261 47.8682Z" fill="#C2B6D6"/>
<path d="M48.26 48.292C47.2887 48.292 46.3393 48.004 45.5318 47.4644C44.7242 46.9249 44.0948 46.1579 43.7231 45.2606C43.3514 44.3633 43.2542 43.3759 43.4437 42.4233C43.6331 41.4708 44.1008 40.5958 44.7876 39.909C45.4744 39.2222 46.3494 38.7545 47.3019 38.5651C48.2545 38.3756 49.2419 38.4728 50.1392 38.8445C51.0365 39.2162 51.8035 39.8456 52.343 40.6532C52.8826 41.4607 53.1706 42.4101 53.1706 43.3814C53.1706 44.6838 52.6533 45.9328 51.7323 46.8537C50.8114 47.7747 49.5624 48.292 48.26 48.292ZM48.26 39.3174C47.4562 39.3174 46.6705 39.5557 46.0021 40.0023C45.3338 40.4488 44.8129 41.0835 44.5053 41.8261C44.1977 42.5687 44.1173 43.3859 44.2741 44.1742C44.4309 44.9626 44.8179 45.6867 45.3863 46.2551C45.9547 46.8234 46.6788 47.2105 47.4671 47.3673C48.2555 47.5241 49.0726 47.4436 49.8152 47.136C50.5578 46.8284 51.1925 46.3075 51.6391 45.6392C52.0856 44.9709 52.324 44.1852 52.324 43.3814C52.324 42.3035 51.8958 41.2698 51.1337 40.5077C50.3715 39.7455 49.3378 39.3174 48.26 39.3174Z" fill="#2C0F6B"/>
<path d="M48.9797 41.9248H47.5234V44.9135H48.9797V41.9248Z" fill="#2C0F6B"/>
<path d="M48.9797 45.3374H47.5234C47.4112 45.3374 47.3035 45.2928 47.2241 45.2134C47.1447 45.134 47.1001 45.0263 47.1001 44.914V41.9253C47.1001 41.813 47.1447 41.7053 47.2241 41.6259C47.3035 41.5466 47.4112 41.502 47.5234 41.502H48.9797C49.092 41.502 49.1996 41.5466 49.279 41.6259C49.3584 41.7053 49.403 41.813 49.403 41.9253V44.914C49.403 45.0263 49.3584 45.134 49.279 45.2134C49.1996 45.2928 49.092 45.3374 48.9797 45.3374ZM47.9468 44.4907H48.5564V42.3486H47.9468V44.4907Z" fill="#2C0F6B"/>
<path d="M141.224 13.4512H95.504C93.9479 13.4512 92.4555 14.0693 91.3551 15.1697C90.2548 16.27 89.6366 17.7624 89.6366 19.3186C89.6366 20.0912 89.7892 20.8563 90.0857 21.5698C90.3821 22.2833 90.8166 22.9313 91.3641 23.4765C91.9116 24.0216 92.5615 24.4533 93.2763 24.7467C93.9911 25.04 94.7568 25.1893 95.5294 25.186H95.8427C96.6511 25.186 97.4263 25.5071 97.9979 26.0787C98.5696 26.6503 98.8907 27.4256 98.8907 28.234C98.8907 29.0424 98.5696 29.8176 97.9979 30.3892C97.4263 30.9608 96.6511 31.282 95.8427 31.282H83.9894C83.6706 31.282 83.3551 31.3449 83.0607 31.4671C82.7664 31.5893 82.4991 31.7684 82.2741 31.9942C82.0492 32.2199 81.871 32.4879 81.7498 32.7827C81.6286 33.0774 81.5668 33.3932 81.5679 33.7119C81.5679 34.3541 81.823 34.97 82.2771 35.4241C82.7312 35.8783 83.3471 36.1334 83.9894 36.1334H129.371C129.743 36.1334 130.101 35.9853 130.365 35.7217C130.628 35.4581 130.776 35.1007 130.776 34.7279V34.1014C130.776 33.9161 130.813 33.7326 130.884 33.5616C130.955 33.3905 131.059 33.2352 131.191 33.1046C131.322 32.9739 131.478 32.8706 131.65 32.8004C131.821 32.7303 132.005 32.6948 132.19 32.6959H138.447C138.82 32.6937 139.178 32.5437 139.441 32.2788C139.705 32.0139 139.852 31.6555 139.852 31.282V26.5914C139.852 26.2245 139.996 25.872 140.252 25.6094C140.508 25.3468 140.857 25.1948 141.224 25.186C141.597 25.186 141.954 25.0379 142.218 24.7743C142.481 24.5107 142.629 24.1533 142.629 23.7805V14.8651C142.631 14.6798 142.595 14.4962 142.525 14.3247C142.455 14.1532 142.351 13.9972 142.221 13.8658C142.09 13.7344 141.935 13.6301 141.764 13.559C141.593 13.4878 141.409 13.4512 141.224 13.4512Z" fill="#F2EFF8"/>
<path d="M108.263 37.7754H94.107C93.1344 37.7754 92.3459 38.5638 92.3459 39.5365C92.3459 40.5091 93.1344 41.2975 94.107 41.2975H108.263C109.236 41.2975 110.024 40.5091 110.024 39.5365C110.024 38.5638 109.236 37.7754 108.263 37.7754Z" fill="#F2EFF8"/>
<path d="M147.955 5.57715H136.152C135.213 5.57715 134.451 6.33718 134.451 7.27472C134.451 8.21226 135.213 8.97228 136.152 8.97228H147.955C148.895 8.97228 149.657 8.21226 149.657 7.27472C149.657 6.33718 148.895 5.57715 147.955 5.57715Z" fill="#F2EFF8"/>
<path d="M143.993 11.8594H128.448C126.437 11.8594 124.807 13.4894 124.807 15.5C124.807 17.5107 126.437 19.1407 128.448 19.1407H143.993C146.003 19.1407 147.633 17.5107 147.633 15.5C147.633 13.4894 146.003 11.8594 143.993 11.8594Z" fill="#F2EFF8"/>
<path d="M154.584 10.4541H152.595C151.655 10.4541 150.893 11.2141 150.893 12.1517C150.893 13.0892 151.655 13.8492 152.595 13.8492H154.584C155.524 13.8492 156.286 13.0892 156.286 12.1517C156.286 11.2141 155.524 10.4541 154.584 10.4541Z" fill="#F2EFF8"/>
<path d="M139.514 23.2227H102.887V44.5079H139.514V23.2227Z" fill="#C2B6D6"/>
<path d="M107.925 23.3232H99.3394V25.1351H107.925V23.3232Z" fill="white"/>
<path d="M107.925 25.5589H99.3394C99.2271 25.5589 99.1195 25.5143 99.0401 25.4349C98.9607 25.3555 98.9161 25.2479 98.9161 25.1356V23.3237C98.9161 23.2114 98.9607 23.1038 99.0401 23.0244C99.1195 22.945 99.2271 22.9004 99.3394 22.9004H107.925C108.037 22.9004 108.145 22.945 108.224 23.0244C108.303 23.1038 108.348 23.2114 108.348 23.3237V25.1356C108.348 25.2479 108.303 25.3555 108.224 25.4349C108.145 25.5143 108.037 25.5589 107.925 25.5589ZM99.7627 24.7123H107.527V23.7471H99.7881L99.7627 24.7123Z" fill="#2C0F6B"/>
<path d="M107.925 42.6953H99.3394V44.5072H107.925V42.6953Z" fill="white"/>
<path d="M107.925 44.931H99.3394C99.2271 44.931 99.1195 44.8864 99.0401 44.807C98.9607 44.7276 98.9161 44.6199 98.9161 44.5077V42.6958C98.9182 42.5842 98.9635 42.4778 99.0425 42.3988C99.1214 42.3199 99.2278 42.2746 99.3394 42.2725H107.925C108.037 42.2725 108.145 42.3171 108.224 42.3965C108.303 42.4758 108.348 42.5835 108.348 42.6958V44.5077C108.348 44.6199 108.303 44.7276 108.224 44.807C108.145 44.8864 108.037 44.931 107.925 44.931ZM99.7627 44.0843H107.527V43.1191H99.7881L99.7627 44.0843Z" fill="#2C0F6B"/>
<path d="M147.312 44.6084H95.267V46.4203H147.312V44.6084Z" fill="#2C0F6B"/>
<path d="M147.32 46.8441H95.267C95.1547 46.8441 95.047 46.7995 94.9676 46.7201C94.8882 46.6407 94.8436 46.533 94.8436 46.4207V44.6089C94.8436 44.4966 94.8882 44.3889 94.9676 44.3095C95.047 44.2301 95.1547 44.1855 95.267 44.1855H147.32C147.432 44.1855 147.54 44.2301 147.619 44.3095C147.699 44.3889 147.743 44.4966 147.743 44.6089V46.4207C147.741 46.5323 147.696 46.6388 147.617 46.7177C147.538 46.7966 147.432 46.8419 147.32 46.8441ZM95.6734 45.9974H146.871V45.0322H95.6734V45.9974Z" fill="#2C0F6B"/>
<path d="M148.192 21.4102H94.3779V23.222H148.192V21.4102Z" fill="white"/>
<path d="M148.167 23.6449H94.3779C94.2656 23.6449 94.158 23.6003 94.0786 23.5209C93.9992 23.4415 93.9546 23.3338 93.9546 23.2215V21.4097C93.9568 21.2981 94.0021 21.1916 94.081 21.1127C94.1599 21.0338 94.2663 20.9885 94.3779 20.9863H148.167C148.279 20.9863 148.387 21.0309 148.466 21.1103C148.545 21.1897 148.59 21.2974 148.59 21.4097V23.2215C148.59 23.3338 148.545 23.4415 148.466 23.5209C148.387 23.6003 148.279 23.6449 148.167 23.6449ZM94.7759 22.7982H147.743V21.7991H94.8267L94.7759 22.7982Z" fill="#2C0F6B"/>
<path d="M146.778 21.3167H95.8004V19.5049L121.2 3.62988L146.778 19.5049V21.3167Z" fill="white"/>
<path d="M146.778 21.7406H95.8003C95.6881 21.7406 95.5804 21.696 95.501 21.6166C95.4216 21.5372 95.377 21.4295 95.377 21.3172V19.5054C95.3786 19.4337 95.3971 19.3634 95.4309 19.3001C95.4648 19.2369 95.513 19.1825 95.5717 19.1413L120.972 3.27478C121.039 3.23366 121.117 3.21191 121.196 3.21191C121.275 3.21191 121.353 3.23366 121.42 3.27478L146.998 19.1413C147.061 19.1793 147.112 19.2328 147.148 19.2966C147.183 19.3604 147.202 19.4323 147.201 19.5054V21.3172C147.199 21.4288 147.154 21.5353 147.075 21.6142C146.996 21.6931 146.89 21.7384 146.778 21.7406ZM96.2237 20.8939H146.355V19.7424L121.2 4.12992L96.2237 19.734V20.8939Z" fill="#2C0F6B"/>
<path d="M106.316 25.1348H100.957V42.6946H106.316V25.1348Z" fill="white"/>
<path d="M106.316 43.1184H100.957C100.844 43.1184 100.737 43.0738 100.657 42.9945C100.578 42.9151 100.533 42.8074 100.533 42.6951V25.1352C100.533 25.023 100.578 24.9153 100.657 24.8359C100.737 24.7565 100.844 24.7119 100.957 24.7119H106.316C106.428 24.7119 106.536 24.7565 106.615 24.8359C106.695 24.9153 106.739 25.023 106.739 25.1352V42.6951C106.739 42.8074 106.695 42.9151 106.615 42.9945C106.536 43.0738 106.428 43.1184 106.316 43.1184ZM101.38 42.2718H105.893V25.5586H101.38V42.2718Z" fill="#2C0F6B"/>
<path d="M119.583 23.3232H110.998V25.1351H119.583V23.3232Z" fill="white"/>
<path d="M119.583 25.5589H110.998C110.886 25.5589 110.778 25.5143 110.699 25.4349C110.619 25.3555 110.575 25.2479 110.575 25.1356V23.3237C110.575 23.2114 110.619 23.1038 110.699 23.0244C110.778 22.945 110.886 22.9004 110.998 22.9004H119.583C119.696 22.9004 119.803 22.945 119.883 23.0244C119.962 23.1038 120.007 23.2114 120.007 23.3237V25.1356C120.007 25.2479 119.962 25.3555 119.883 25.4349C119.803 25.5143 119.696 25.5589 119.583 25.5589ZM111.421 24.7123H119.16V23.7471H111.421V24.7123Z" fill="#2C0F6B"/>
<path d="M119.583 42.6953H110.998V44.5072H119.583V42.6953Z" fill="white"/>
<path d="M119.583 44.931H110.998C110.886 44.931 110.778 44.8864 110.699 44.807C110.619 44.7276 110.575 44.6199 110.575 44.5077V42.6958C110.577 42.5842 110.622 42.4778 110.701 42.3988C110.78 42.3199 110.886 42.2746 110.998 42.2725H119.583C119.696 42.2725 119.803 42.3171 119.883 42.3965C119.962 42.4758 120.007 42.5835 120.007 42.6958V44.5077C120.007 44.6199 119.962 44.7276 119.883 44.807C119.803 44.8864 119.696 44.931 119.583 44.931ZM111.421 44.0843H119.16V43.1191H111.421V44.0843Z" fill="#2C0F6B"/>
<path d="M117.975 25.1348H112.615V42.6946H117.975V25.1348Z" fill="white"/>
<path d="M117.966 43.1184H112.607C112.494 43.1184 112.387 43.0738 112.307 42.9945C112.228 42.9151 112.183 42.8074 112.183 42.6951V25.1352C112.183 25.023 112.228 24.9153 112.307 24.8359C112.387 24.7565 112.494 24.7119 112.607 24.7119H117.958C118.07 24.7119 118.178 24.7565 118.257 24.8359C118.336 24.9153 118.381 25.023 118.381 25.1352V42.6951C118.381 42.8059 118.338 42.9124 118.26 42.9915C118.182 43.0707 118.077 43.1162 117.966 43.1184ZM113.038 42.2718H117.543V25.5586H113.038V42.2718Z" fill="#2C0F6B"/>
<path d="M131.36 23.3232H122.775V25.1351H131.36V23.3232Z" fill="white"/>
<path d="M131.36 25.5589H122.767C122.654 25.5589 122.547 25.5143 122.467 25.4349C122.388 25.3555 122.343 25.2479 122.343 25.1356V23.3237C122.343 23.2114 122.388 23.1038 122.467 23.0244C122.547 22.945 122.654 22.9004 122.767 22.9004H131.352C131.464 22.9004 131.572 22.945 131.651 23.0244C131.731 23.1038 131.775 23.2114 131.775 23.3237V25.1356C131.775 25.2464 131.732 25.3528 131.654 25.432C131.577 25.5111 131.471 25.5567 131.36 25.5589ZM123.198 24.7123H130.937V23.7471H123.198V24.7123Z" fill="#2C0F6B"/>
<path d="M131.36 42.6953H122.775V44.5072H131.36V42.6953Z" fill="white"/>
<path d="M131.36 44.931H122.767C122.654 44.931 122.547 44.8864 122.467 44.807C122.388 44.7276 122.343 44.6199 122.343 44.5077V42.6958C122.343 42.5835 122.388 42.4758 122.467 42.3965C122.547 42.3171 122.654 42.2725 122.767 42.2725H131.352C131.464 42.2725 131.572 42.3171 131.651 42.3965C131.731 42.4758 131.775 42.5835 131.775 42.6958V44.5077C131.775 44.6185 131.732 44.7249 131.654 44.8041C131.577 44.8832 131.471 44.9288 131.36 44.931ZM123.198 44.0843H130.937V43.1191H123.198V44.0843Z" fill="#2C0F6B"/>
<path d="M129.752 25.1348H124.392V42.6946H129.752V25.1348Z" fill="white"/>
<path d="M129.743 43.1184H124.392C124.28 43.1184 124.172 43.0738 124.093 42.9945C124.014 42.9151 123.969 42.8074 123.969 42.6951V25.1352C123.969 25.023 124.014 24.9153 124.093 24.8359C124.172 24.7565 124.28 24.7119 124.392 24.7119H129.743C129.855 24.7119 129.963 24.7565 130.043 24.8359C130.122 24.9153 130.167 25.023 130.167 25.1352V42.6951C130.167 42.8074 130.122 42.9151 130.043 42.9945C129.963 43.0738 129.855 43.1184 129.743 43.1184ZM124.816 42.2718H129.32V25.5586H124.816V42.2718Z" fill="#2C0F6B"/>
<path d="M143.375 23.3232H134.789V25.1351H143.375V23.3232Z" fill="white"/>
<path d="M143.366 25.5589H134.789C134.677 25.5589 134.569 25.5143 134.49 25.4349C134.411 25.3555 134.366 25.2479 134.366 25.1356V23.3237C134.366 23.2114 134.411 23.1038 134.49 23.0244C134.569 22.945 134.677 22.9004 134.789 22.9004H143.366C143.478 22.9004 143.586 22.945 143.665 23.0244C143.745 23.1038 143.789 23.2114 143.789 23.3237V25.1356C143.789 25.2479 143.745 25.3555 143.665 25.4349C143.586 25.5143 143.478 25.5589 143.366 25.5589ZM135.213 24.7123H142.943V23.7471H135.213V24.7123Z" fill="#2C0F6B"/>
<path d="M143.375 42.6953H134.789V44.5072H143.375V42.6953Z" fill="white"/>
<path d="M143.366 44.931H134.789C134.677 44.931 134.569 44.8864 134.49 44.807C134.411 44.7276 134.366 44.6199 134.366 44.5077V42.6958C134.366 42.5835 134.411 42.4758 134.49 42.3965C134.569 42.3171 134.677 42.2725 134.789 42.2725H143.366C143.478 42.2725 143.586 42.3171 143.665 42.3965C143.745 42.4758 143.789 42.5835 143.789 42.6958V44.5077C143.789 44.6199 143.745 44.7276 143.665 44.807C143.586 44.8864 143.478 44.931 143.366 44.931ZM135.213 44.0843H142.943V43.1191H135.213V44.0843Z" fill="#2C0F6B"/>
<path d="M141.757 25.1348H136.398V42.6946H141.757V25.1348Z" fill="white"/>
<path d="M141.757 43.1184H136.398C136.286 43.1184 136.178 43.0738 136.099 42.9945C136.019 42.9151 135.975 42.8074 135.975 42.6951V25.1352C135.975 25.023 136.019 24.9153 136.099 24.8359C136.178 24.7565 136.286 24.7119 136.398 24.7119H141.757C141.87 24.7119 141.977 24.7565 142.057 24.8359C142.136 24.9153 142.181 25.023 142.181 25.1352V42.6951C142.181 42.8074 142.136 42.9151 142.057 42.9945C141.977 43.0738 141.87 43.1184 141.757 43.1184ZM136.821 42.2718H141.334V25.5586H136.821V42.2718Z" fill="#2C0F6B"/>
<path d="M121.243 18.9131C123.721 18.9131 125.73 16.9041 125.73 14.4258C125.73 11.9475 123.721 9.93848 121.243 9.93848C118.764 9.93848 116.755 11.9475 116.755 14.4258C116.755 16.9041 118.764 18.9131 121.243 18.9131Z" fill="#C2B6D6"/>
<path d="M121.243 19.336C120.271 19.336 119.322 19.048 118.514 18.5084C117.707 17.9688 117.078 17.2019 116.706 16.3045C116.334 15.4072 116.237 14.4199 116.426 13.4673C116.616 12.5147 117.084 11.6397 117.77 10.953C118.457 10.2662 119.332 9.79849 120.285 9.60901C121.237 9.41953 122.225 9.51678 123.122 9.88845C124.019 10.2601 124.786 10.8895 125.326 11.6971C125.865 12.5047 126.153 13.4541 126.153 14.4253C126.151 15.727 125.633 16.9748 124.713 17.8952C123.792 18.8157 122.544 19.3337 121.243 19.336ZM121.243 10.3613C120.439 10.3613 119.653 10.5997 118.985 11.0462C118.317 11.4928 117.796 12.1275 117.488 12.8701C117.18 13.6127 117.1 14.4298 117.257 15.2182C117.414 16.0065 117.801 16.7306 118.369 17.299C118.937 17.8674 119.662 18.2544 120.45 18.4112C121.238 18.568 122.055 18.4876 122.798 18.18C123.541 17.8724 124.175 17.3515 124.622 16.6832C125.068 16.0148 125.307 15.2291 125.307 14.4253C125.304 13.3482 124.876 12.3158 124.114 11.5541C123.352 10.7924 122.32 10.3636 121.243 10.3613Z" fill="#2C0F6B"/>
<path d="M121.988 12.9688H120.531V15.9575H121.988V12.9688Z" fill="#2C0F6B"/>
<path d="M121.988 16.3813H120.531C120.419 16.3813 120.312 16.3367 120.232 16.2573C120.153 16.1779 120.108 16.0702 120.108 15.958V12.9692C120.108 12.857 120.153 12.7493 120.232 12.6699C120.312 12.5905 120.419 12.5459 120.531 12.5459H121.988C122.1 12.5459 122.208 12.5905 122.287 12.6699C122.366 12.7493 122.411 12.857 122.411 12.9692V15.958C122.411 16.0702 122.366 16.1779 122.287 16.2573C122.208 16.3367 122.1 16.3813 121.988 16.3813ZM120.955 15.5346H121.564V13.3926H120.955V15.5346Z" fill="#2C0F6B"/>
<path d="M220.98 24.4414H175.26C173.704 24.4414 172.212 25.0596 171.111 26.16C170.011 27.2603 169.393 28.7527 169.393 30.3088C169.39 31.0851 169.542 31.854 169.839 32.5712C170.136 33.2884 170.573 33.9394 171.123 34.4868C171.674 35.0341 172.327 35.4667 173.046 35.7596C173.765 36.0525 174.535 36.1999 175.311 36.1932H175.624C176.433 36.1954 177.209 36.5184 177.78 37.0914C178.351 37.6643 178.672 38.4405 178.672 39.2496C178.672 40.058 178.351 40.8333 177.779 41.4049C177.208 41.9765 176.432 42.2976 175.624 42.2976H163.771C163.133 42.2885 162.517 42.5315 162.057 42.9738C161.598 43.4162 161.331 44.022 161.315 44.6598C161.315 45.3028 161.57 45.9196 162.024 46.3751C162.478 46.8305 163.094 47.0875 163.737 47.0898H209.127C209.502 47.0898 209.861 46.9408 210.126 46.6756C210.392 46.4105 210.541 46.0508 210.541 45.6758V45.0832C210.541 44.7104 210.689 44.3529 210.952 44.0894C211.216 43.8258 211.573 43.6777 211.946 43.6777H218.203C218.576 43.6777 218.933 43.5296 219.197 43.266C219.46 43.0025 219.608 42.645 219.608 42.2722V37.5817C219.615 37.2183 219.761 36.8714 220.016 36.6128C220.272 36.3543 220.617 36.204 220.98 36.1932C221.165 36.1943 221.349 36.1588 221.52 36.0886C221.692 36.0185 221.848 35.9151 221.979 35.7845C222.111 35.6539 222.215 35.4986 222.286 35.3275C222.357 35.1564 222.394 34.973 222.394 34.7877V25.8469C222.394 25.6616 222.357 25.4782 222.286 25.3071C222.215 25.136 222.111 24.9807 221.979 24.8501C221.848 24.7195 221.692 24.6161 221.52 24.546C221.349 24.4758 221.165 24.4403 220.98 24.4414Z" fill="#F2EFF8"/>
<path d="M188.045 48.7656H173.888C172.916 48.7656 172.127 49.5541 172.127 50.5267C172.127 51.4993 172.916 52.2878 173.888 52.2878H188.045C189.017 52.2878 189.806 51.4993 189.806 50.5267C189.806 49.5541 189.017 48.7656 188.045 48.7656Z" fill="#F2EFF8"/>
<path d="M227.736 16.5674H215.934C214.994 16.5674 214.232 17.3274 214.232 18.265C214.232 19.2025 214.994 19.9625 215.934 19.9625H227.736C228.676 19.9625 229.438 19.2025 229.438 18.265C229.438 17.3274 228.676 16.5674 227.736 16.5674Z" fill="#F2EFF8"/>
<path d="M223.774 22.8496H208.229C206.219 22.8496 204.589 24.4796 204.589 26.4903C204.589 28.501 206.219 30.1309 208.229 30.1309H223.774C225.785 30.1309 227.415 28.501 227.415 26.4903C227.415 24.4796 225.785 22.8496 223.774 22.8496Z" fill="#F2EFF8"/>
<path d="M234.374 21.4443H232.385C231.445 21.4443 230.683 22.2044 230.683 23.1419C230.683 24.0794 231.445 24.8395 232.385 24.8395H234.374C235.314 24.8395 236.076 24.0794 236.076 23.1419C236.076 22.2044 235.314 21.4443 234.374 21.4443Z" fill="#F2EFF8"/>
<path d="M219.295 34.2119H182.668V55.4971H219.295V34.2119Z" fill="#C2B6D6"/>
<path d="M187.715 34.3135H179.129V36.1253H187.715V34.3135Z" fill="white"/>
<path d="M187.715 36.5492H179.129C179.017 36.5492 178.909 36.5046 178.83 36.4252C178.751 36.3458 178.706 36.2381 178.706 36.1258V34.314C178.706 34.2017 178.751 34.094 178.83 34.0146C178.909 33.9352 179.017 33.8906 179.129 33.8906H187.715C187.827 33.8906 187.934 33.9352 188.014 34.0146C188.093 34.094 188.138 34.2017 188.138 34.314V36.1258C188.136 36.2374 188.09 36.3438 188.011 36.4228C187.933 36.5017 187.826 36.547 187.715 36.5492ZM179.553 35.7025H187.291V34.7373H179.553V35.7025Z" fill="#2C0F6B"/>
<path d="M187.715 53.6855H179.129V55.4974H187.715V53.6855Z" fill="white"/>
<path d="M187.715 55.9203H179.129C179.017 55.9203 178.909 55.8757 178.83 55.7963C178.751 55.7169 178.706 55.6092 178.706 55.4969V53.6851C178.706 53.5728 178.751 53.4651 178.83 53.3857C178.909 53.3063 179.017 53.2617 179.129 53.2617H187.715C187.827 53.2617 187.934 53.3063 188.014 53.3857C188.093 53.4651 188.138 53.5728 188.138 53.6851V55.4969C188.138 55.6092 188.093 55.7169 188.014 55.7963C187.934 55.8757 187.827 55.9203 187.715 55.9203ZM179.553 55.0736H187.291V54.1084H179.553V55.0736Z" fill="#2C0F6B"/>
<path d="M227.093 55.5996H175.048V57.4115H227.093V55.5996Z" fill="#2C0F6B"/>
<path d="M227.093 57.8343H175.048C174.937 57.8321 174.83 57.7869 174.751 57.7079C174.672 57.629 174.627 57.5226 174.625 57.411V55.5991C174.625 55.4868 174.67 55.3792 174.749 55.2998C174.828 55.2204 174.936 55.1758 175.048 55.1758H227.093C227.205 55.1758 227.313 55.2204 227.392 55.2998C227.472 55.3792 227.516 55.4868 227.516 55.5991V57.411C227.514 57.5226 227.469 57.629 227.39 57.7079C227.311 57.7869 227.205 57.8321 227.093 57.8343ZM175.446 56.9876H226.644V56.0224H175.472L175.446 56.9876Z" fill="#2C0F6B"/>
<path d="M227.982 32.3994H174.168V34.2113H227.982V32.3994Z" fill="white"/>
<path d="M227.974 34.6351H174.168C174.056 34.6351 173.948 34.5905 173.868 34.5111C173.789 34.4317 173.745 34.324 173.745 34.2118V32.3999C173.745 32.2876 173.789 32.1799 173.868 32.1006C173.948 32.0212 174.056 31.9766 174.168 31.9766H227.974C228.086 31.9766 228.193 32.0212 228.273 32.1006C228.352 32.1799 228.397 32.2876 228.397 32.3999V34.2118C228.397 34.324 228.352 34.4317 228.273 34.5111C228.193 34.5905 228.086 34.6351 227.974 34.6351ZM174.633 33.7884H227.593V32.8063H174.591L174.633 33.7884Z" fill="#2C0F6B"/>
<path d="M226.56 32.2985H175.582V30.4867L200.982 14.6201L226.56 30.4867V32.2985Z" fill="white"/>
<path d="M226.56 32.7217H175.582C175.47 32.7217 175.362 32.6771 175.282 32.5977C175.203 32.5183 175.158 32.4107 175.158 32.2984V30.4865C175.159 30.4147 175.177 30.3442 175.213 30.2819C175.249 30.2196 175.3 30.1675 175.362 30.1309L200.762 14.2644C200.828 14.2231 200.904 14.2012 200.982 14.2012C201.06 14.2012 201.136 14.2231 201.202 14.2644L226.78 30.1309C226.841 30.1675 226.893 30.2196 226.928 30.2819C226.964 30.3442 226.983 30.4147 226.983 30.4865V32.2984C226.983 32.354 226.972 32.409 226.951 32.4604C226.929 32.5118 226.898 32.5584 226.859 32.5977C226.82 32.637 226.773 32.6682 226.722 32.6895C226.67 32.7108 226.615 32.7217 226.56 32.7217ZM176.005 31.8751H226.136V30.7236L200.982 15.1195L176.005 30.7236V31.8751Z" fill="#2C0F6B"/>
<path d="M186.097 36.125H180.738V53.6849H186.097V36.125Z" fill="white"/>
<path d="M186.097 54.1087H180.738C180.626 54.1087 180.518 54.0641 180.439 53.9847C180.359 53.9053 180.315 53.7976 180.315 53.6854V36.1255C180.315 36.0132 180.359 35.9055 180.439 35.8261C180.518 35.7467 180.626 35.7021 180.738 35.7021H186.097C186.21 35.7021 186.317 35.7467 186.397 35.8261C186.476 35.9055 186.521 36.0132 186.521 36.1255V53.6854C186.521 53.7976 186.476 53.9053 186.397 53.9847C186.317 54.0641 186.21 54.1087 186.097 54.1087ZM181.161 53.262H185.674V36.5488H181.187L181.161 53.262Z" fill="#2C0F6B"/>
<path d="M199.365 34.3135H190.779V36.1253H199.365V34.3135Z" fill="white"/>
<path d="M199.365 36.5492H190.779C190.668 36.547 190.561 36.5017 190.482 36.4228C190.404 36.3438 190.358 36.2374 190.356 36.1258V34.314C190.356 34.2017 190.401 34.094 190.48 34.0146C190.559 33.9352 190.667 33.8906 190.779 33.8906H199.365C199.477 33.8906 199.585 33.9352 199.664 34.0146C199.743 34.094 199.788 34.2017 199.788 34.314V36.1258C199.788 36.1814 199.777 36.2365 199.756 36.2878C199.734 36.3392 199.703 36.3859 199.664 36.4252C199.625 36.4645 199.578 36.4957 199.527 36.5169C199.475 36.5382 199.42 36.5492 199.365 36.5492ZM191.203 35.7025H198.967V34.7373H191.228L191.203 35.7025Z" fill="#2C0F6B"/>
<path d="M199.365 53.6855H190.779V55.4974H199.365V53.6855Z" fill="white"/>
<path d="M199.365 55.9203H190.779C190.667 55.9203 190.559 55.8757 190.48 55.7963C190.401 55.7169 190.356 55.6092 190.356 55.4969V53.6851C190.356 53.5728 190.401 53.4651 190.48 53.3857C190.559 53.3063 190.667 53.2617 190.779 53.2617H199.365C199.477 53.2617 199.585 53.3063 199.664 53.3857C199.743 53.4651 199.788 53.5728 199.788 53.6851V55.4969C199.788 55.5525 199.777 55.6076 199.756 55.6589C199.734 55.7103 199.703 55.757 199.664 55.7963C199.625 55.8356 199.578 55.8668 199.527 55.888C199.475 55.9093 199.42 55.9203 199.365 55.9203ZM191.203 55.0736H198.967V54.1084H191.228L191.203 55.0736Z" fill="#2C0F6B"/>
<path d="M197.756 36.125H192.397V53.6849H197.756V36.125Z" fill="white"/>
<path d="M197.756 54.1087H192.397C192.284 54.1087 192.177 54.0641 192.097 53.9847C192.018 53.9053 191.973 53.7976 191.973 53.6854V36.1255C191.973 36.0132 192.018 35.9055 192.097 35.8261C192.177 35.7467 192.284 35.7021 192.397 35.7021H197.756C197.868 35.7021 197.976 35.7467 198.055 35.8261C198.135 35.9055 198.179 36.0132 198.179 36.1255V53.6854C198.179 53.7976 198.135 53.9053 198.055 53.9847C197.976 54.0641 197.868 54.1087 197.756 54.1087ZM192.82 53.262H197.333V36.5488H192.82V53.262Z" fill="#2C0F6B"/>
<path d="M211.142 34.3135H202.557V36.1253H211.142V34.3135Z" fill="white"/>
<path d="M211.142 36.5492H202.557C202.445 36.547 202.339 36.5017 202.26 36.4228C202.181 36.3438 202.135 36.2374 202.133 36.1258V34.314C202.133 34.2017 202.178 34.094 202.257 34.0146C202.337 33.9352 202.444 33.8906 202.557 33.8906H211.142C211.254 33.8906 211.362 33.9352 211.441 34.0146C211.52 34.094 211.565 34.2017 211.565 34.314V36.1258C211.565 36.2381 211.52 36.3458 211.441 36.4252C211.362 36.5046 211.254 36.5492 211.142 36.5492ZM202.98 35.7025H210.718V34.7373H202.98V35.7025Z" fill="#2C0F6B"/>
<path d="M211.142 53.6855H202.557V55.4974H211.142V53.6855Z" fill="white"/>
<path d="M211.142 55.9203H202.557C202.444 55.9203 202.337 55.8757 202.257 55.7963C202.178 55.7169 202.133 55.6092 202.133 55.4969V53.6851C202.133 53.5728 202.178 53.4651 202.257 53.3857C202.337 53.3063 202.444 53.2617 202.557 53.2617H211.142C211.254 53.2617 211.362 53.3063 211.441 53.3857C211.52 53.4651 211.565 53.5728 211.565 53.6851V55.4969C211.565 55.6092 211.52 55.7169 211.441 55.7963C211.362 55.8757 211.254 55.9203 211.142 55.9203ZM202.98 55.0736H210.718V54.1084H202.98V55.0736Z" fill="#2C0F6B"/>
<path d="M209.533 36.125H204.174V53.6849H209.533V36.125Z" fill="white"/>
<path d="M209.525 54.1087H204.174C204.061 54.1087 203.954 54.0641 203.874 53.9847C203.795 53.9053 203.75 53.7976 203.75 53.6854V36.1255C203.75 36.0132 203.795 35.9055 203.874 35.8261C203.954 35.7467 204.061 35.7021 204.174 35.7021H209.525C209.637 35.7021 209.745 35.7467 209.824 35.8261C209.903 35.9055 209.948 36.0132 209.948 36.1255V53.6854C209.948 53.7976 209.903 53.9053 209.824 53.9847C209.745 54.0641 209.637 54.1087 209.525 54.1087ZM204.597 53.262H209.127V36.5488H204.622L204.597 53.262Z" fill="#2C0F6B"/>
<path d="M223.156 34.3135H214.571V36.1253H223.156V34.3135Z" fill="white"/>
<path d="M223.156 36.5492H214.571C214.458 36.5492 214.351 36.5046 214.271 36.4252C214.192 36.3458 214.147 36.2381 214.147 36.1258V34.314C214.147 34.2017 214.192 34.094 214.271 34.0146C214.351 33.9352 214.458 33.8906 214.571 33.8906H223.156C223.268 33.8906 223.376 33.9352 223.455 34.0146C223.535 34.094 223.579 34.2017 223.579 34.314V36.1258C223.577 36.2374 223.532 36.3438 223.453 36.4228C223.374 36.5017 223.268 36.547 223.156 36.5492ZM214.994 35.7025H222.733V34.7373H214.994V35.7025Z" fill="#2C0F6B"/>
<path d="M223.156 53.6855H214.571V55.4974H223.156V53.6855Z" fill="white"/>
<path d="M223.156 55.9203H214.571C214.458 55.9203 214.351 55.8757 214.271 55.7963C214.192 55.7169 214.147 55.6092 214.147 55.4969V53.6851C214.147 53.5728 214.192 53.4651 214.271 53.3857C214.351 53.3063 214.458 53.2617 214.571 53.2617H223.156C223.268 53.2617 223.376 53.3063 223.455 53.3857C223.535 53.4651 223.579 53.5728 223.579 53.6851V55.4969C223.579 55.6092 223.535 55.7169 223.455 55.7963C223.376 55.8757 223.268 55.9203 223.156 55.9203ZM214.994 55.0736H222.733V54.1084H214.994V55.0736Z" fill="#2C0F6B"/>
<path d="M221.539 36.125H216.179V53.6849H221.539V36.125Z" fill="white"/>
<path d="M221.539 54.1087H216.179C216.067 54.1087 215.959 54.0641 215.88 53.9847C215.801 53.9053 215.756 53.7976 215.756 53.6854V36.1255C215.756 36.0132 215.801 35.9055 215.88 35.8261C215.959 35.7467 216.067 35.7021 216.179 35.7021H221.539C221.651 35.7021 221.759 35.7467 221.838 35.8261C221.918 35.9055 221.962 36.0132 221.962 36.1255V53.6854C221.962 53.7976 221.918 53.9053 221.838 53.9847C221.759 54.0641 221.651 54.1087 221.539 54.1087ZM216.603 53.262H221.116V36.5488H216.603V53.262Z" fill="#2C0F6B"/>
<path d="M201.024 29.8936C203.502 29.8936 205.511 27.8846 205.511 25.4063C205.511 22.928 203.502 20.9189 201.024 20.9189C198.546 20.9189 196.537 22.928 196.537 25.4063C196.537 27.8846 198.546 29.8936 201.024 29.8936Z" fill="#C2B6D6"/>
<path d="M201.024 30.3256C200.051 30.3272 199.099 30.0402 198.289 29.5007C197.479 28.9612 196.847 28.1935 196.473 27.2948C196.1 26.3961 196.001 25.4067 196.19 24.452C196.379 23.4972 196.847 22.6199 197.534 21.9311C198.222 21.2423 199.098 20.7729 200.053 20.5824C201.007 20.392 201.997 20.4889 202.896 20.8609C203.795 21.233 204.564 21.8635 205.105 22.6726C205.646 23.4818 205.935 24.4332 205.935 25.4064C205.935 26.7096 205.418 27.9595 204.497 28.8818C203.576 29.8041 202.327 30.3233 201.024 30.3256ZM201.024 21.3424C200.218 21.3408 199.429 21.5784 198.758 22.0252C198.087 22.4721 197.564 23.108 197.255 23.8525C196.946 24.597 196.864 25.4165 197.021 26.2073C197.178 26.9981 197.566 27.7245 198.136 28.2946C198.706 28.8646 199.432 29.2526 200.223 29.4095C201.014 29.5664 201.834 29.485 202.578 29.1757C203.323 28.8665 203.958 28.3432 204.405 27.6722C204.852 27.0011 205.09 26.2126 205.088 25.4064C205.086 24.3293 204.657 23.2969 203.895 22.5352C203.134 21.7736 202.101 21.3447 201.024 21.3424Z" fill="#2C0F6B"/>
<path d="M201.769 23.9512H200.313V26.9399H201.769V23.9512Z" fill="#2C0F6B"/>
<path d="M201.769 27.3712H200.313C200.201 27.3712 200.093 27.3266 200.014 27.2472C199.934 27.1678 199.89 27.0602 199.89 26.9479V23.9507C199.89 23.8384 199.934 23.7307 200.014 23.6513C200.093 23.5719 200.201 23.5273 200.313 23.5273H201.769C201.881 23.5273 201.989 23.5719 202.069 23.6513C202.148 23.7307 202.193 23.8384 202.193 23.9507V26.9479C202.193 27.0602 202.148 27.1678 202.069 27.2472C201.989 27.3266 201.881 27.3712 201.769 27.3712ZM200.736 26.5245H201.346V24.3401H200.736V26.5245Z" fill="#2C0F6B"/>
<path d="M182.999 18.5152C182.899 18.5166 182.802 18.4803 182.728 18.4136L169.333 7.1699C169.253 7.08896 169.207 6.97936 169.207 6.86509C169.207 6.75083 169.253 6.64123 169.333 6.56029C169.368 6.51738 169.412 6.48194 169.461 6.45608C169.51 6.43022 169.564 6.41445 169.619 6.40972C169.674 6.40498 169.73 6.41137 169.783 6.42851C169.835 6.44565 169.884 6.47318 169.926 6.50949L183.286 17.7617C183.352 17.8177 183.399 17.8924 183.421 17.9757C183.443 18.0591 183.439 18.1471 183.409 18.2281C183.38 18.3091 183.326 18.3792 183.256 18.429C183.186 18.4788 183.102 18.5059 183.015 18.5068L182.999 18.5152Z" fill="#74DCB9"/>
<path d="M186.622 15.0271C186.531 15.0271 186.442 14.9974 186.368 14.9424C186.295 14.8874 186.242 14.8102 186.216 14.7223L182.922 3.96113C182.905 3.90834 182.899 3.85269 182.904 3.79748C182.909 3.74227 182.925 3.68861 182.951 3.63968C182.977 3.59075 183.013 3.54753 183.056 3.51258C183.099 3.47763 183.149 3.45166 183.202 3.4362C183.254 3.41804 183.31 3.41093 183.366 3.41532C183.422 3.41971 183.476 3.43551 183.525 3.46172C183.574 3.48793 183.618 3.52399 183.652 3.56767C183.687 3.61135 183.712 3.6617 183.727 3.7156L187.029 14.4767C187.06 14.5845 187.047 14.7004 186.993 14.7988C186.939 14.8973 186.849 14.9702 186.741 15.0017C186.704 15.019 186.663 15.0277 186.622 15.0271Z" fill="#74DCB9"/>
<path d="M221.471 20.4963C221.383 20.4958 221.298 20.4693 221.226 20.4201C221.18 20.388 221.141 20.3471 221.111 20.2999C221.081 20.2527 221.061 20.2 221.051 20.1449C221.042 20.0898 221.043 20.0334 221.056 19.9789C221.068 19.9244 221.091 19.8729 221.124 19.8274L225.213 14.0447C225.245 13.9989 225.286 13.9599 225.334 13.93C225.381 13.9001 225.433 13.8798 225.489 13.8703C225.544 13.8609 225.6 13.8625 225.655 13.8749C225.709 13.8874 225.761 13.9106 225.806 13.9431C225.897 14.0093 225.958 14.1082 225.977 14.2188C225.996 14.3294 225.971 14.4431 225.908 14.5357L221.827 20.31C221.788 20.3686 221.735 20.4164 221.673 20.449C221.611 20.4816 221.541 20.4978 221.471 20.4963Z" fill="#74DCB9"/>
<path d="M225.281 23.7986C225.169 23.82 225.053 23.7958 224.958 23.7315C224.864 23.6672 224.799 23.568 224.777 23.4557C224.756 23.3435 224.78 23.2273 224.844 23.1328C224.909 23.0384 225.008 22.9733 225.12 22.952L241.054 16.5427C241.159 16.5012 241.276 16.5028 241.379 16.5473C241.482 16.5917 241.563 16.6754 241.605 16.7798C241.646 16.8842 241.645 17.0008 241.6 17.104C241.556 17.2072 241.472 17.2886 241.368 17.3301L225.433 23.7394C225.386 23.7677 225.335 23.7877 225.281 23.7986Z" fill="#74DCB9"/>
<path d="M170.053 67.4521C169.965 67.4517 169.88 67.4251 169.807 67.3759C169.718 67.3084 169.659 67.2089 169.641 67.0984C169.624 66.9878 169.65 66.8748 169.714 66.7832L172.314 63.1426C172.379 63.0505 172.478 62.9881 172.589 62.969C172.7 62.95 172.814 62.9758 172.906 63.041C172.998 63.1061 173.061 63.2051 173.08 63.3162C173.099 63.4274 173.073 63.5416 173.008 63.6336L170.4 67.2743C170.361 67.3301 170.309 67.3755 170.249 67.4065C170.188 67.4375 170.121 67.4532 170.053 67.4521Z" fill="#74DCB9"/>
<path d="M168.537 55.9291L161.095 55.8614C161.04 55.8603 160.985 55.8483 160.934 55.826C160.883 55.8037 160.837 55.7715 160.798 55.7314C160.76 55.6913 160.73 55.644 160.709 55.5923C160.689 55.5405 160.679 55.4852 160.68 55.4296C160.68 55.3744 160.691 55.3197 160.713 55.2689C160.734 55.218 160.765 55.1718 160.805 55.1332C160.844 55.0946 160.891 55.0642 160.942 55.0438C160.994 55.0235 161.049 55.0136 161.104 55.0147L168.546 55.0825C168.658 55.0825 168.766 55.1271 168.845 55.2065C168.925 55.2858 168.969 55.3935 168.969 55.5058C168.969 55.6181 168.925 55.7257 168.845 55.8051C168.766 55.8845 168.658 55.9291 168.546 55.9291H168.537Z" fill="#74DCB9"/>
<path d="M157.48 65.4967C157.396 65.4999 157.312 65.4762 157.242 65.4291C157.172 65.3819 157.119 65.3137 157.091 65.2342C157.07 65.1826 157.06 65.1273 157.06 65.0716C157.061 65.016 157.073 64.961 157.095 64.9099C157.117 64.8588 157.149 64.8125 157.189 64.7737C157.229 64.735 157.276 64.7044 157.328 64.6839L169.486 59.9002C169.537 59.8796 169.593 59.8694 169.648 59.8702C169.704 59.8709 169.759 59.8826 169.81 59.9047C169.861 59.9267 169.907 59.9586 169.946 59.9985C169.985 60.0384 170.016 60.0856 170.036 60.1373C170.075 60.2419 170.073 60.3577 170.029 60.4603C169.984 60.5629 169.902 60.6444 169.799 60.6876L157.624 65.4882C157.577 65.4976 157.528 65.5004 157.48 65.4967Z" fill="#74DCB9"/>
<path d="M180.001 22.0966L173.05 21.6733C172.995 21.67 172.94 21.6558 172.89 21.6315C172.84 21.6072 172.795 21.5732 172.758 21.5315C172.721 21.4898 172.693 21.4413 172.675 21.3886C172.656 21.3359 172.649 21.2802 172.652 21.2245C172.654 21.1685 172.668 21.1135 172.692 21.0628C172.716 21.0122 172.75 20.9669 172.792 20.9297C172.834 20.8925 172.883 20.8642 172.936 20.8465C172.989 20.8287 173.045 20.822 173.101 20.8266L180.061 21.2499C180.173 21.2499 180.281 21.2945 180.36 21.3739C180.439 21.4533 180.484 21.561 180.484 21.6733C180.484 21.7855 180.439 21.8932 180.36 21.9726C180.281 22.052 180.173 22.0966 180.061 22.0966H180.001Z" fill="#74DCB9"/>
<path d="M223.19 62.8038C228.848 62.8038 233.434 58.2171 233.434 52.5591C233.434 46.9011 228.848 42.3145 223.19 42.3145C217.532 42.3145 212.945 46.9011 212.945 52.5591C212.945 58.2171 217.532 62.8038 223.19 62.8038Z" fill="white"/>
<path d="M223.19 63.2276C221.08 63.2276 219.017 62.6019 217.263 61.4297C215.509 60.2575 214.141 58.5914 213.334 56.6421C212.526 54.6927 212.315 52.5478 212.727 50.4784C213.138 48.409 214.154 46.5081 215.646 45.0162C217.138 43.5242 219.039 42.5082 221.109 42.0966C223.178 41.685 225.323 41.8962 227.272 42.7037C229.222 43.5111 230.888 44.8784 232.06 46.6328C233.232 48.3871 233.858 50.4497 233.858 52.5596C233.856 55.3882 232.731 58.1004 230.731 60.1005C228.731 62.1007 226.018 63.2254 223.19 63.2276ZM223.19 42.7467C221.247 42.7467 219.348 43.323 217.732 44.4025C216.117 45.4821 214.858 47.0165 214.115 48.8116C213.372 50.6067 213.178 52.5819 213.558 54.4872C213.937 56.3926 214.874 58.1426 216.248 59.5158C217.622 60.889 219.373 61.8237 221.279 62.2017C223.185 62.5797 225.16 62.384 226.954 61.6394C228.749 60.8947 230.282 59.6346 231.36 58.0184C232.438 56.4021 233.013 54.5024 233.011 52.5596C233.009 49.9563 231.973 47.4604 230.132 45.6203C228.29 43.7803 225.793 42.7467 223.19 42.7467Z" fill="#2C0F6B"/>
<path d="M219.456 53.9141C220.475 53.9141 221.302 53.0878 221.302 52.0684C221.302 51.049 220.475 50.2227 219.456 50.2227C218.437 50.2227 217.61 51.049 217.61 52.0684C217.61 53.0878 218.437 53.9141 219.456 53.9141Z" fill="#2C0F6B"/>
<path d="M221.107 54.6844L224.494 48.7578C224.557 48.6411 224.651 48.5443 224.766 48.4785C224.882 48.4126 225.013 48.3803 225.146 48.3853H227.914C228.045 48.3856 228.173 48.4202 228.286 48.4857C228.399 48.5513 228.493 48.6453 228.558 48.7586C228.623 48.8718 228.658 49.0001 228.657 49.1308C228.657 49.2614 228.623 49.3897 228.558 49.5029L223.842 57.7494C223.776 57.8618 223.682 57.9551 223.569 58.0199C223.456 58.0847 223.328 58.1188 223.198 58.1188C223.068 58.1188 222.94 58.0847 222.827 58.0199C222.714 57.9551 222.62 57.8618 222.555 57.7494L221.115 55.3872C221.056 55.2798 221.025 55.1595 221.023 55.0369C221.022 54.9143 221.05 54.7932 221.107 54.6844Z" fill="#74DCB9"/>
</svg>
