<svg width="269" height="176" viewBox="0 0 269 176" fill="none" xmlns="http://www.w3.org/2000/svg">
<path d="M132.936 170.034L130.372 171.163C130.372 171.163 120.815 160.602 114.989 147.237C113.85 137.183 109.182 129.969 105.384 126.851C102.552 124.535 100.342 121.847 99.3087 120.508C99.3087 120.508 112.559 128.735 115.591 133.786C118.49 138.646 124.88 158.966 132.936 170.034Z" fill="#E6E2EE"/>
<path d="M129.013 169.106L130.62 170.962C130.62 170.962 138.015 168.13 137.815 167.097C137.614 166.064 134.763 165.806 134.763 165.806L129.013 169.106Z" fill="#C2B6D6"/>
<path d="M108.34 169.106H115.275C115.275 169.106 117.074 170.379 117.103 170.886C117.141 171.393 115.993 171.756 113.563 171.823C111.133 171.9 108.961 171.651 108.961 171.651L108.34 169.106Z" fill="#C2B6D6"/>
<path d="M202.973 163.108L203.432 161.865L208.292 160.238L209.832 168.695L203.863 171.173L201.184 171.087L202.973 163.108Z" fill="#C2B6D6"/>
<path d="M195.119 164.514L195.071 168.599C195.071 168.599 193.11 169.307 192.574 170.474C192.038 171.632 192.622 171.708 192.622 171.708H200.534L203.002 163.558L194.861 163.73L195.119 164.514Z" fill="#C2B6D6"/>
<path d="M190.699 18.6709H102.427C96.1709 18.6709 91.1005 23.7412 91.1005 29.9978C91.1005 36.2544 96.1709 41.3248 102.427 41.3248H103.03C106.283 41.3248 108.923 43.9652 108.923 47.2178C108.923 50.4705 106.283 53.1109 103.03 53.1109H80.0702C77.4872 53.1109 75.3825 55.206 75.3825 57.7986C75.3825 60.3816 77.4776 62.4862 80.0702 62.4862H167.739C169.241 62.4862 170.456 61.2713 170.456 59.7693V58.5639C170.456 57.0619 171.671 55.847 173.173 55.847H185.256C186.758 55.847 187.973 54.632 187.973 53.13V44.0704C187.973 42.5684 189.188 41.3535 190.69 41.3535C192.192 41.3535 193.406 40.1385 193.406 38.6365V21.4165C193.416 19.8859 192.201 18.6709 190.699 18.6709Z" fill="#F2EFF8"/>
<path d="M108.349 72.4457H135.691C137.566 72.4457 139.087 70.9245 139.087 69.0495C139.087 67.1744 137.566 65.6533 135.691 65.6533H108.349C106.474 65.6533 104.953 67.1744 104.953 69.0495C104.944 70.9245 106.465 72.4457 108.349 72.4457Z" fill="#F2EFF8"/>
<path d="M193.521 7.99456H209.287C210.54 7.99456 211.554 6.98049 211.554 5.72726C211.554 4.47403 210.54 3.45996 209.287 3.45996H193.521C192.268 3.45996 191.254 4.47403 191.254 5.72726C191.254 6.98049 192.268 7.99456 193.521 7.99456Z" fill="#F2EFF8"/>
<path d="M183.247 21.5606H203.997C206.685 21.5606 208.857 19.3889 208.857 16.7007C208.857 14.0125 206.685 11.8408 203.997 11.8408H183.247C180.558 11.8408 178.387 14.0125 178.387 16.7007C178.387 19.3889 180.558 21.5606 183.247 21.5606Z" fill="#F2EFF8"/>
<path d="M215.477 14.5004H218.146C219.399 14.5004 220.413 13.4864 220.413 12.2331C220.413 10.9799 219.399 9.96582 218.146 9.96582H215.477C214.224 9.96582 213.209 10.9799 213.209 12.2331C213.209 13.4864 214.224 14.5004 215.477 14.5004Z" fill="#F2EFF8"/>
<path d="M3.61338 175.67H0.542481C0.274615 175.67 0.0641479 175.459 0.0641479 175.191C0.0641479 174.923 0.274615 174.713 0.542481 174.713H3.61338C3.88125 174.713 4.09171 174.923 4.09171 175.191C4.09171 175.459 3.88125 175.67 3.61338 175.67Z" fill="#3F3F3F"/>
<path d="M85.9441 175.67H7.6601C7.39223 175.67 7.18176 175.459 7.18176 175.191C7.18176 174.923 7.39223 174.713 7.6601 174.713H85.9441C86.212 174.713 86.4225 174.923 86.4225 175.191C86.4225 175.459 86.212 175.67 85.9441 175.67Z" fill="#3F3F3F"/>
<path d="M142.856 175.67H91.9137C91.6459 175.67 91.4354 175.459 91.4354 175.191C91.4354 174.923 91.6459 174.713 91.9137 174.713H142.856C143.124 174.713 143.335 174.923 143.335 175.191C143.335 175.459 143.124 175.67 142.856 175.67Z" fill="#3F3F3F"/>
<path d="M245.602 175.67H142.856C142.588 175.67 142.378 175.459 142.378 175.191C142.378 174.923 142.588 174.713 142.856 174.713H245.602C245.87 174.713 246.081 174.923 246.081 175.191C246.081 175.459 245.87 175.67 245.602 175.67Z" fill="#3F3F3F"/>
<path d="M268.132 175.67H250.606C250.338 175.67 250.127 175.459 250.127 175.191C250.127 174.923 250.338 174.713 250.606 174.713H268.132C268.4 174.713 268.61 174.923 268.61 175.191C268.61 175.459 268.4 175.67 268.132 175.67Z" fill="#3F3F3F"/>
<path d="M209.976 120.164C207.058 124.22 198.419 130.802 196.85 136.437C196.21 138.723 195.798 144.148 195.54 149.897C195.54 149.897 194.076 147.046 192.622 143.325C192.22 142.292 191.78 141.192 191.417 139.967C191.895 136.351 193.005 132.409 195.358 129.453C198.075 126.057 209.976 120.164 209.976 120.164Z" fill="#E6E2EE"/>
<path d="M226.727 129.625C225.206 132.256 223.675 135.604 218.251 139.421C214.348 142.167 211.564 142.645 211.564 142.645L215.802 166.524V171.336H205.681V170.293L209.593 168.609L208.388 161.157C208.388 161.157 207.747 155.312 207.345 151.638C206.953 147.974 205.747 144.779 205.747 144.779C205.738 142.875 205.652 141.622 205.805 140.742C206.197 138.503 217.007 134.791 221.867 128.219C223.828 128.305 225.426 128.85 226.727 129.625Z" fill="#E6E2EE"/>
<path d="M169.078 172.11C168.811 172.11 168.6 171.9 168.6 171.632V111.687C168.6 111.419 168.811 111.209 169.078 111.209C169.346 111.209 169.557 111.419 169.557 111.687V171.632C169.557 171.9 169.337 172.11 169.078 172.11Z" fill="#2C0F6B"/>
<path d="M164.333 109.956L209.832 109.774V111.305H164.353L164.333 109.956Z" fill="#C2B6D6"/>
<path d="M209.832 111.783H164.353C164.094 111.783 163.874 111.573 163.874 111.314L163.855 109.966C163.855 109.841 163.903 109.717 163.989 109.621C164.075 109.525 164.199 109.478 164.324 109.478L209.823 109.296C209.947 109.296 210.072 109.344 210.158 109.439C210.244 109.525 210.301 109.65 210.301 109.774V111.305C210.311 111.573 210.091 111.783 209.832 111.783ZM164.821 110.827H209.345V110.253L164.812 110.425L164.821 110.827Z" fill="#2C0F6B"/>
<path d="M201.031 171.575C200.782 171.575 200.572 171.383 200.553 171.125C200.534 170.857 200.735 170.637 201.002 170.618L204.131 170.436L209.058 168.313L207.919 161.224L206.867 151.676C206.484 148.108 205.307 144.96 205.298 144.932C205.202 144.683 205.327 144.405 205.575 144.319C205.824 144.224 206.101 144.348 206.188 144.597C206.235 144.731 207.412 147.897 207.814 151.58L208.857 161.099L210.052 168.533C210.091 168.753 209.966 168.963 209.765 169.049L204.418 171.355C204.37 171.374 204.312 171.393 204.255 171.393L201.05 171.575C201.05 171.575 201.041 171.575 201.031 171.575Z" fill="#2C0F6B"/>
<path d="M200.888 172.187H192.364C192.125 172.187 191.933 172.015 191.895 171.785C191.895 171.757 191.531 169.288 194.593 168.246C194.602 166.648 194.669 159.808 194.928 152.834L195.052 149.868C195.368 142.894 195.817 138.331 196.382 136.303C197.444 132.495 201.519 128.391 205.106 124.765C206.905 122.957 208.598 121.245 209.584 119.877C209.708 119.695 209.832 119.532 209.928 119.379C210.072 119.159 210.359 119.083 210.588 119.226C210.808 119.37 210.885 119.657 210.741 119.886C210.636 120.058 210.502 120.25 210.359 120.441C209.335 121.866 207.613 123.608 205.786 125.444C202.275 128.984 198.305 132.992 197.31 136.561C196.764 138.493 196.315 143.114 196.009 149.906L195.884 152.853C195.588 160.774 195.54 168.514 195.54 168.59C195.54 168.801 195.396 168.992 195.195 169.049C193.339 169.566 192.928 170.637 192.842 171.211H200.505L201.481 167.165C201.643 166.619 201.787 166.112 201.93 165.615L202.131 164.907C204.992 154.489 205.288 148.414 205.269 144.75C205.269 144.243 205.26 143.793 205.25 143.372C205.231 142.176 205.212 141.315 205.336 140.627C205.537 139.46 207.489 138.302 210.445 136.542C213.946 134.456 218.749 131.605 221.494 127.893C222.566 126.458 223.235 125.033 223.541 123.56C223.714 122.775 223.819 121.991 223.876 121.149C224.211 115.734 221.456 112.74 221.427 112.711C221.245 112.52 221.255 112.214 221.446 112.032C221.638 111.85 221.944 111.86 222.126 112.051C222.25 112.185 225.196 115.352 224.833 121.206C224.776 122.096 224.661 122.928 224.479 123.751C224.144 125.339 223.398 126.927 222.26 128.458C219.399 132.313 214.511 135.231 210.933 137.355C208.704 138.675 206.408 140.043 206.283 140.78C206.178 141.382 206.188 142.205 206.207 143.344C206.216 143.765 206.226 144.224 206.226 144.731C206.245 148.452 205.939 154.613 203.05 165.146L202.849 165.854C202.705 166.361 202.562 166.878 202.409 167.394L201.347 171.776C201.309 172.034 201.108 172.187 200.888 172.187Z" fill="#2C0F6B"/>
<path d="M195.54 150.375C195.368 150.375 195.195 150.279 195.109 150.117C195.09 150.088 193.617 147.208 192.172 143.496L192.115 143.343C191.723 142.329 191.311 141.287 190.957 140.1C190.249 137.709 189.982 135.441 190.125 132.964C190.69 122.679 203.05 115.906 204.456 115.17C207.469 113.582 207.804 111.63 207.814 111.553C207.852 111.295 208.101 111.113 208.359 111.152C208.617 111.19 208.799 111.429 208.761 111.687C208.751 111.793 208.378 114.184 204.896 116.021C203.538 116.739 191.608 123.273 191.072 133.021C190.938 135.384 191.197 137.546 191.876 139.832C192.211 140.971 192.612 142.004 193.005 142.999L193.062 143.152C194.497 146.807 195.951 149.648 195.961 149.677C196.085 149.916 195.99 150.203 195.75 150.318C195.683 150.356 195.616 150.375 195.54 150.375Z" fill="#2C0F6B"/>
<path d="M202.964 164.237H195.128C194.861 164.237 194.65 164.026 194.65 163.759C194.65 163.491 194.861 163.28 195.128 163.28H202.964C203.231 163.28 203.442 163.491 203.442 163.759C203.442 164.026 203.231 164.237 202.964 164.237Z" fill="#2C0F6B"/>
<path d="M201.385 172.11C201.117 172.11 200.907 171.9 200.907 171.632V111.687C200.907 111.419 201.117 111.209 201.385 111.209C201.653 111.209 201.863 111.419 201.863 111.687V171.632C201.863 171.9 201.643 172.11 201.385 172.11Z" fill="#2C0F6B"/>
<path d="M213.755 90.947C213.123 90.947 212.042 90.7366 211.287 89.4451C210.081 87.4074 210.751 83.5903 210.78 83.4276C210.799 83.2937 210.923 83.2172 211.057 83.2363C211.191 83.2554 211.277 83.3798 211.248 83.5137C211.239 83.552 210.588 87.3213 211.698 89.1963C212.339 90.2774 213.209 90.4974 213.841 90.4591C214.692 90.4304 215.362 89.9808 215.515 89.6651C215.572 89.5503 215.716 89.5025 215.84 89.5599C215.955 89.6173 216.003 89.7608 215.946 89.8851C215.697 90.373 214.855 90.9088 213.86 90.9375C213.822 90.947 213.793 90.947 213.755 90.947Z" fill="#2C0F6B"/>
<path d="M213.42 88.0481C213.41 88.0481 213.401 88.0481 213.401 88.0481C213.19 88.0289 213.076 87.9237 213.009 87.8376C212.836 87.5984 212.913 87.254 212.999 86.8905L213.037 86.6992C213.133 86.2495 213.152 85.7616 213.152 85.7521C213.162 85.6181 213.276 85.532 213.401 85.5225C213.535 85.532 213.64 85.6373 213.63 85.7712C213.63 85.7903 213.611 86.3069 213.506 86.7948L213.458 86.9957C213.42 87.1775 213.343 87.4932 213.391 87.5602C213.525 87.5697 213.64 87.6941 213.63 87.828C213.621 87.9524 213.535 88.0481 213.42 88.0481Z" fill="#2C0F6B"/>
<path d="M215.745 85.0633C215.668 85.0633 215.592 85.025 215.544 84.958C215.151 84.3649 214.587 84.5562 214.558 84.5562C214.434 84.5945 214.3 84.5371 214.252 84.4032C214.214 84.2788 214.271 84.1449 214.405 84.097C214.731 83.9822 215.477 83.9631 215.946 84.6902C216.022 84.805 215.984 84.9485 215.879 85.025C215.84 85.0537 215.792 85.0633 215.745 85.0633Z" fill="#2C0F6B"/>
<path d="M211.526 84.8909C211.478 84.8909 211.43 84.8718 211.382 84.8431C211.277 84.7665 211.248 84.6135 211.334 84.5082C211.755 83.9342 212.358 83.9629 212.626 84.0586C212.75 84.1064 212.817 84.2404 212.769 84.3647C212.731 84.4891 212.597 84.5561 212.463 84.5082C212.415 84.4891 212.014 84.3743 211.717 84.7952C211.669 84.8622 211.602 84.8909 211.526 84.8909Z" fill="#2C0F6B"/>
<path d="M214.951 86.5559C214.817 86.5559 214.711 86.4507 214.711 86.3168V85.3983C214.711 85.2644 214.817 85.1592 214.951 85.1592C215.085 85.1592 215.19 85.2644 215.19 85.3983V86.3168C215.19 86.4507 215.085 86.5559 214.951 86.5559Z" fill="#2C0F6B"/>
<path d="M212.253 86.3928C212.119 86.3928 212.014 86.2876 212.014 86.1537V85.2831C212.014 85.1492 212.119 85.0439 212.253 85.0439C212.387 85.0439 212.492 85.1492 212.492 85.2831V86.1537C212.492 86.2876 212.387 86.3928 212.253 86.3928Z" fill="#2C0F6B"/>
<path d="M213.678 89.0622C213.525 89.0622 213.391 89.0431 213.286 89.0048C213.162 88.9666 213.095 88.8327 213.133 88.6987C213.171 88.5744 213.305 88.5074 213.43 88.5457C213.496 88.5648 214.09 88.7274 214.453 88.1152C214.52 88.0004 214.664 87.9621 214.778 88.029C214.893 88.096 214.931 88.2395 214.865 88.3543C214.549 88.9092 214.061 89.0622 213.678 89.0622Z" fill="#2C0F6B"/>
<path d="M217.486 90.5448C219.916 91.4824 221.045 89.5499 221.045 89.5499C219.265 89.8369 220.212 85.0153 218.71 82.2601C217.955 80.8729 216.998 79.7441 214.664 79.878C210.091 80.1459 210.722 84.0395 210.722 84.0395C213.334 83.7238 214.539 82.0209 214.539 82.0209C214.539 82.0209 217.495 82.8437 217.495 85.7328C217.505 88.7272 217.486 90.5448 217.486 90.5448Z" fill="#2C0F6B"/>
<path d="M218.758 91.0332C218.356 91.0332 217.907 90.9566 217.4 90.7653C217.304 90.727 217.247 90.641 217.247 90.5357C217.247 90.5357 217.266 88.718 217.266 85.7141C217.266 83.3798 215.218 82.4901 214.635 82.2892C214.271 82.7197 213.028 84.0017 210.76 84.2696C210.636 84.2887 210.512 84.193 210.493 84.0686C210.483 84.0017 210.234 82.3849 211.258 81.103C211.975 80.2133 213.114 79.7158 214.654 79.6297C216.988 79.4958 218.05 80.5386 218.921 82.1362C219.619 83.4181 219.801 85.0731 219.964 86.5368C220.097 87.7614 220.222 88.9094 220.643 89.2251C220.748 89.3016 220.863 89.3303 221.016 89.3016C221.102 89.2825 221.198 89.3303 221.255 89.3973C221.303 89.4738 221.312 89.5695 221.265 89.6556C221.245 89.6843 220.432 91.0332 218.758 91.0332ZM217.735 90.3731C219.256 90.8897 220.184 90.1913 220.605 89.7417C220.518 89.713 220.432 89.6652 220.356 89.6078C219.772 89.1677 219.648 88.0293 219.495 86.5847C219.342 85.1688 219.16 83.5521 218.509 82.3562C217.706 80.8734 216.787 79.9837 214.692 80.0985C213.296 80.175 212.272 80.6151 211.641 81.3996C210.961 82.251 210.923 83.2937 210.952 83.7529C213.267 83.3894 214.348 81.8779 214.367 81.8683C214.424 81.7822 214.53 81.744 214.625 81.7727C214.654 81.7822 217.754 82.6815 217.754 85.7141C217.744 88.1919 217.735 89.8565 217.735 90.3731Z" fill="#2C0F6B"/>
<path d="M213.296 93.6062C213.028 93.6062 212.817 93.3958 212.817 93.1279V90.9276C212.817 90.6597 213.028 90.4492 213.296 90.4492C213.563 90.4492 213.774 90.6597 213.774 90.9276V93.1279C213.774 93.3958 213.554 93.6062 213.296 93.6062Z" fill="#2C0F6B"/>
<path d="M203.997 105.776C203.748 105.776 203.538 105.584 203.518 105.336C203.499 105.106 203.078 99.7391 204.906 96.1995C206.924 92.2867 212.999 91.8371 213.257 91.8275C213.516 91.8179 213.745 92.0093 213.764 92.2771C213.783 92.545 213.583 92.765 213.315 92.7842C213.257 92.7842 207.517 93.2147 205.747 96.6395C204.045 99.94 204.456 105.211 204.466 105.269C204.485 105.537 204.293 105.766 204.025 105.785C204.016 105.776 204.006 105.776 203.997 105.776Z" fill="#2C0F6B"/>
<path d="M213.382 97.5483C213.238 97.5483 213.095 97.4814 213.009 97.3666L212.358 96.5343C211.688 95.6733 210.894 94.0661 210.866 93.9991C210.751 93.7599 210.847 93.4729 211.086 93.3581C211.325 93.2433 211.612 93.339 211.727 93.5782C211.736 93.5973 212.511 95.1662 213.114 95.9507L213.363 96.2664L214.511 94.6018C214.597 94.4679 214.74 94.4009 214.912 94.3913C215.075 94.3913 215.218 94.4774 215.305 94.6114L216.405 96.3142C217.017 95.7402 218.175 94.5348 218.835 93.119C218.949 92.8798 219.227 92.7746 219.466 92.8894C219.705 93.0042 219.81 93.2816 219.696 93.5208C218.682 95.6924 216.692 97.3379 216.606 97.4048C216.5 97.4909 216.366 97.5292 216.233 97.5101C216.099 97.4909 215.974 97.4144 215.907 97.2996L214.893 95.7307L213.783 97.3474C213.697 97.4718 213.554 97.5483 213.401 97.5579C213.391 97.5483 213.391 97.5483 213.382 97.5483Z" fill="#2C0F6B"/>
<path d="M220.968 107.153C220.958 107.153 220.958 107.153 220.949 107.153C220.681 107.143 220.48 106.923 220.48 106.665L220.557 104.235C220.557 104.11 220.614 103.986 220.71 103.9C220.805 103.814 220.93 103.756 221.054 103.776L226.459 103.976C226.593 102.58 226.823 98.1695 224.785 96.304C221.982 93.7306 217.763 93.3288 217.725 93.3192C217.476 93.3001 217.285 93.0896 217.285 92.8409V90.4588C217.285 90.1909 217.495 89.9805 217.763 89.9805C218.031 89.9805 218.242 90.1909 218.242 90.4588V92.42C219.457 92.5922 222.91 93.281 225.426 95.5961C228.22 98.16 227.387 104.273 227.349 104.541C227.311 104.78 227.11 104.971 226.861 104.952L221.494 104.751L221.437 106.693C221.437 106.952 221.226 107.153 220.968 107.153Z" fill="#2C0F6B"/>
<path d="M222.48 108.559C222.307 108.559 222.145 108.464 222.059 108.311C222.03 108.253 221.37 107.144 218.949 107.019C217.955 106.971 216.567 106.943 215.104 106.924C211.841 106.876 209.813 106.828 209.144 106.608C208.637 106.436 207.881 106.369 207.307 106.684C206.924 106.895 206.656 107.268 206.532 107.785C206.465 108.043 206.207 108.196 205.948 108.129C205.69 108.062 205.537 107.804 205.604 107.545C205.795 106.77 206.226 106.177 206.848 105.833C207.91 105.249 209.105 105.575 209.44 105.689C210.014 105.881 212.846 105.919 215.113 105.957C216.587 105.976 217.974 105.996 218.988 106.053C222.011 106.206 222.853 107.785 222.891 107.851C223.015 108.091 222.92 108.378 222.69 108.492C222.633 108.54 222.556 108.559 222.48 108.559Z" fill="#2C0F6B"/>
<path d="M221.159 112.903C219.504 112.903 217.543 112.597 215.008 111.554L213.784 111.047C210.531 109.698 209.182 109.143 207.852 109.545C207.603 109.621 207.336 109.478 207.259 109.229C207.183 108.98 207.326 108.713 207.575 108.636C209.23 108.129 210.77 108.77 214.147 110.167L215.372 110.674C219.562 112.396 222.116 111.984 224.355 111.621C225.761 111.391 226.249 107.306 226.153 104.484C226.144 104.216 226.354 103.996 226.612 103.987C226.871 103.977 227.1 104.188 227.11 104.446C227.139 105.23 227.301 112.109 224.508 112.568C223.494 112.721 222.413 112.903 221.159 112.903Z" fill="#2C0F6B"/>
<path d="M208.369 106.464C208.101 106.464 207.89 106.254 207.89 105.986V99.4422C207.89 99.1743 208.101 98.9639 208.369 98.9639C208.637 98.9639 208.847 99.1743 208.847 99.4422V105.986C208.847 106.254 208.627 106.464 208.369 106.464Z" fill="#2C0F6B"/>
<path d="M208.369 104.293H203.949C203.681 104.293 203.471 104.082 203.471 103.814C203.471 103.546 203.681 103.336 203.949 103.336H208.369C208.637 103.336 208.847 103.546 208.847 103.814C208.847 104.082 208.627 104.293 208.369 104.293Z" fill="#2C0F6B"/>
<path d="M199.673 108.052C199.414 108.052 199.204 107.841 199.194 107.583C199.175 106.607 199.654 104.732 201.615 104.617C203.758 104.493 206.618 106.301 206.742 106.378C206.962 106.521 207.029 106.818 206.886 107.038C206.742 107.258 206.446 107.325 206.226 107.181C206.197 107.162 203.518 105.459 201.672 105.565C200.122 105.66 200.141 107.478 200.151 107.554C200.161 107.822 199.95 108.033 199.682 108.042C199.682 108.052 199.673 108.052 199.673 108.052Z" fill="#2C0F6B"/>
<path d="M214.817 99.4615C214.549 99.4615 214.338 99.251 214.338 98.9831V97.7108C214.338 97.4429 214.549 97.2324 214.817 97.2324C215.085 97.2324 215.295 97.4429 215.295 97.7108V98.9831C215.295 99.2414 215.085 99.4615 214.817 99.4615Z" fill="#2C0F6B"/>
<path d="M214.817 102.35C214.549 102.35 214.338 102.14 214.338 101.872V100.599C214.338 100.332 214.549 100.121 214.817 100.121C215.085 100.121 215.295 100.332 215.295 100.599V101.872C215.295 102.13 215.085 102.35 214.817 102.35Z" fill="#2C0F6B"/>
<path d="M214.817 105.25C214.549 105.25 214.338 105.039 214.338 104.771V103.499C214.338 103.231 214.549 103.021 214.817 103.021C215.085 103.021 215.295 103.231 215.295 103.499V104.771C215.295 105.039 215.085 105.25 214.817 105.25Z" fill="#2C0F6B"/>
<path d="M184.28 110.214C184.012 110.214 183.802 110.004 183.802 109.736V108.32C183.802 108.052 184.012 107.842 184.28 107.842H207.393C207.661 107.842 207.871 108.052 207.871 108.32V109.42C207.871 109.688 207.661 109.899 207.393 109.899C207.125 109.899 206.915 109.688 206.915 109.42V108.798H184.758V109.736C184.758 109.994 184.548 110.214 184.28 110.214Z" fill="#2C0F6B"/>
<path d="M190.69 107.774H183.773V109.449H190.69V107.774Z" fill="#2C0F6B"/>
<path d="M188.786 102.838H185.791V108.291H188.786V102.838Z" fill="#2C0F6B"/>
<path d="M198.926 85.7617H175.842C175.335 85.7617 174.924 86.1731 174.924 86.6801V102.178C174.924 102.685 175.335 103.097 175.842 103.097H198.926C199.433 103.097 199.845 102.685 199.845 102.178V86.6801C199.845 86.1731 199.433 85.7617 198.926 85.7617Z" fill="#C2B6D6"/>
<path d="M198.926 103.575H175.842C175.077 103.575 174.445 102.953 174.445 102.178V86.6799C174.445 85.9146 175.067 85.2832 175.842 85.2832H198.926C199.692 85.2832 200.323 85.905 200.323 86.6799V102.178C200.323 102.943 199.692 103.575 198.926 103.575ZM175.842 86.2399C175.603 86.2399 175.402 86.4408 175.402 86.6799V102.178C175.402 102.417 175.603 102.618 175.842 102.618H198.926C199.166 102.618 199.367 102.417 199.367 102.178V86.6799C199.367 86.4408 199.166 86.2399 198.926 86.2399H175.842Z" fill="#2C0F6B"/>
<path d="M218.375 84.6804C218.299 84.6804 218.222 84.6421 218.175 84.5656C218.108 84.4508 218.136 84.3073 218.251 84.2403C218.309 84.202 219.696 83.3028 219.351 81.8773C219.045 80.6145 217.983 80.471 217.935 80.4615C217.801 80.4423 217.715 80.3275 217.725 80.1936C217.744 80.0597 217.859 79.9736 217.993 79.9831C218.05 79.9927 219.428 80.1649 219.82 81.7625C220.251 83.5228 218.586 84.6038 218.509 84.6421C218.471 84.6612 218.423 84.6804 218.375 84.6804Z" fill="#74DCB9"/>
<path d="M218.538 85.4175C218.987 85.4175 219.351 84.9078 219.351 84.2791C219.351 83.6503 218.987 83.1406 218.538 83.1406C218.089 83.1406 217.725 83.6503 217.725 84.2791C217.725 84.9078 218.089 85.4175 218.538 85.4175Z" fill="#74DCB9"/>
<path d="M209.88 89.6175C209.823 89.6175 209.765 89.5984 209.727 89.5601C209.44 89.3018 209.278 88.9957 209.268 88.6417C209.239 87.8764 209.899 87.1876 209.928 87.1684C210.024 87.0728 210.167 87.0728 210.263 87.1684C210.359 87.2641 210.359 87.4076 210.263 87.5033C210.253 87.5128 209.718 88.0773 209.737 88.6321C209.746 88.8522 209.842 89.0339 210.033 89.2061C210.129 89.2922 210.139 89.4453 210.052 89.541C210.014 89.5888 209.947 89.6175 209.88 89.6175Z" fill="#74DCB9"/>
<path d="M210.86 90.0153C211.034 89.7503 210.892 89.3497 210.543 89.1205C210.194 88.8913 209.77 88.9203 209.596 89.1853C209.422 89.4502 209.564 89.8508 209.913 90.08C210.262 90.3092 210.686 90.2802 210.86 90.0153Z" fill="#74DCB9"/>
<path d="M203.375 162.544C203.174 162.544 202.983 162.42 202.916 162.219C202.83 161.97 202.973 161.702 203.222 161.616L208.158 159.99C208.407 159.904 208.675 160.047 208.761 160.296C208.847 160.545 208.704 160.813 208.455 160.899L203.518 162.525C203.48 162.535 203.423 162.544 203.375 162.544Z" fill="#2C0F6B"/>
<path d="M232.295 171.824H205.681C205.413 171.824 205.202 171.613 205.202 171.345V170.293C205.202 170.025 205.413 169.815 205.681 169.815C205.948 169.815 206.159 170.025 206.159 170.293V170.867H231.817V138.216C231.807 138.216 230.841 132.648 226.478 130.037C225.11 129.223 223.561 128.764 221.858 128.678C221.59 128.668 221.389 128.439 221.408 128.171C221.418 127.903 221.647 127.693 221.915 127.721C223.771 127.817 225.474 128.324 226.976 129.214C231.731 132.074 232.735 137.891 232.773 138.139L232.783 171.345C232.773 171.613 232.563 171.824 232.295 171.824Z" fill="#2C0F6B"/>
<path d="M77.5733 171.421H24.5357V167.489H72.5604V158.296H77.5255L77.5733 171.421Z" fill="#E6E2EE"/>
<path d="M103.614 146.214V171.422H98.2373V142.894C98.2373 142.894 96.8023 142.894 90.1535 139.862C85.7815 137.862 82.7871 133.376 81.2469 130.534C82.6341 129.176 84.49 127.98 86.9295 127.396C89.0916 131.156 94.5254 134.237 98.62 136.829C101.538 138.676 103.633 140.876 103.633 140.876C103.489 142.502 103.499 144.32 103.614 146.214Z" fill="#E6E2EE"/>
<path d="M95.75 90.947C95.7117 90.947 95.683 90.947 95.6543 90.947C94.6594 90.9087 93.8079 90.3826 93.5688 89.8947C93.5114 89.7799 93.5592 89.6364 93.674 89.5694C93.7888 89.512 93.9323 89.5598 93.9993 89.6746C94.1523 89.9903 94.822 90.44 95.6734 90.4687C96.2953 90.4974 97.1754 90.2869 97.8164 89.2059C98.9261 87.3212 98.2756 83.5615 98.266 83.5233C98.2469 83.3893 98.333 83.265 98.4573 83.2458C98.5817 83.2267 98.7156 83.3128 98.7348 83.4372C98.7635 83.5998 99.4236 87.4169 98.2277 89.4546C97.4528 90.7365 96.3814 90.947 95.75 90.947Z" fill="#2C0F6B"/>
<path d="M96.0848 88.0483C95.9604 88.0483 95.8552 87.9526 95.8456 87.8378C95.8361 87.7039 95.9317 87.5891 96.0561 87.5795C96.1518 87.503 96.0752 87.1873 96.037 87.0055L95.9891 86.8046C95.8839 86.3071 95.8648 85.8001 95.8648 85.781C95.8648 85.647 95.9604 85.5418 96.0944 85.5322C96.2379 85.5418 96.3335 85.6279 96.3431 85.7618C96.3431 85.7618 96.3622 86.2593 96.4579 86.7089L96.4962 86.9003C96.5823 87.2638 96.6588 87.6082 96.4866 87.8474C96.4292 87.9335 96.3144 88.0291 96.0944 88.0578C96.1039 88.0483 96.0944 88.0483 96.0848 88.0483Z" fill="#2C0F6B"/>
<path d="M94.5541 86.5559C94.4202 86.5559 94.315 86.4507 94.315 86.3168V85.3983C94.315 85.2644 94.4202 85.1592 94.5541 85.1592C94.6881 85.1592 94.7933 85.2644 94.7933 85.3983V86.3168C94.7933 86.4507 94.6881 86.5559 94.5541 86.5559Z" fill="#2C0F6B"/>
<path d="M97.252 86.3928C97.118 86.3928 97.0128 86.2876 97.0128 86.1537V85.2831C97.0128 85.1492 97.118 85.0439 97.252 85.0439C97.3859 85.0439 97.4911 85.1492 97.4911 85.2831V86.1537C97.4911 86.2876 97.3859 86.3928 97.252 86.3928Z" fill="#2C0F6B"/>
<path d="M93.7123 85.063C93.6644 85.063 93.6262 85.0534 93.5783 85.0247C93.4635 84.9482 93.4348 84.8047 93.5114 84.6899C93.9801 83.9628 94.7263 83.9915 95.0516 84.0967C95.176 84.135 95.2429 84.2785 95.2047 84.4029C95.1664 84.5272 95.0229 84.5942 94.8985 84.5559C94.8411 84.5368 94.2863 84.3742 93.9132 84.9577C93.8653 85.0247 93.7888 85.063 93.7123 85.063Z" fill="#2C0F6B"/>
<path d="M97.9408 84.8917C97.8642 84.8917 97.7972 84.8534 97.7494 84.796C97.4433 84.3847 97.0415 84.4995 97.0032 84.509C96.8789 84.5473 96.7449 84.4803 96.6971 84.356C96.6588 84.2316 96.7162 84.0977 96.8406 84.0498C97.1085 83.9542 97.7112 83.935 98.1321 84.4995C98.2086 84.6047 98.1895 84.7578 98.0843 84.8343C98.0364 84.8726 97.9886 84.8917 97.9408 84.8917Z" fill="#2C0F6B"/>
<path d="M95.8265 89.0622C95.4438 89.0622 94.9559 88.9092 94.6307 88.3543C94.5637 88.2395 94.602 88.096 94.7168 88.029C94.8316 87.9621 94.9751 88.0004 95.042 88.1152C95.4056 88.7561 96.037 88.5552 96.0561 88.5457C96.1805 88.5074 96.3144 88.5744 96.3622 88.6987C96.4005 88.8231 96.3335 88.957 96.2092 89.0048C96.1135 89.0431 95.9796 89.0622 95.8265 89.0622Z" fill="#2C0F6B"/>
<path d="M96.2092 93.6063C95.9413 93.6063 95.7308 93.3958 95.7308 93.1279V91.0711C95.7308 90.8032 95.9413 90.5928 96.2092 90.5928C96.477 90.5928 96.6875 90.8032 96.6875 91.0711V93.1279C96.6875 93.3958 96.477 93.6063 96.2092 93.6063Z" fill="#2C0F6B"/>
<path d="M105.489 105.938C105.479 105.938 105.46 105.938 105.451 105.938C105.192 105.919 104.991 105.69 105.011 105.422C105.011 105.364 105.451 99.94 103.748 96.6395C101.978 93.2051 96.2379 92.7842 96.1805 92.7842C95.9126 92.765 95.7213 92.5354 95.7308 92.2771C95.75 92.0093 95.97 91.8179 96.2379 91.8275C96.4962 91.8466 102.581 92.2867 104.59 96.1995C106.417 99.7487 105.977 105.269 105.948 105.508C105.938 105.747 105.728 105.938 105.489 105.938Z" fill="#2C0F6B"/>
<path d="M87.4748 108.559C87.3887 108.559 87.2931 108.53 87.2165 108.482C86.9965 108.339 86.9295 108.042 87.073 107.822C87.1209 107.755 88.2019 106.119 91.1963 105.966C92.2869 105.909 93.8271 105.909 95.3195 105.899C97.4911 105.89 99.9593 105.88 100.505 105.698C100.839 105.583 102.035 105.258 103.097 105.842C103.719 106.186 104.15 106.77 104.341 107.554C104.408 107.812 104.245 108.071 103.996 108.138C103.738 108.205 103.48 108.042 103.413 107.793C103.279 107.277 103.021 106.904 102.638 106.693C102.064 106.377 101.318 106.444 100.811 106.617C100.17 106.827 98.3043 106.856 95.3291 106.865C93.8462 106.875 92.3251 106.875 91.2537 106.932C88.7855 107.057 87.9245 108.3 87.8862 108.358C87.781 108.482 87.6279 108.559 87.4748 108.559Z" fill="#2C0F6B"/>
<path d="M88.795 112.903C87.5418 112.903 86.4607 112.73 85.4467 112.558C82.6532 112.109 82.8158 105.221 82.8445 104.436C82.8541 104.168 83.0837 103.967 83.342 103.977C83.6099 103.986 83.8108 104.206 83.8012 104.474C83.7055 107.306 84.1934 111.391 85.5997 111.611C87.8479 111.975 90.3926 112.386 94.5828 110.664L95.8074 110.157C99.1844 108.76 100.725 108.119 102.38 108.626C102.628 108.703 102.772 108.971 102.695 109.219C102.619 109.468 102.351 109.612 102.102 109.535C100.772 109.133 99.4331 109.688 96.1709 111.037L94.9464 111.544C92.4208 112.596 90.4596 112.903 88.795 112.903Z" fill="#2C0F6B"/>
<path d="M101.184 106.464C100.916 106.464 100.706 106.254 100.706 105.986V99.4422C100.706 99.1743 100.916 98.9639 101.184 98.9639C101.452 98.9639 101.662 99.1743 101.662 99.4422V105.986C101.662 106.254 101.452 106.464 101.184 106.464Z" fill="#2C0F6B"/>
<path d="M105.431 104.293H101.423C101.155 104.293 100.945 104.082 100.945 103.814C100.945 103.546 101.155 103.336 101.423 103.336H105.431C105.699 103.336 105.91 103.546 105.91 103.814C105.91 104.082 105.699 104.293 105.431 104.293Z" fill="#2C0F6B"/>
<path d="M110.377 108.195C110.11 108.195 109.899 107.975 109.899 107.707C109.899 107.621 109.909 105.66 108.378 105.564C106.522 105.469 103.853 107.162 103.824 107.181C103.604 107.325 103.308 107.258 103.164 107.038C103.021 106.818 103.088 106.521 103.308 106.378C103.432 106.301 106.273 104.483 108.435 104.617C110.397 104.732 110.875 106.703 110.856 107.727C110.856 107.985 110.636 108.195 110.377 108.195Z" fill="#2C0F6B"/>
<path d="M140.761 172.11C140.493 172.11 140.283 171.9 140.283 171.632V111.687C140.283 111.419 140.493 111.209 140.761 111.209C141.029 111.209 141.239 111.419 141.239 111.687V171.632C141.239 171.9 141.019 172.11 140.761 172.11Z" fill="#2C0F6B"/>
<path d="M145.506 109.955L100.007 109.773V111.304H145.478L145.506 109.955Z" fill="#C2B6D6"/>
<path d="M145.477 111.783H99.9976C99.7297 111.783 99.5192 111.573 99.5192 111.305V109.774C99.5192 109.65 99.5671 109.525 99.6627 109.439C99.7488 109.353 99.8828 109.267 99.9976 109.296L145.497 109.477C145.621 109.477 145.745 109.525 145.831 109.621C145.918 109.717 145.975 109.831 145.965 109.965L145.946 111.314C145.956 111.573 145.745 111.783 145.477 111.783ZM100.485 110.826H145.009L145.018 110.434L100.485 110.262V110.826Z" fill="#2C0F6B"/>
<path d="M130.362 171.642C130.228 171.642 130.104 171.585 130.008 171.489C129.913 171.384 120.336 160.717 114.539 147.438C114.434 147.199 114.548 146.912 114.788 146.807C115.027 146.702 115.314 146.817 115.419 147.056C120.652 159.052 129.004 168.896 130.487 170.59L136.303 168.026C136.667 167.873 137.231 167.538 137.336 167.27C137.154 166.84 135.949 166.361 134.925 166.132C134.744 166.093 134.6 165.95 134.562 165.768C134.533 165.644 131.816 152.997 127.081 143.344C122.154 133.299 110.339 122.058 105.106 118.595C99.1557 114.653 100.533 111.391 100.6 111.248C100.706 111.009 100.992 110.903 101.232 111.009C101.471 111.114 101.576 111.401 101.471 111.64C101.461 111.659 100.419 114.347 105.632 117.791C110.942 121.312 122.938 132.715 127.942 142.913C132.323 151.849 134.992 163.29 135.433 165.261C136.169 165.452 137.776 165.95 138.188 166.753C138.322 167.021 138.331 167.318 138.226 167.595C137.949 168.332 136.887 168.801 136.676 168.896L130.544 171.594C130.496 171.623 130.429 171.642 130.362 171.642Z" fill="#2C0F6B"/>
<path d="M128.698 169.556C128.525 169.556 128.363 169.47 128.277 169.307C128.152 169.078 128.238 168.781 128.468 168.657L134.801 165.242C135.031 165.117 135.327 165.203 135.452 165.433C135.576 165.662 135.49 165.959 135.26 166.083L128.927 169.499C128.86 169.537 128.774 169.556 128.698 169.556Z" fill="#2C0F6B"/>
<path d="M115.869 172.13H108.837C108.627 172.13 108.445 171.996 108.378 171.795C108.359 171.737 106.618 166.237 105.135 159.482C104.035 154.46 103.365 150.031 103.126 146.309C103.126 146.3 103.126 146.214 103.126 146.204C103.011 144.281 103.011 142.54 103.126 141.038C102.609 140.512 100.753 138.732 98.3521 137.221C97.8929 136.934 97.4241 136.637 96.9362 136.331C92.9756 133.863 88.4889 131.06 86.5086 127.625C86.2885 127.262 86.0972 126.87 85.9346 126.439C84.5091 122.737 84.2604 119.188 85.1692 115.591C85.3414 114.902 85.5328 114.309 85.6954 113.802C85.8963 113.18 86.0972 112.548 86.0494 112.338C85.9824 112.08 86.145 111.821 86.3938 111.754C86.6521 111.687 86.9104 111.85 86.9773 112.099C87.0921 112.568 86.9008 113.17 86.6042 114.079C86.4512 114.567 86.2598 115.141 86.0972 115.811C85.2362 119.207 85.4754 122.565 86.8243 126.076C86.9678 126.458 87.1304 126.793 87.3217 127.118C89.1872 130.362 93.5688 133.088 97.4337 135.499C97.9216 135.805 98.3999 136.102 98.8591 136.389C101.796 138.244 103.872 140.416 103.958 140.512C104.054 140.607 104.102 140.751 104.092 140.885C103.958 142.387 103.949 144.157 104.073 146.156C104.073 146.166 104.073 146.252 104.073 146.261C104.303 149.906 104.972 154.288 106.063 159.262C107.326 165.022 108.78 169.872 109.182 171.154H115.859C116.223 171.154 116.653 171.077 116.816 170.991C116.682 170.714 116.05 170.025 115.371 169.441C115.256 169.346 115.199 169.212 115.199 169.068C115.199 169.001 115.381 162.611 114.998 154.603C114.893 152.528 114.768 150.509 114.615 148.605C113.764 137.891 108.923 130.381 105.049 127.195C102.207 124.88 99.9784 122.172 98.8974 120.776C98.4765 120.221 98.2373 119.886 98.2373 119.886C98.0842 119.666 98.1416 119.369 98.3617 119.216C98.5817 119.063 98.8783 119.121 99.0313 119.341C99.0313 119.35 99.2609 119.666 99.6627 120.192C100.715 121.56 102.896 124.201 105.661 126.458C109.689 129.759 114.692 137.517 115.572 148.529C115.725 150.442 115.859 152.47 115.955 154.556C116.29 161.759 116.184 167.652 116.156 168.867C116.835 169.461 117.782 170.417 117.782 171.049C117.811 172.063 116.328 172.13 115.869 172.13Z" fill="#2C0F6B"/>
<path d="M115.696 169.585H108.043C107.775 169.585 107.565 169.374 107.565 169.106C107.565 168.838 107.775 168.628 108.043 168.628H115.696C115.964 168.628 116.175 168.838 116.175 169.106C116.175 169.374 115.964 169.585 115.696 169.585Z" fill="#2C0F6B"/>
<path d="M108.454 172.11C108.187 172.11 107.976 171.9 107.976 171.632V111.687C107.976 111.419 108.187 111.209 108.454 111.209C108.722 111.209 108.933 111.419 108.933 111.687V171.632C108.933 171.9 108.713 172.11 108.454 172.11Z" fill="#2C0F6B"/>
<path d="M125.56 110.214C125.292 110.214 125.081 110.004 125.081 109.736V108.884H102.925V109.621C102.925 109.889 102.715 110.099 102.447 110.099C102.179 110.099 101.968 109.889 101.968 109.621V108.406C101.968 108.138 102.179 107.928 102.447 107.928H125.56C125.828 107.928 126.038 108.138 126.038 108.406V109.736C126.038 110.004 125.818 110.214 125.56 110.214Z" fill="#2C0F6B"/>
<path d="M126.067 107.822H119.15V109.496H126.067V107.822Z" fill="#2C0F6B"/>
<path d="M124.039 102.896H121.044V108.349H124.039V102.896Z" fill="#2C0F6B"/>
<path d="M110.913 85.8096H133.998C134.505 85.8096 134.916 86.2209 134.916 86.728V102.226C134.916 102.733 134.505 103.144 133.998 103.144H110.913C110.406 103.144 109.995 102.733 109.995 102.226V86.728C109.995 86.2209 110.406 85.8096 110.913 85.8096Z" fill="#C2B6D6"/>
<path d="M133.988 103.623H110.904C110.138 103.623 109.507 103.001 109.507 102.226V86.7278C109.507 85.9624 110.129 85.3311 110.904 85.3311H133.988C134.753 85.3311 135.385 85.9529 135.385 86.7278V102.226C135.385 102.991 134.763 103.623 133.988 103.623ZM110.913 86.2877C110.674 86.2877 110.473 86.4886 110.473 86.7278V102.226C110.473 102.465 110.674 102.666 110.913 102.666H133.998C134.237 102.666 134.438 102.465 134.438 102.226V86.7278C134.438 86.4886 134.237 86.2877 133.998 86.2877H110.913Z" fill="#2C0F6B"/>
<path d="M91.8946 92.707C91.6267 92.707 91.4163 92.4965 91.4163 92.2287V87.9715C91.4163 87.7036 91.6267 87.4932 91.8946 87.4932C92.1625 87.4932 92.3729 87.7036 92.3729 87.9715V92.2287C92.3729 92.487 92.1529 92.707 91.8946 92.707Z" fill="#2C0F6B"/>
<path d="M93.3105 83.0447C93.3105 83.0447 94.8029 83.5709 96.3909 83.6952C97.979 83.8196 99.0122 83.5231 99.0122 83.5231C99.0122 83.5231 99.1557 80.2512 95.2334 79.572C91.1867 78.8736 90.1535 82.0498 90.1535 82.0498C90.1535 82.0498 88.9768 84.7667 90.297 86.3835C91.8755 88.3064 91.885 88.9091 91.885 88.9091C91.885 88.9091 92.3442 87.0723 91.5693 86.6418C90.871 86.2591 90.4118 85.4555 90.8231 84.671C91.0814 84.1736 91.6076 84.0875 91.8564 84.3075C92.1721 84.5849 92.1147 85.3407 92.1338 85.0633C92.2486 83.5231 92.8991 82.9299 93.3105 83.0447Z" fill="#2C0F6B"/>
<path d="M91.8946 89.158C91.885 89.158 91.8755 89.158 91.8659 89.158C91.7415 89.1485 91.6554 89.0432 91.6554 88.9189C91.6554 88.9189 91.5693 88.3066 90.1248 86.5368C88.728 84.8339 89.8952 82.0691 89.943 81.9543C89.943 81.9448 91.0814 78.606 95.2812 79.3331C99.3662 80.0314 99.2609 83.4946 99.2609 83.5233C99.2609 83.6285 99.1844 83.7146 99.0887 83.7433C99.0409 83.7529 97.9981 84.0399 96.3814 83.9251C94.8411 83.8103 93.4061 83.3224 93.2531 83.265C93.1957 83.2554 93.1191 83.2745 93.033 83.3319C92.9087 83.4276 92.4782 83.8198 92.3921 85.0826C92.3825 85.207 92.2773 85.3601 92.1433 85.3601C92.019 85.3601 91.9137 85.2357 91.9042 85.1113C91.8755 84.6713 91.7607 84.5278 91.7128 84.4895C91.6554 84.4417 91.5598 84.4225 91.4641 84.4417C91.2919 84.4704 91.1484 84.5947 91.0432 84.7861C90.6988 85.4462 91.1101 86.1158 91.6937 86.4411C92.6025 86.9386 92.172 88.7658 92.1242 88.9763C92.0955 89.0815 91.9998 89.158 91.8946 89.158ZM94.1428 79.7157C91.2058 79.7157 90.3926 82.0978 90.3926 82.1265C90.3735 82.1744 89.2829 84.7574 90.4979 86.2306C91.158 87.0342 91.5598 87.6178 91.7894 88.0387C91.8181 87.5508 91.7702 87.0247 91.4737 86.862C90.6892 86.4315 90.1439 85.5036 90.6318 84.566C90.7944 84.2503 91.0719 84.0303 91.3876 83.9729C91.6363 83.9251 91.8755 83.9825 92.0381 84.1355C92.0477 84.1451 92.0572 84.1547 92.0668 84.1547C92.2103 83.5902 92.459 83.1693 92.7652 82.9493C92.9661 82.8058 93.1861 82.7579 93.387 82.8058C93.3966 82.8058 93.3966 82.8058 93.4061 82.8153C93.4253 82.8249 94.889 83.3319 96.4292 83.4563C97.5772 83.5424 98.4382 83.4085 98.7922 83.3319C98.7539 82.6623 98.3999 80.3567 95.2142 79.8114C94.8124 79.7444 94.468 79.7157 94.1428 79.7157Z" fill="#2C0F6B"/>
<path d="M94.3245 95.7785C94.1906 95.7785 94.0567 95.7211 93.961 95.6158L91.3876 92.6597L90.8136 93.7121C90.6892 93.9417 90.3926 94.0278 90.163 93.9034C89.9334 93.779 89.8473 93.4825 89.9717 93.2529L90.871 91.5883C90.9475 91.4543 91.0814 91.3587 91.2441 91.3395C91.3971 91.3204 91.5502 91.3778 91.6554 91.5022L94.2576 94.4965L95.8074 92.0475C95.9509 91.8274 96.2474 91.7605 96.4675 91.8944C96.6875 92.0379 96.7545 92.3345 96.6205 92.5545L94.7263 95.5489C94.6498 95.6732 94.5063 95.7593 94.3628 95.7689C94.3437 95.7785 94.3341 95.7785 94.3245 95.7785Z" fill="#2C0F6B"/>
<path d="M82.3375 104.656C82.0888 104.656 81.8879 104.474 81.8592 104.225C81.84 104.024 81.3521 99.2315 83.275 96.1223C85.571 92.4105 90.6509 92.1043 90.8614 92.0852C91.1197 92.0661 91.3493 92.2765 91.3684 92.5348C91.3876 92.8027 91.1771 93.0227 90.9188 93.0419C90.871 93.0419 86.1259 93.348 84.0882 96.6198C82.6532 98.9349 82.7106 102.465 82.7776 103.68L88.9002 103.594C89.1777 103.575 89.3786 103.804 89.3881 104.063C89.3977 104.321 89.1777 104.541 88.9194 104.551L82.3375 104.656Z" fill="#2C0F6B"/>
<path d="M94.2767 98.5429C94.0088 98.5429 93.7984 98.3324 93.7984 98.0646V96.8113C93.7984 96.5435 94.0088 96.333 94.2767 96.333C94.5446 96.333 94.755 96.5435 94.755 96.8113V98.0646C94.755 98.3324 94.535 98.5429 94.2767 98.5429Z" fill="#2C0F6B"/>
<path d="M94.2767 101.71C94.0088 101.71 93.7984 101.499 93.7984 101.232V99.9783C93.7984 99.7105 94.0088 99.5 94.2767 99.5C94.5446 99.5 94.755 99.7105 94.755 99.9783V101.232C94.755 101.49 94.535 101.71 94.2767 101.71Z" fill="#2C0F6B"/>
<path d="M94.2767 105.077C94.0088 105.077 93.7984 104.867 93.7984 104.599V103.346C93.7984 103.078 94.0088 102.867 94.2767 102.867C94.5446 102.867 94.755 103.078 94.755 103.346V104.599C94.755 104.867 94.535 105.077 94.2767 105.077Z" fill="#2C0F6B"/>
<path d="M88.6707 107.574C88.4028 107.574 88.1923 107.363 88.1923 107.095V104.082C88.1923 103.814 88.4028 103.604 88.6707 103.604C88.9385 103.604 89.149 103.814 89.149 104.082V107.095C89.149 107.363 88.929 107.574 88.6707 107.574Z" fill="#2C0F6B"/>
<path d="M103.614 171.9H77.5733C77.3054 171.9 77.095 171.689 77.095 171.421V136.388C77.095 136.34 77.1045 136.292 77.1141 136.254C77.1524 136.12 78.1282 132.896 80.9312 130.189C82.5958 128.563 84.5857 127.462 86.8338 126.927C87.1208 126.86 87.427 127.089 87.427 127.395C87.427 127.635 87.2548 127.836 87.0156 127.874C84.9492 128.371 83.122 129.385 81.5913 130.878C79.1805 133.202 78.1951 136.015 78.0516 136.465V170.943H103.135V146.28C103.135 146.012 103.346 145.763 103.614 145.763C103.882 145.763 104.092 145.945 104.092 146.204V171.412C104.092 171.68 103.882 171.9 103.614 171.9Z" fill="#2C0F6B"/>
<path d="M26.1238 158.297C26.1238 158.297 25.3297 156.077 26.9465 155.455C28.5633 154.834 30.2948 156.489 30.2948 156.489C30.2948 156.489 29.7878 155.312 30.9167 154.633C32.0455 153.954 33.0309 155.159 33.0309 155.159C33.0309 155.159 32.4569 154.441 33.1266 154.078C33.7962 153.714 34.3033 154.489 34.3033 154.489C34.3033 154.489 30.0939 149.649 33.1266 146.884C34.4563 145.669 36.7236 146.453 38.1778 147.946C40.0528 149.869 40.9904 152.834 40.9904 152.834C40.9904 152.834 40.7703 151.313 42.1192 151.198C43.4873 151.074 43.4203 152.863 43.4203 152.863C43.4203 152.863 43.803 151.131 45.1327 151.294C46.8069 151.504 46.3381 153.408 46.3381 153.408C46.3381 153.408 47.5627 146.836 51.131 146.377C54.6898 145.918 54.9577 153.236 54.9577 153.236C54.9577 153.236 55.0342 151.791 56.7371 151.6C58.4495 151.409 58.4495 153.236 58.4495 153.236C58.4495 153.236 58.7844 151.552 60.5159 152.011C62.2571 152.471 61.3578 154.661 61.3578 154.661C61.3578 154.661 61.7692 153.552 62.9746 153.533C64.18 153.513 64.3426 154.853 64.3426 154.853C64.3426 154.853 65.2993 149.467 68.8198 150.376C71.9959 151.198 69.853 155.14 69.853 155.14C69.853 155.14 70.6949 153.867 71.8524 154.346C73.01 154.824 72.4743 156.154 72.4743 156.154C72.4743 156.154 73.3448 154.901 74.3015 155.168C75.5069 155.503 75.2677 156.804 75.2677 156.804C75.2677 156.804 76.9515 156.087 77.095 158.297" fill="#C2B6D6"/>
<path d="M77.1141 158.775C76.8654 158.775 76.6549 158.584 76.6358 158.325C76.6071 157.943 76.521 157.445 76.2148 157.254C75.9183 157.062 75.4686 157.244 75.4686 157.244C75.306 157.311 75.1147 157.283 74.9807 157.177C74.8468 157.062 74.7798 156.89 74.8085 156.718C74.8372 156.575 74.9233 155.828 74.1867 155.627C73.6797 155.494 73.0578 156.173 72.8761 156.431C72.7421 156.632 72.4743 156.689 72.2542 156.575C72.0438 156.46 71.9481 156.201 72.0342 155.972C72.0916 155.828 72.3403 155.063 71.6707 154.786C70.8958 154.47 70.2835 155.369 70.2548 155.407C70.1113 155.618 69.8243 155.685 69.6138 155.551C69.3938 155.417 69.3173 155.14 69.4416 154.92C69.7286 154.384 70.3792 152.777 69.9391 151.763C69.7382 151.303 69.3364 151.007 68.705 150.844C68.0258 150.662 67.4326 150.748 66.8969 151.093C65.3375 152.097 64.8209 154.91 64.8114 154.939C64.7731 155.168 64.5626 155.34 64.3235 155.331C64.0843 155.321 63.893 155.149 63.8643 154.91C63.8547 154.814 63.7399 153.972 62.9746 154.001C62.171 154.02 61.8553 154.69 61.8074 154.805C61.7979 154.814 61.7979 154.824 61.7979 154.833C61.7022 155.073 61.4248 155.197 61.1856 155.101C60.9464 155.006 60.8221 154.738 60.9082 154.489C60.9082 154.489 60.9082 154.479 60.9177 154.46C61.023 154.183 61.243 153.398 60.9943 152.911C60.889 152.691 60.6881 152.547 60.3916 152.47C59.9993 152.365 59.6836 152.394 59.4349 152.537C59.0235 152.786 58.9087 153.322 58.9087 153.331C58.8609 153.571 58.6217 153.724 58.3921 153.705C58.153 153.676 57.9616 153.475 57.9616 153.226C57.9616 153.054 57.8851 152.528 57.579 152.25C57.3876 152.088 57.1293 152.021 56.7849 152.059C55.4934 152.203 55.4265 153.198 55.4265 153.245C55.4169 153.504 55.2064 153.705 54.9481 153.705C54.6898 153.705 54.4794 153.504 54.4698 153.245C54.4698 153.198 54.288 148.72 52.5565 147.247C52.1547 146.903 51.705 146.769 51.1789 146.836C48.2419 147.209 46.9982 152.528 46.8165 153.37C46.8069 153.437 46.7973 153.485 46.7878 153.504C46.7304 153.752 46.4721 153.915 46.2233 153.858C45.9746 153.8 45.8024 153.561 45.8502 153.303C45.8502 153.284 45.8598 153.245 45.8789 153.178C45.9172 152.92 45.9459 152.413 45.7259 152.097C45.5919 151.906 45.3719 151.791 45.0658 151.753C44.1665 151.629 43.8891 152.93 43.8795 152.949C43.8221 153.188 43.6021 153.351 43.3533 153.322C43.1046 153.293 42.9228 153.083 42.9324 152.834C42.942 152.643 42.8941 152.05 42.6167 151.791C42.5497 151.724 42.4158 151.638 42.1479 151.657C41.9088 151.676 41.7461 151.753 41.6313 151.896C41.4209 152.155 41.4304 152.604 41.4496 152.757C41.4783 153.006 41.3252 153.236 41.0765 153.284C40.8373 153.341 40.5886 153.198 40.5216 152.958C40.512 152.93 39.5936 150.079 37.8238 148.261C36.5419 146.951 34.552 146.204 33.4327 147.218C31.0889 149.361 33.8058 153.092 34.4946 153.972C34.5711 154.059 34.6381 154.135 34.6859 154.212C34.8199 154.422 34.772 154.7 34.5711 154.853C34.3702 155.006 34.0832 154.977 33.9206 154.786C33.9015 154.766 33.8441 154.7 33.758 154.594C33.6527 154.499 33.4901 154.393 33.3275 154.479C33.2414 154.604 33.3179 154.766 33.3753 154.843C33.5379 155.044 33.5092 155.35 33.2988 155.513C33.0883 155.675 32.7917 155.647 32.6291 155.446C32.6004 155.407 31.8829 154.575 31.1271 155.025C30.3618 155.474 30.6871 156.249 30.6966 156.278C30.7827 156.488 30.7158 156.728 30.534 156.862C30.3427 156.996 30.0939 156.967 29.9313 156.814C29.9122 156.795 28.4006 155.369 27.09 155.876C25.9324 156.326 26.5256 158.038 26.5447 158.115C26.6308 158.364 26.5064 158.641 26.2577 158.727C26.009 158.813 25.7411 158.689 25.6454 158.44C25.3202 157.522 25.1193 155.618 26.7456 154.996C27.8553 154.566 28.9651 155.015 29.7113 155.465C29.8069 155.015 30.0652 154.556 30.6488 154.212C31.2802 153.839 31.902 153.896 32.4091 154.116C32.4856 153.953 32.6291 153.781 32.8874 153.647C32.9352 153.618 32.9831 153.599 33.0309 153.58C31.902 151.858 30.4096 148.692 32.7917 146.52C34.3894 145.056 36.9341 145.984 38.5126 147.601C39.6319 148.749 40.4259 150.232 40.9043 151.294C41.1817 150.949 41.5835 150.748 42.081 150.71C42.5593 150.662 42.9802 150.806 43.2959 151.102C43.4107 151.217 43.5064 151.342 43.5829 151.476C43.9465 151.045 44.4822 150.729 45.1901 150.815C45.7737 150.892 46.1468 151.141 46.3764 151.389C47.0556 149.304 48.4906 146.243 51.0641 145.908C51.8581 145.803 52.566 146.013 53.1783 146.539C54.5176 147.678 55.0629 150.088 55.283 151.686C55.6178 151.418 56.0674 151.208 56.6797 151.131C57.4642 151.045 57.9521 151.313 58.2199 151.562C58.373 151.696 58.4878 151.849 58.5835 152.011C58.6791 151.916 58.7939 151.82 58.9183 151.743C59.3966 151.447 59.9706 151.38 60.6307 151.552C61.1952 151.705 61.6161 152.03 61.8457 152.49C61.9701 152.738 62.0275 152.997 62.0466 153.255C62.2953 153.14 62.5919 153.054 62.9459 153.054C63.472 153.054 63.893 153.245 64.1895 153.523C64.5435 152.47 65.2036 151.035 66.3612 150.289C67.1265 149.801 67.9875 149.667 68.925 149.916C69.8434 150.155 70.4748 150.643 70.8001 151.38C71.1349 152.155 71.0488 153.073 70.8575 153.829C71.2115 153.733 71.6037 153.733 72.0246 153.915C72.5891 154.154 72.8761 154.556 73.0004 154.996C73.3927 154.738 73.8901 154.566 74.4259 154.719C75.3251 154.967 75.66 155.637 75.7461 156.23C76.0331 156.211 76.3775 156.259 76.6932 156.46C77.2193 156.775 77.5063 157.397 77.5637 158.287C77.5829 158.555 77.382 158.775 77.1141 158.794C77.1332 158.775 77.1237 158.775 77.1141 158.775Z" fill="#2C0F6B"/>
<path d="M77.5733 171.9H24.5357C24.2678 171.9 24.0574 171.69 24.0574 171.422V158.297C24.0574 158.029 24.2678 157.818 24.5357 157.818H77.5255C77.7933 157.818 78.0038 158.029 78.0038 158.297L78.0516 171.422C78.0516 171.547 78.0038 171.671 77.9081 171.757C77.822 171.843 77.6977 171.9 77.5733 171.9ZM25.014 170.944H77.095L77.0471 158.775H25.014V170.944Z" fill="#2C0F6B"/>
<path d="M111.994 40.8749V62.7443C111.994 66.083 114.702 68.7904 118.04 68.7904H149.429H158H191.053C194.392 68.7904 197.099 66.083 197.099 62.7443V20.4309C197.099 17.0921 194.392 14.3848 191.053 14.3848H175.612" fill="#F8F8FB"/>
<path d="M177.459 14.3945H118.05C114.712 14.3945 112.004 17.1019 112.004 20.4407V44.96" fill="#F8F8FB"/>
<path d="M111.994 40.8749V62.7443C111.994 66.083 114.702 68.7904 118.04 68.7904H127.416L127.234 75.1905L138.561 68.7904H149.429H158H170.992L182.74 75.2575L183.036 68.7904H191.044C194.382 68.7904 197.09 66.083 197.09 62.7443V20.4309C197.09 17.0921 194.382 14.3848 191.044 14.3848H175.603" fill="white"/>
<path d="M111.994 38.7316C111.726 38.7316 111.516 38.5211 111.516 38.2533V36.5408C111.516 36.273 111.726 36.0625 111.994 36.0625C112.262 36.0625 112.472 36.273 112.472 36.5408V38.2533C112.472 38.5116 112.262 38.7316 111.994 38.7316Z" fill="#2C0F6B"/>
<path d="M111.994 33.5468C111.726 33.5468 111.516 33.3363 111.516 33.0685V20.4405C111.516 16.8434 114.443 13.916 118.04 13.916H149.658C149.926 13.916 150.136 14.1265 150.136 14.3943C150.136 14.6622 149.926 14.8727 149.658 14.8727H118.04C114.969 14.8727 112.472 17.3696 112.472 20.4405V33.0685C112.472 33.3268 112.262 33.5468 111.994 33.5468Z" fill="#2C0F6B"/>
<path d="M133.414 34.1882C132.381 34.1882 131.481 33.8343 131.089 33.3846C131.003 33.289 131.013 33.1359 131.108 33.0498C131.204 32.9637 131.357 32.9733 131.443 33.0689C131.864 33.5473 133.108 33.8821 134.285 33.6142C135.222 33.4038 136.456 32.7628 136.982 30.8973C137.891 27.7116 135.499 22.4786 135.471 22.4212C135.413 22.2969 135.471 22.1629 135.586 22.1055C135.71 22.0481 135.844 22.1055 135.901 22.2203C136.006 22.4404 138.389 27.6733 137.441 31.0217C136.973 32.6576 135.892 33.7386 134.39 34.083C134.064 34.15 133.73 34.1882 133.414 34.1882Z" fill="#2C0F6B"/>
<path d="M133.854 29.7293C133.758 29.7293 133.663 29.6719 133.634 29.5762C133.586 29.4519 133.653 29.3179 133.777 29.2701C133.892 29.2318 133.911 29.184 133.911 29.1649C133.969 29.0022 133.768 28.6196 133.596 28.2752L133.452 28.0073C133.117 27.3472 132.897 26.6201 132.888 26.5914C132.849 26.4671 132.916 26.3331 133.05 26.2949C133.175 26.2566 133.309 26.3236 133.347 26.4575C133.347 26.4671 133.567 27.175 133.883 27.7968L134.017 28.0551C134.275 28.543 134.495 28.9735 134.361 29.3371C134.294 29.5093 134.151 29.6336 133.95 29.7197C133.911 29.7293 133.883 29.7293 133.854 29.7293Z" fill="#2C0F6B"/>
<path d="M131.08 28.1512C130.974 28.1512 130.879 28.0842 130.85 27.9694L130.506 26.6492C130.467 26.5248 130.544 26.3909 130.678 26.3526C130.802 26.3144 130.936 26.3909 130.974 26.5248L131.319 27.845C131.357 27.9694 131.281 28.1033 131.147 28.1416C131.118 28.1512 131.099 28.1512 131.08 28.1512Z" fill="#2C0F6B"/>
<path d="M134.916 26.8986C134.811 26.8986 134.715 26.8317 134.686 26.7169L134.361 25.4636C134.323 25.3393 134.399 25.2053 134.533 25.1671C134.658 25.1288 134.792 25.2053 134.83 25.3393L135.155 26.5925C135.193 26.7169 135.117 26.8508 134.983 26.8891C134.954 26.8986 134.935 26.8986 134.916 26.8986Z" fill="#2C0F6B"/>
<path d="M129.3 26.3141C129.272 26.3141 129.252 26.3141 129.224 26.3046C129.099 26.2663 129.032 26.1228 129.071 25.9984C129.453 24.8409 130.467 24.6113 130.955 24.64C131.089 24.6495 131.185 24.7643 131.175 24.8983C131.166 25.0322 131.06 25.1279 130.917 25.1183C130.879 25.1087 129.884 25.0705 129.52 26.1515C129.492 26.2568 129.396 26.3141 129.3 26.3141Z" fill="#2C0F6B"/>
<path d="M135.337 24.4685C135.279 24.4685 135.212 24.4494 135.174 24.4016C134.6 23.8467 133.94 24.3441 133.911 24.3633C133.806 24.4398 133.653 24.4302 133.577 24.325C133.5 24.2198 133.519 24.0667 133.615 23.9902C133.969 23.7223 134.811 23.3875 135.499 24.0667C135.595 24.1624 135.595 24.3059 135.499 24.4016C135.461 24.4398 135.394 24.4685 135.337 24.4685Z" fill="#2C0F6B"/>
<path d="M133.433 31.356C133.003 31.356 132.505 31.2029 132.055 30.7533C131.96 30.6576 131.96 30.5045 132.055 30.4184C132.151 30.3228 132.304 30.3228 132.39 30.4184C133.232 31.2699 134.141 30.6959 134.179 30.6767C134.294 30.6002 134.438 30.6385 134.514 30.7437C134.591 30.8585 134.552 31.002 134.447 31.0785C134.227 31.2125 133.854 31.356 133.433 31.356Z" fill="#2C0F6B"/>
<path d="M133.777 38.1388C133.51 38.1388 133.299 37.9283 133.299 37.6605V34.3504C133.299 34.0825 133.51 33.8721 133.777 33.8721C134.045 33.8721 134.256 34.0825 134.256 34.3504V37.6605C134.256 37.9188 134.036 38.1388 133.777 38.1388Z" fill="#2C0F6B"/>
<path d="M146.846 46.2516C146.635 46.2516 146.444 46.1177 146.386 45.9072C143.822 36.7998 134.189 36.8954 133.787 36.905C133.529 36.8954 133.309 36.7041 133.299 36.4362C133.29 36.1684 133.5 35.9579 133.768 35.9483C133.873 35.9388 144.55 35.8144 147.314 45.6489C147.381 45.9072 147.238 46.1655 146.979 46.2421C146.932 46.2421 146.893 46.2516 146.846 46.2516Z" fill="#2C0F6B"/>
<path d="M140.015 69.2589C139.747 69.2589 139.537 69.0484 139.537 68.7806V50.5848C139.537 50.3169 139.747 50.1064 140.015 50.1064C140.283 50.1064 140.493 50.3169 140.493 50.5848V68.7806C140.493 69.0389 140.283 69.2589 140.015 69.2589Z" fill="#2C0F6B"/>
<path d="M128.037 23.6554C128.037 23.6554 130.4 23.8563 132.735 23.4258C135.069 22.9953 136.466 22.1821 136.466 22.1821C136.466 22.1821 135.432 17.3988 129.501 17.9058C123.388 18.432 123.101 23.4162 123.101 23.4162C123.101 23.4162 122.431 27.7977 124.957 29.625C127.97 31.8062 127.31 32.6959 127.31 32.6959C127.31 32.6959 128.181 29.8546 126.899 29.5293C125.741 29.2327 124.775 28.2474 125.072 26.9559C125.254 26.1427 125.981 25.8174 126.43 26.0375C126.985 26.3149 127.291 27.262 127.215 26.8506C126.794 24.5738 127.406 23.6554 128.037 23.6554Z" fill="#2C0F6B"/>
<path d="M127.31 32.9444C127.272 32.9444 127.234 32.9348 127.205 32.9157C127.1 32.8583 127.052 32.7435 127.081 32.6287C127.1 32.5808 127.109 32.5139 127.129 32.4469C127.129 32.1695 126.909 31.3467 124.813 29.8256C122.202 27.9314 122.833 23.569 122.862 23.3873C122.862 23.3586 123.225 18.2213 129.482 17.676C135.557 17.1498 136.686 22.0862 136.695 22.134C136.714 22.2393 136.676 22.3349 136.58 22.3923C136.523 22.4306 135.126 23.2246 132.773 23.6647C130.486 24.0856 128.219 23.9134 128.018 23.8943C127.884 23.8943 127.76 23.9613 127.645 24.0952C127.473 24.3057 127.1 24.9945 127.444 26.8217C127.463 26.8982 127.502 27.1183 127.301 27.1852C127.1 27.2618 126.995 27.0896 126.928 26.9556C126.822 26.7739 126.593 26.3912 126.315 26.2573C126.181 26.1903 126 26.1999 125.837 26.2764C125.569 26.4008 125.378 26.6686 125.301 27.013C125.033 28.1706 125.933 29.0412 126.956 29.2995C127.243 29.3664 127.463 29.5386 127.607 29.8065C128.037 30.5623 127.75 31.9494 127.607 32.5139C127.588 32.7052 127.521 32.8104 127.502 32.8391C127.463 32.9061 127.387 32.9444 127.31 32.9444ZM130.381 18.116C130.113 18.116 129.826 18.1256 129.53 18.1543C123.685 18.6613 123.35 23.3968 123.35 23.4447C123.34 23.5116 122.728 27.721 125.1 29.443C126.344 30.3422 126.995 31.0406 127.32 31.5668C127.396 31.0119 127.406 30.3996 127.205 30.0457C127.119 29.8926 127.004 29.8065 126.851 29.7682C125.607 29.4525 124.517 28.3715 124.852 26.9174C124.967 26.4295 125.254 26.0468 125.655 25.8555C125.961 25.712 126.287 25.7024 126.555 25.8363C126.679 25.8937 126.784 25.9798 126.88 26.0755C126.784 25.0232 126.928 24.2387 127.301 23.7891C127.511 23.5403 127.789 23.4064 128.066 23.416C128.085 23.416 130.42 23.6073 132.706 23.1864C134.533 22.8515 135.777 22.2775 136.198 22.0575C135.959 21.273 134.753 18.116 130.381 18.116Z" fill="#2C0F6B"/>
<path d="M127.31 36.79C127.043 36.79 126.832 36.5795 126.832 36.3116V30.9735C126.832 30.7056 127.043 30.4951 127.31 30.4951C127.578 30.4951 127.789 30.7056 127.789 30.9735V36.3116C127.789 36.5699 127.578 36.79 127.31 36.79Z" fill="#2C0F6B"/>
<path d="M130.946 41.3727C130.812 41.3727 130.678 41.3153 130.582 41.2101L126.516 36.532L125.493 38.4071C125.368 38.6367 125.072 38.7228 124.842 38.5984C124.613 38.474 124.526 38.1775 124.651 37.9479L126 35.4701C126.076 35.3362 126.21 35.2405 126.373 35.2214C126.535 35.2022 126.679 35.2597 126.784 35.384L130.879 40.1004L133.366 36.1685C133.51 35.9485 133.806 35.8815 134.026 36.0154C134.246 36.1589 134.313 36.4555 134.179 36.6755L131.357 41.1527C131.281 41.2771 131.137 41.3632 130.994 41.3727C130.974 41.3727 130.965 41.3727 130.946 41.3727Z" fill="#2C0F6B"/>
<path d="M113.037 54.6506C112.836 54.6506 112.664 54.5262 112.587 54.3444C112.482 54.067 110.004 47.466 112.874 42.8262C116.232 37.4019 125.387 36.3878 125.77 36.3495C126.038 36.3208 126.268 36.5122 126.296 36.78C126.325 37.0383 126.134 37.2775 125.866 37.3062C125.78 37.3158 116.797 38.3107 113.687 43.3332C111.401 47.0259 112.932 52.3546 113.372 53.6939L122.374 53.56V49.6663C122.374 49.3985 122.584 49.188 122.852 49.188C123.12 49.188 123.331 49.3985 123.331 49.6663V54.0287C123.331 54.287 123.12 54.5071 122.862 54.5071L113.037 54.6506Z" fill="#2C0F6B"/>
<path d="M130.879 45.5153C130.611 45.5153 130.4 45.3049 130.4 45.037V43.1619C130.4 42.8941 130.611 42.6836 130.879 42.6836C131.147 42.6836 131.357 42.8941 131.357 43.1619V45.037C131.357 45.2953 131.137 45.5153 130.879 45.5153Z" fill="#2C0F6B"/>
<path d="M130.879 49.236C130.611 49.236 130.4 49.0256 130.4 48.7577V46.8826C130.4 46.6148 130.611 46.4043 130.879 46.4043C131.147 46.4043 131.357 46.6148 131.357 46.8826V48.7577C131.357 49.016 131.137 49.236 130.879 49.236Z" fill="#2C0F6B"/>
<path d="M177.478 32.906C176.005 32.906 174.732 32.1311 173.9 30.7248C172.121 27.7209 173.106 22.0574 173.154 21.8183C173.173 21.6843 173.297 21.6078 173.431 21.6269C173.565 21.6461 173.651 21.7704 173.623 21.9044C173.613 21.9618 172.628 27.6348 174.311 30.4857C175.297 32.1598 176.646 32.4564 177.612 32.4373C178.817 32.399 179.937 31.758 180.224 31.184C180.281 31.0692 180.425 31.0214 180.549 31.0788C180.664 31.1362 180.712 31.2797 180.654 31.4041C180.3 32.112 179.076 32.8678 177.631 32.9156C177.583 32.906 177.526 32.906 177.478 32.906Z" fill="#2C0F6B"/>
<path d="M176.98 28.5721C176.971 28.5721 176.961 28.5721 176.952 28.5721C176.732 28.553 176.56 28.4669 176.454 28.3138C176.234 27.9981 176.34 27.5293 176.464 26.9936L176.531 26.7066C176.674 26.0178 176.703 25.2812 176.703 25.2716C176.713 25.1377 176.827 25.042 176.952 25.042C177.086 25.0516 177.191 25.1568 177.181 25.2907C177.181 25.3194 177.153 26.0752 177 26.8023L176.933 27.0988C176.847 27.4719 176.751 27.9024 176.847 28.0364C176.856 28.0459 176.885 28.0842 177 28.1033C177.134 28.1129 177.229 28.2373 177.21 28.3616C177.21 28.4764 177.105 28.5721 176.98 28.5721Z" fill="#2C0F6B"/>
<path d="M179.324 26.0466C179.19 26.0466 179.085 25.9413 179.085 25.8074V24.4394C179.085 24.3054 179.19 24.2002 179.324 24.2002C179.458 24.2002 179.564 24.3054 179.564 24.4394V25.8074C179.564 25.9413 179.458 26.0466 179.324 26.0466Z" fill="#2C0F6B"/>
<path d="M175.239 26.1038C175.105 26.1038 175 25.9986 175 25.8646V24.5732C175 24.4392 175.105 24.334 175.239 24.334C175.373 24.334 175.479 24.4392 175.479 24.5732V25.8646C175.479 25.9986 175.373 26.1038 175.239 26.1038Z" fill="#2C0F6B"/>
<path d="M180.664 23.99C180.587 23.99 180.511 23.9518 180.463 23.8848C179.831 22.9186 178.865 23.2438 178.856 23.2438C178.731 23.2917 178.597 23.2247 178.549 23.0908C178.511 22.9664 178.569 22.8325 178.703 22.7846C179.162 22.622 180.204 22.5933 180.865 23.6169C180.941 23.7317 180.903 23.8752 180.798 23.9518C180.75 23.9805 180.702 23.99 180.664 23.99Z" fill="#2C0F6B"/>
<path d="M174.225 23.913C174.177 23.913 174.13 23.9034 174.091 23.8747C173.986 23.7982 173.948 23.6547 174.024 23.5399C174.57 22.7267 175.44 22.765 175.823 22.8893C175.947 22.9372 176.014 23.0711 175.966 23.1955C175.919 23.3198 175.785 23.3868 175.66 23.339C175.632 23.3294 174.885 23.0902 174.407 23.7982C174.378 23.8747 174.302 23.913 174.225 23.913Z" fill="#2C0F6B"/>
<path d="M177.363 30.0936C177.153 30.0936 176.961 30.0553 176.818 30.0171C176.693 29.9788 176.627 29.8448 176.665 29.7205C176.703 29.5961 176.837 29.5292 176.961 29.5674C177.009 29.577 178.033 29.8927 178.626 28.869C178.693 28.7542 178.836 28.716 178.951 28.783C179.066 28.8499 179.104 28.9934 179.037 29.1082C178.597 29.8831 177.899 30.0936 177.363 30.0936Z" fill="#2C0F6B"/>
<path d="M183.199 32.3992C186.365 34.0543 188.384 30.926 188.384 30.926C185.724 31.3565 187.14 24.1528 184.892 20.0295C183.763 17.9536 182.338 16.3272 178.846 16.4707C171.968 16.7577 172.953 22.6986 172.953 22.6986C176.942 22.7273 178.664 19.6756 178.664 19.6756C178.664 19.6756 182.041 20.4313 182.52 24.7076C183.036 29.3379 183.199 32.3992 183.199 32.3992Z" fill="#2C0F6B"/>
<path d="M185.017 33.1167C184.433 33.1167 183.782 32.9732 183.084 32.6097C183.008 32.5714 182.96 32.4949 182.96 32.4088C182.96 32.3801 182.787 29.2996 182.28 24.7172C181.888 21.1488 179.439 20.1443 178.779 19.9338C178.349 20.5844 176.569 22.9186 172.963 22.9186C172.848 22.9186 172.742 22.8325 172.723 22.7177C172.704 22.6125 172.322 20.1826 173.852 18.2979C174.905 17.0064 176.579 16.308 178.836 16.2124C182.28 16.0784 183.84 17.5804 185.103 19.8956C186.136 21.7898 186.404 24.258 186.643 26.4296C186.853 28.3621 187.035 30.0267 187.695 30.5337C187.867 30.6676 188.087 30.7155 188.346 30.6676C188.441 30.6485 188.537 30.6963 188.585 30.7729C188.633 30.8494 188.633 30.9546 188.585 31.0312C188.575 31.079 187.226 33.1167 185.017 33.1167ZM183.438 32.2461C185.696 33.3463 187.303 31.8826 187.915 31.1555C187.733 31.1172 187.561 31.0407 187.418 30.9259C186.595 30.2945 186.413 28.6204 186.174 26.4966C185.944 24.3632 185.677 21.9428 184.691 20.1347C183.486 17.9153 182.08 16.5664 178.865 16.7003C176.751 16.7864 175.192 17.4273 174.225 18.6136C173.068 20.039 173.116 21.8471 173.173 22.4499C176.818 22.3733 178.444 19.5799 178.463 19.5512C178.511 19.4555 178.626 19.4172 178.722 19.4363C178.76 19.4459 182.271 20.2782 182.759 24.6789C183.208 28.716 183.4 31.5956 183.438 32.2461Z" fill="#2C0F6B"/>
<path d="M176.789 37.2492C176.521 37.2492 176.311 37.0387 176.311 36.7708V32.992C176.311 32.7241 176.521 32.5137 176.789 32.5137C177.057 32.5137 177.268 32.7241 177.268 32.992V36.7708C177.268 37.0387 177.057 37.2492 176.789 37.2492Z" fill="#2C0F6B"/>
<path d="M162.41 68.4267C162.162 68.4267 161.951 68.2258 161.932 67.9771C161.884 67.1735 160.88 48.1645 164.152 41.6688C167.05 35.9288 176.33 34.6277 176.722 34.5703C176.981 34.532 177.22 34.7234 177.258 34.9817C177.296 35.24 177.105 35.4887 176.847 35.5174C176.751 35.527 167.672 36.8089 165.003 42.0993C161.836 48.3654 162.87 67.7284 162.879 67.9293C162.898 68.1971 162.688 68.4172 162.43 68.4363C162.43 68.4267 162.42 68.4267 162.41 68.4267Z" fill="#2C0F6B"/>
<path d="M176.933 42.6445C176.789 42.6445 176.646 42.5775 176.56 42.4627L175.584 41.2191C174.589 39.9563 173.422 37.5646 173.374 37.4689C173.259 37.2298 173.355 36.9428 173.594 36.828C173.833 36.7132 174.12 36.8088 174.235 37.048C174.244 37.0671 175.412 39.4492 176.34 40.6355L176.914 41.3626L178.808 38.6074C178.894 38.4734 179.056 38.3873 179.21 38.3969C179.372 38.3969 179.516 38.483 179.602 38.6169L181.41 41.3913C182.252 40.6164 184.222 38.6743 185.303 36.3592C185.418 36.12 185.696 36.0148 185.935 36.1296C186.174 36.2444 186.279 36.5218 186.165 36.761C184.682 39.9563 181.735 42.3862 181.611 42.4914C181.506 42.5775 181.372 42.6158 181.238 42.5967C181.104 42.5775 180.979 42.501 180.912 42.3862L179.2 39.7458L177.334 42.4532C177.248 42.5775 177.105 42.6541 176.952 42.6636C176.942 42.6445 176.933 42.6445 176.933 42.6445Z" fill="#2C0F6B"/>
<path d="M197.176 54.9763H188.288C188.02 54.9763 187.81 54.7659 187.81 54.498L187.781 47.7152C187.781 47.4474 187.992 47.2369 188.26 47.2369C188.556 47.2369 188.738 47.4474 188.738 47.7152L188.767 54.0197H196.822C197.338 52.2977 199.529 44.2904 196.248 41.2769C192 37.3737 183.515 36.3405 183.428 36.3309C183.189 36.3022 183.008 36.1013 183.008 35.8526V32.2938C183.008 32.0259 183.218 31.8154 183.486 31.8154C183.754 31.8154 183.964 32.0259 183.964 32.2938V35.4316C185.791 35.6899 192.928 36.924 196.889 40.5689C201.012 44.3478 197.759 54.2206 197.625 54.6415C197.558 54.8424 197.377 54.9763 197.176 54.9763Z" fill="#2C0F6B"/>
<path d="M169.318 53.0535C169.318 53.0535 169.308 53.0535 169.318 53.0535C169.05 53.0535 168.839 52.8334 168.839 52.5656L168.954 45.7158C168.954 45.4575 169.174 45.2471 169.432 45.2471H169.442C169.71 45.2471 169.92 45.4671 169.911 45.735L169.796 52.5847C169.796 52.843 169.576 53.0535 169.318 53.0535Z" fill="#2C0F6B"/>
<path d="M193.234 68.8955C192.976 68.8955 192.766 68.685 192.756 68.4267L192.641 63.1842C192.632 62.9163 192.842 62.7059 193.11 62.6963C193.387 62.7059 193.588 62.8972 193.598 63.1651L193.713 68.4076C193.722 68.6755 193.512 68.8859 193.244 68.8955H193.234Z" fill="#2C0F6B"/>
<path d="M115.783 68.3988C115.524 68.3988 115.304 68.1884 115.304 67.9205L115.256 60.6785C115.256 60.4107 115.467 60.2002 115.735 60.2002C115.974 60.1619 116.213 60.4107 116.213 60.6785L116.261 67.9205C116.261 68.1788 116.05 68.3988 115.783 68.3988Z" fill="#2C0F6B"/>
<path d="M169.432 68.8953C169.165 68.8953 168.954 68.6848 168.954 68.4169V55.9324C168.954 55.6646 169.165 55.4541 169.432 55.4541C169.7 55.4541 169.911 55.6646 169.911 55.9324V68.4169C169.911 68.6848 169.691 68.8953 169.432 68.8953Z" fill="#2C0F6B"/>
<path d="M169.432 52.7379H162.831C162.564 52.7379 162.353 52.5274 162.353 52.2596C162.353 51.9917 162.564 51.7812 162.831 51.7812H169.432C169.7 51.7812 169.911 51.9917 169.911 52.2596C169.911 52.5274 169.691 52.7379 169.432 52.7379Z" fill="#2C0F6B"/>
<path d="M179.066 45.505C178.798 45.505 178.588 45.2945 178.588 45.0266V43.1229C178.588 42.855 178.798 42.6445 179.066 42.6445C179.334 42.6445 179.544 42.855 179.544 43.1229V45.0266C179.544 45.2945 179.334 45.505 179.066 45.505Z" fill="#2C0F6B"/>
<path d="M179.066 49.1212C178.798 49.1212 178.588 48.9107 178.588 48.6428V46.7391C178.588 46.4712 178.798 46.2607 179.066 46.2607C179.334 46.2607 179.544 46.4712 179.544 46.7391V48.6428C179.544 48.9107 179.334 49.1212 179.066 49.1212Z" fill="#2C0F6B"/>
<path d="M125.081 67.4036C116.089 67.4036 112.712 54.8234 112.568 54.2877C112.501 54.0294 112.654 53.7711 112.913 53.7041C113.161 53.6371 113.429 53.7902 113.496 54.0485C113.525 54.1729 116.835 66.4469 125.081 66.4469C125.11 66.4469 125.139 66.4469 125.167 66.4469C130.161 66.3991 133.261 59.3771 135.117 55.1869C136.102 52.9579 136.533 52.0395 137.097 51.8482C138.264 51.4559 138.484 51.3507 138.503 51.3411C138.551 51.3029 138.551 51.3124 138.609 51.2933C138.924 51.2072 139.278 51.0637 139.355 50.9872C139.412 50.8915 139.422 50.7097 139.364 50.6045C139.345 50.5758 139.297 50.4801 139.058 50.4706C138.79 50.461 138.589 50.241 138.599 49.9731C138.609 49.7052 138.867 49.4948 139.097 49.5139C139.604 49.533 139.996 49.7626 140.206 50.1549C140.426 50.5567 140.398 51.1115 140.149 51.5229C139.929 51.8864 139.288 52.1065 138.896 52.2213C138.743 52.2882 138.379 52.4317 137.394 52.7666C137.154 52.9388 136.533 54.3451 135.987 55.5887C134.045 59.9894 130.783 67.3557 125.177 67.4131C125.148 67.4036 125.11 67.4036 125.081 67.4036Z" fill="#2C0F6B"/>
<path d="M137.04 51.1692C136.839 51.1692 136.647 51.0448 136.58 50.8439C136.494 50.5951 136.638 50.3273 136.887 50.2412C137.757 49.9542 139.135 49.495 139.374 49.3898C139.431 49.3706 139.517 49.141 139.45 48.921C139.403 48.7583 139.336 48.7679 139.259 48.7775C139.001 48.8253 138.752 48.6435 138.704 48.3852C138.656 48.1269 138.838 47.8782 139.097 47.8304C139.69 47.7347 140.187 48.0504 140.359 48.6435C140.532 49.2175 140.34 50.002 139.737 50.2603C139.384 50.4134 137.403 51.0639 137.174 51.1404C137.135 51.1596 137.088 51.1692 137.04 51.1692Z" fill="#2C0F6B"/>
<path d="M140.015 46.5773L140.398 40.9712L135.528 40.7129L135.184 45.7737V47.8496L140.015 46.5773Z" fill="#74DCB9"/>
<path d="M135.184 48.3279C135.079 48.3279 134.973 48.2896 134.887 48.2322C134.772 48.1461 134.705 48.0026 134.705 47.8496V45.7736L135.05 40.6746C135.069 40.4163 135.299 40.2154 135.557 40.2249L140.426 40.4832C140.551 40.4928 140.675 40.5502 140.761 40.6459C140.847 40.7415 140.885 40.8659 140.876 40.9998L140.484 46.6059C140.465 46.8068 140.331 46.979 140.13 47.0364L135.299 48.3183C135.27 48.3279 135.222 48.3279 135.184 48.3279ZM135.978 41.2103L135.662 45.8119V47.2373L139.565 46.2041L139.9 41.4208L135.978 41.2103Z" fill="#74DCB9"/>
<path d="M119.227 58.6117C119.16 58.6117 119.093 58.5926 119.026 58.5639C118.786 58.4491 118.681 58.1717 118.796 57.9325C120.308 54.7085 123.618 53.6466 126.277 52.8048C126.995 52.5752 127.674 52.3647 128.248 52.1255C131.596 50.7479 132.773 48.7198 132.84 48.6146C132.83 48.6146 133.117 47.6292 133.251 46.3377C133.28 46.0507 133.28 45.7828 133.28 45.5532C133.28 44.9792 133.28 44.1948 134.045 44.1565C134.61 44.1374 134.964 44.3478 135.165 44.5392C135.653 45.0079 135.672 45.7063 135.672 45.7924V47.2465L139.163 46.3281C139.967 46.1081 140.512 46.5099 140.723 46.9308C140.972 47.4092 140.876 47.9832 140.493 48.2893C140.034 48.6624 137.805 49.2651 136.867 49.5138C136.609 49.5808 136.351 49.4277 136.284 49.1694C136.217 48.9111 136.37 48.6528 136.628 48.5859C138.006 48.2223 139.651 47.7153 139.9 47.5335C139.91 47.5144 139.919 47.4092 139.852 47.3231C139.757 47.1891 139.565 47.2083 139.412 47.2465L135.308 48.3276C135.165 48.3658 135.012 48.3371 134.897 48.2415C134.782 48.1554 134.715 48.0119 134.715 47.8588V45.7828C134.715 45.6872 134.677 45.381 134.505 45.2279C134.476 45.1992 134.409 45.1419 134.246 45.1132C134.237 45.2375 134.237 45.4097 134.237 45.5532C134.237 45.8115 134.237 46.1177 134.198 46.4334C134.045 47.8684 133.73 48.9303 133.72 48.9685C133.634 49.1503 132.381 51.4559 128.611 53.0057C127.999 53.2544 127.31 53.4744 126.574 53.7136C123.962 54.5459 120.996 55.493 119.667 58.3343C119.581 58.5065 119.408 58.6117 119.227 58.6117Z" fill="#2C0F6B"/>
<path d="M187.332 65.8914C182.347 65.8914 178.406 62.103 175.45 59.2617C174.216 58.085 173.154 57.0613 172.389 56.7074C171.011 56.0664 169.557 55.8177 168.399 55.6168C167.299 55.4254 166.629 55.3106 166.304 54.9375C165.797 54.3444 165.826 53.8469 165.95 53.5408C166.342 52.5172 168.179 52.2302 168.543 52.1823L172.14 51.7614L171.91 51.1683C171.738 50.8239 171.355 49.8863 171.767 49.3315C171.92 49.1401 172.207 48.9201 172.762 49.0253C172.943 49.054 173.412 49.1497 175.354 52.1058C175.364 52.1058 176.646 53.3973 178.234 53.5504C179.076 53.6269 180.042 53.6652 181.056 53.7034C184.71 53.8374 188.862 54 191.187 56.0951C191.388 56.2769 191.397 56.5734 191.225 56.7743C191.044 56.9752 190.747 56.9848 190.546 56.8126C188.47 54.9471 184.509 54.794 181.018 54.6601C179.984 54.6218 179.009 54.5836 178.138 54.507C176.158 54.3253 174.665 52.7755 174.598 52.7085C173.804 51.5127 172.829 50.1925 172.522 49.9629C172.522 50.1351 172.628 50.4986 172.771 50.7856L173.25 51.991C173.307 52.1249 173.288 52.2876 173.211 52.4119C173.135 52.5363 173.001 52.6224 172.857 52.6415L168.648 53.1294C167.892 53.2347 166.955 53.5695 166.83 53.8852C166.782 54.0096 166.926 54.2105 167.022 54.3157C167.165 54.4401 167.93 54.574 168.552 54.6792C169.71 54.8801 171.288 55.148 172.781 55.8368C173.699 56.2577 174.761 57.2814 176.1 58.5729C179.19 61.5385 183.428 65.6139 188.633 64.839C194.822 63.9206 196.238 54.5166 196.248 54.4209C196.286 54.1626 196.525 53.9809 196.793 54.0191C197.051 54.0574 197.233 54.2966 197.195 54.5644C197.138 54.9854 195.655 64.7625 188.767 65.7861C188.298 65.8627 187.81 65.8914 187.332 65.8914Z" fill="#2C0F6B"/>
<path d="M140.015 53.4743C139.9 53.4743 139.776 53.4264 139.69 53.3403C139.498 53.1586 139.489 52.8524 139.67 52.6611L146.444 45.4957C147.276 43.5919 148.07 42.0517 148.701 40.808C149.304 39.6313 149.83 38.6077 149.849 38.2537C149.897 37.6032 152.232 29.8733 153.466 29.0697C153.714 28.9071 153.934 28.9453 154.049 28.9836C154.355 29.0888 155.274 29.4237 153.877 34.4462C153.81 34.7045 153.542 34.848 153.284 34.781C153.026 34.714 152.882 34.4462 152.949 34.1879C153.38 32.6285 153.667 31.0787 153.676 30.2847C152.748 31.9206 150.854 37.4979 150.797 38.3207C150.758 38.8755 150.299 39.7652 149.543 41.2481C148.902 42.4917 148.108 44.0415 147.276 45.9549C147.257 46.0027 147.219 46.0505 147.19 46.0888L140.359 53.3212C140.264 53.4264 140.139 53.4743 140.015 53.4743Z" fill="#2C0F6B"/>
<path d="M154.642 35.2398C154.585 35.2398 154.528 35.2302 154.47 35.2111C154.221 35.1154 154.107 34.838 154.202 34.5892C154.595 33.5847 154.489 33.1351 154.403 32.9533C154.346 32.8385 154.25 32.7907 154.25 32.7907C153.992 32.7333 153.839 32.475 153.896 32.2167C153.954 31.9584 154.212 31.7958 154.47 31.8627C154.518 31.8723 154.977 31.9967 155.245 32.5133C155.551 33.0873 155.494 33.91 155.092 34.9432C155.015 35.125 154.834 35.2398 154.642 35.2398Z" fill="#2C0F6B"/>
<path d="M146.004 63.5384C143.612 63.5384 141.297 61.7495 139.594 58.5733C139.47 58.3437 139.556 58.0472 139.785 57.9228C140.015 57.7984 140.311 57.8845 140.436 58.1141C142.024 61.0798 144.215 62.7444 146.329 62.5626C148.692 62.3617 150.749 59.9701 152.117 55.8468C154.929 47.3516 153.437 38.1676 153.418 38.0815C153.38 37.8615 153.504 37.6415 153.705 37.5554C153.705 37.5554 154.499 37.144 155.102 35.2115C155.398 34.2357 155.274 33.8148 155.178 33.6426C155.082 33.4895 154.958 33.4704 154.948 33.4608C154.7 33.413 154.508 33.1834 154.547 32.9251C154.575 32.6668 154.795 32.485 155.054 32.5137C155.111 32.5233 155.628 32.5807 155.963 33.0973C156.326 33.633 156.345 34.4462 156.02 35.4889C155.503 37.1631 154.824 37.9093 154.413 38.225C154.652 39.9374 155.618 48.3179 153.026 56.1338C151.533 60.6493 149.18 63.261 146.415 63.5002C146.281 63.5384 146.138 63.5384 146.004 63.5384Z" fill="#2C0F6B"/>
<path d="M144.071 53.5601C144.023 53.5601 143.975 53.5506 143.918 53.541C143.669 53.4549 143.535 53.187 143.612 52.9383C145.592 46.9209 146.673 44.9693 146.721 44.8927C146.855 44.6631 147.142 44.577 147.372 44.711C147.601 44.8449 147.687 45.1319 147.553 45.3615C147.544 45.3806 146.463 47.3418 144.521 53.2349C144.454 53.4358 144.272 53.5601 144.071 53.5601Z" fill="#2C0F6B"/>
<path d="M120.346 21.9712C120.327 21.9712 120.317 21.9712 120.298 21.9712L111.439 21.1676C111.181 21.1485 110.98 20.9093 111.009 20.651C111.037 20.3927 111.267 20.1918 111.525 20.2205L120.384 21.0241C120.642 21.0432 120.843 21.2824 120.815 21.5407C120.805 21.7799 120.595 21.9712 120.346 21.9712Z" fill="#74DCB9"/>
<path d="M122.192 17.7139C122.087 17.7139 121.982 17.6756 121.896 17.6087L105.795 4.84672C105.584 4.68409 105.556 4.37795 105.718 4.17705C105.881 3.96659 106.187 3.93788 106.388 4.10052L122.489 16.8625C122.699 17.0251 122.728 17.3312 122.565 17.5321C122.47 17.6469 122.326 17.7139 122.192 17.7139Z" fill="#74DCB9"/>
<path d="M126.44 13.9161C126.229 13.9161 126.038 13.7726 125.981 13.5622L122.757 1.25944C122.69 1.00114 122.843 0.742839 123.101 0.675873C123.359 0.608906 123.618 0.761973 123.685 1.02027L126.909 13.323C126.976 13.5813 126.822 13.8396 126.564 13.9066C126.526 13.9161 126.488 13.9161 126.44 13.9161Z" fill="#74DCB9"/>
<path d="M131.386 13.2277C131.376 13.2277 131.357 13.2277 131.348 13.2277C131.089 13.2086 130.888 12.9694 130.907 12.7111L131.252 8.68357C131.271 8.4157 131.51 8.22437 131.768 8.2435C132.036 8.26264 132.228 8.50181 132.209 8.76011L131.864 12.7877C131.845 13.0364 131.635 13.2277 131.386 13.2277Z" fill="#74DCB9"/>
<path d="M220.93 71.8709C222.177 71.8709 223.188 70.8601 223.188 69.6132C223.188 68.3663 222.177 67.3555 220.93 67.3555C219.683 67.3555 218.672 68.3663 218.672 69.6132C218.672 70.8601 219.683 71.8709 220.93 71.8709Z" fill="#2C0F6B"/>
<path d="M222.958 72.818L227.1 65.6047C227.263 65.3177 227.569 65.1455 227.904 65.1455L231.29 65.1551C231.989 65.1551 232.429 65.9204 232.085 66.5231L226.316 76.6064C225.971 77.2091 225.101 77.2282 224.737 76.6255L222.977 73.7459C222.795 73.4589 222.786 73.105 222.958 72.818Z" fill="#74DCB9"/>
<path d="M183.897 25.1854C183.821 25.1854 183.744 25.1471 183.696 25.0706C183.629 24.9558 183.658 24.8123 183.773 24.7453C183.802 24.7262 186.652 22.8798 185.954 20.0194C185.323 17.4555 183.103 17.1685 183.084 17.1685C182.95 17.1494 182.854 17.0346 182.874 16.9006C182.893 16.7667 183.008 16.6806 183.141 16.6902C183.17 16.6902 185.715 17.0154 186.423 19.9046C187.207 23.1094 184.06 25.128 184.031 25.1471C183.993 25.1758 183.945 25.1854 183.897 25.1854Z" fill="#74DCB9"/>
<path d="M184.213 26.8124C185.069 26.8124 185.763 25.8444 185.763 24.6503C185.763 23.4563 185.069 22.4883 184.213 22.4883C183.357 22.4883 182.663 23.4563 182.663 24.6503C182.663 25.8444 183.357 26.8124 184.213 26.8124Z" fill="#74DCB9"/>
<path d="M172.121 31.4518C172.063 31.4518 172.006 31.4327 171.968 31.3944C171.547 31.0309 171.327 30.5813 171.307 30.0742C171.269 28.9549 172.245 27.9313 172.293 27.893C172.389 27.7974 172.532 27.7974 172.628 27.893C172.723 27.9887 172.723 28.1322 172.628 28.2279C172.618 28.2374 171.748 29.1463 171.776 30.0551C171.795 30.4282 171.958 30.7535 172.274 31.0309C172.369 31.117 172.379 31.2701 172.293 31.3657C172.255 31.4231 172.188 31.4518 172.121 31.4518Z" fill="#74DCB9"/>
<path d="M173.63 32.1963C173.9 31.7857 173.682 31.1658 173.143 30.8119C172.605 30.4579 171.949 30.5039 171.679 30.9146C171.41 31.3253 171.628 31.9451 172.166 32.2991C172.705 32.653 173.361 32.607 173.63 32.1963Z" fill="#74DCB9"/>
<path d="M197.099 41.9844C196.831 41.9844 196.621 41.7739 196.621 41.5061V20.4307C196.621 17.3598 194.124 14.8629 191.053 14.8629H149.658C149.39 14.8629 149.18 14.6524 149.18 14.3846C149.18 14.1167 149.39 13.9062 149.658 13.9062H191.053C194.65 13.9062 197.578 16.8336 197.578 20.4307V41.4965C197.578 41.774 197.358 41.9844 197.099 41.9844Z" fill="#2C0F6B"/>
<path d="M182.749 76.0993C182.673 76.0993 182.587 76.0802 182.51 76.0419L170.571 69.2591H138.953L127.473 75.9271C127.32 76.0132 127.138 76.0132 126.995 75.9271C126.842 75.841 126.756 75.6783 126.756 75.5061L126.794 69.2495H118.04C114.443 69.2495 111.516 66.3221 111.516 62.7251V40.8748C111.516 40.607 111.726 40.3965 111.994 40.3965C112.262 40.3965 112.472 40.607 112.472 40.8748V62.7346C112.472 65.8056 114.969 68.3025 118.04 68.3025H127.282C127.406 68.3025 127.53 68.3503 127.617 68.446C127.703 68.5321 127.76 68.6564 127.76 68.7904L127.722 74.693L138.589 68.379C138.666 68.3407 138.743 68.312 138.829 68.312H170.705C170.791 68.312 170.867 68.3312 170.944 68.3694L182.28 74.7982L182.242 68.886C182.242 68.6277 182.453 68.4077 182.711 68.4077L191.063 68.3025C194.134 68.3025 196.63 65.8056 196.63 62.7346V54.9187C196.63 54.6508 196.841 54.4404 197.109 54.4404C197.377 54.4404 197.587 54.6508 197.587 54.9187V62.7346C197.587 66.3317 194.66 69.2591 191.063 69.2591L183.189 69.3548L183.237 75.6114C183.237 75.7836 183.151 75.9366 182.998 76.0228C182.912 76.0706 182.835 76.0993 182.749 76.0993Z" fill="#2C0F6B"/>
</svg>
