<svg width="20" height="17" viewBox="0 0 20 17" fill="none" xmlns="http://www.w3.org/2000/svg">
<path fill-rule="evenodd" clip-rule="evenodd" d="M9.66766 4.74542L9.71054 5.44538L8.99595 5.35967C6.39485 5.03112 4.12246 3.91688 2.19307 2.04553L1.24981 1.117L1.00685 1.80269C0.492352 3.33119 0.821062 4.94541 1.89294 6.03107C2.46461 6.63105 2.33599 6.71676 1.34986 6.35963C1.00685 6.24535 0.706728 6.15964 0.678144 6.20249C0.578102 6.30249 0.921104 7.60243 1.19265 8.1167C1.56423 8.83095 2.3217 9.53092 3.15062 9.94519L3.85092 10.2737L3.02199 10.288C2.22165 10.288 2.19307 10.3023 2.27882 10.6023C2.56466 11.5308 3.69371 12.5165 4.95138 12.9451L5.83747 13.245L5.06571 13.7022C3.92237 14.3593 2.57895 14.7307 1.23552 14.7593C0.592394 14.7735 0.0635986 14.8307 0.0635986 14.8735C0.0635986 15.0164 1.80719 15.8164 2.82191 16.1306C5.86605 17.0592 9.48187 16.6592 12.1973 15.0735C14.1267 13.945 16.0561 11.7023 16.9565 9.53092C17.4424 8.37383 17.9283 6.25963 17.9283 5.24539C17.9283 4.58828 17.9712 4.50257 18.7715 3.71689C19.2431 3.25977 19.6862 2.75979 19.7719 2.61694C19.9149 2.34552 19.9006 2.34552 19.1717 2.58837C17.9569 3.01692 17.7854 2.95978 18.3856 2.31695C18.8287 1.85983 19.3575 1.03129 19.3575 0.788447C19.3575 0.745591 19.1431 0.817017 18.9001 0.945583C18.6429 1.08843 18.0712 1.30271 17.6425 1.43128L16.8707 1.67412L16.1704 1.20271C15.7845 0.945583 15.2414 0.659881 14.9556 0.57417C14.2267 0.374179 13.112 0.402749 12.4546 0.631311C10.6681 1.27414 9.53904 2.93121 9.66766 4.74542Z" fill="#44E0B7"/>
</svg>
